G04 #@! TF.GenerationSoftware,KiCad,Pcbnew,(5.0.0)*
G04 #@! TF.CreationDate,2018-10-15T10:25:54+02:00*
G04 #@! TF.ProjectId,Amplificador_3W_TDA2822,416D706C6966696361646F725F33575F,rev?*
G04 #@! TF.SameCoordinates,Original*
G04 #@! TF.FileFunction,Soldermask,Bot*
G04 #@! TF.FilePolarity,Negative*
%FSLAX46Y46*%
G04 Gerber Fmt 4.6, Leading zero omitted, Abs format (unit mm)*
G04 Created by KiCad (PCBNEW (5.0.0)) date 10/15/18 10:25:54*
%MOMM*%
%LPD*%
G01*
G04 APERTURE LIST*
%ADD10R,1.600000X1.600000*%
%ADD11C,1.600000*%
%ADD12R,3.000000X3.000000*%
%ADD13C,3.000000*%
%ADD14R,2.000000X2.000000*%
%ADD15O,1.500000X1.500000*%
%ADD16C,1.400000*%
%ADD17O,1.400000X1.400000*%
%ADD18O,1.600000X1.600000*%
%ADD19O,2.000000X3.000000*%
%ADD20R,2.400000X1.600000*%
%ADD21O,2.400000X1.600000*%
%ADD22C,2.200000*%
G04 APERTURE END LIST*
D10*
G04 #@! TO.C,C1*
X138430000Y-76200000D03*
D11*
X140930000Y-76200000D03*
G04 #@! TD*
D10*
G04 #@! TO.C,C2*
X138430000Y-68580000D03*
D11*
X140930000Y-68580000D03*
G04 #@! TD*
D10*
G04 #@! TO.C,C3*
X164592000Y-79502000D03*
D11*
X164592000Y-83002000D03*
G04 #@! TD*
D10*
G04 #@! TO.C,C4*
X162814000Y-69342000D03*
D11*
X166314000Y-69342000D03*
G04 #@! TD*
G04 #@! TO.C,C5*
X157226000Y-87884000D03*
X157226000Y-92884000D03*
G04 #@! TD*
G04 #@! TO.C,C6*
X155702000Y-98298000D03*
X150702000Y-98298000D03*
G04 #@! TD*
D12*
G04 #@! TO.C,J1*
X118110000Y-68580000D03*
D13*
X118110000Y-73660000D03*
G04 #@! TD*
D14*
G04 #@! TO.C,J2*
X133420000Y-111010000D03*
D15*
X134170000Y-108260000D03*
D14*
X125420000Y-111510000D03*
X133420000Y-105510000D03*
X125420000Y-105010000D03*
G04 #@! TD*
D12*
G04 #@! TO.C,J3*
X166370000Y-104394000D03*
D13*
X166370000Y-99314000D03*
X166370000Y-94234000D03*
G04 #@! TD*
D16*
G04 #@! TO.C,R1*
X129540000Y-76200000D03*
D17*
X124460000Y-76200000D03*
G04 #@! TD*
D16*
G04 #@! TO.C,R2*
X149098000Y-91694000D03*
D17*
X149098000Y-86614000D03*
G04 #@! TD*
D11*
G04 #@! TO.C,R3*
X156210000Y-105410000D03*
D18*
X143510000Y-105410000D03*
G04 #@! TD*
D11*
G04 #@! TO.C,R4*
X156210000Y-110490000D03*
D18*
X143510000Y-110490000D03*
G04 #@! TD*
D19*
G04 #@! TO.C,RV1*
X126540000Y-95090000D03*
X126540000Y-90090000D03*
X126540000Y-85090000D03*
X136540000Y-95090000D03*
X136540000Y-90090000D03*
X136540000Y-85090000D03*
G04 #@! TD*
D20*
G04 #@! TO.C,U1*
X156210000Y-74930000D03*
D21*
X148590000Y-67310000D03*
X156210000Y-72390000D03*
X148590000Y-69850000D03*
X156210000Y-69850000D03*
X148590000Y-72390000D03*
X156210000Y-67310000D03*
X148590000Y-74930000D03*
G04 #@! TD*
D22*
G04 #@! TO.C,REF\002A\002A*
X113030000Y-59690000D03*
G04 #@! TD*
G04 #@! TO.C,REF\002A\002A*
X168148000Y-112522000D03*
G04 #@! TD*
M02*
