G04 #@! TF.GenerationSoftware,KiCad,Pcbnew,(5.0.0)*
G04 #@! TF.CreationDate,2018-10-15T10:25:54+02:00*
G04 #@! TF.ProjectId,Amplificador_3W_TDA2822,416D706C6966696361646F725F33575F,rev?*
G04 #@! TF.SameCoordinates,Original*
G04 #@! TF.FileFunction,Copper,L1,Top,Signal*
G04 #@! TF.FilePolarity,Positive*
%FSLAX46Y46*%
G04 Gerber Fmt 4.6, Leading zero omitted, Abs format (unit mm)*
G04 Created by KiCad (PCBNEW (5.0.0)) date 10/15/18 10:25:54*
%MOMM*%
%LPD*%
G01*
G04 APERTURE LIST*
G04 #@! TA.AperFunction,ComponentPad*
%ADD10R,1.600000X1.600000*%
G04 #@! TD*
G04 #@! TA.AperFunction,ComponentPad*
%ADD11C,1.600000*%
G04 #@! TD*
G04 #@! TA.AperFunction,ComponentPad*
%ADD12R,3.000000X3.000000*%
G04 #@! TD*
G04 #@! TA.AperFunction,ComponentPad*
%ADD13C,3.000000*%
G04 #@! TD*
G04 #@! TA.AperFunction,ComponentPad*
%ADD14R,2.000000X2.000000*%
G04 #@! TD*
G04 #@! TA.AperFunction,ComponentPad*
%ADD15O,1.500000X1.500000*%
G04 #@! TD*
G04 #@! TA.AperFunction,ComponentPad*
%ADD16C,1.400000*%
G04 #@! TD*
G04 #@! TA.AperFunction,ComponentPad*
%ADD17O,1.400000X1.400000*%
G04 #@! TD*
G04 #@! TA.AperFunction,ComponentPad*
%ADD18O,1.600000X1.600000*%
G04 #@! TD*
G04 #@! TA.AperFunction,ComponentPad*
%ADD19O,2.000000X3.000000*%
G04 #@! TD*
G04 #@! TA.AperFunction,ComponentPad*
%ADD20R,2.400000X1.600000*%
G04 #@! TD*
G04 #@! TA.AperFunction,ComponentPad*
%ADD21O,2.400000X1.600000*%
G04 #@! TD*
G04 APERTURE END LIST*
D10*
G04 #@! TO.P,C1,1*
G04 #@! TO.N,IN-L(-)*
X138430000Y-76200000D03*
D11*
G04 #@! TO.P,C1,2*
G04 #@! TO.N,Earth*
X140930000Y-76200000D03*
G04 #@! TD*
D10*
G04 #@! TO.P,C2,1*
G04 #@! TO.N,IN-R(-)*
X138430000Y-68580000D03*
D11*
G04 #@! TO.P,C2,2*
G04 #@! TO.N,Earth*
X140930000Y-68580000D03*
G04 #@! TD*
D10*
G04 #@! TO.P,C3,1*
G04 #@! TO.N,OUT-L*
X164592000Y-79502000D03*
D11*
G04 #@! TO.P,C3,2*
G04 #@! TO.N,Net-(C3-Pad2)*
X164592000Y-83002000D03*
G04 #@! TD*
D10*
G04 #@! TO.P,C4,1*
G04 #@! TO.N,OUT-R*
X162814000Y-69342000D03*
D11*
G04 #@! TO.P,C4,2*
G04 #@! TO.N,Net-(C4-Pad2)*
X166314000Y-69342000D03*
G04 #@! TD*
G04 #@! TO.P,C5,1*
G04 #@! TO.N,Net-(C3-Pad2)*
X157226000Y-87884000D03*
G04 #@! TO.P,C5,2*
G04 #@! TO.N,Net-(C5-Pad2)*
X157226000Y-92884000D03*
G04 #@! TD*
G04 #@! TO.P,C6,1*
G04 #@! TO.N,Net-(C4-Pad2)*
X155702000Y-98298000D03*
G04 #@! TO.P,C6,2*
G04 #@! TO.N,Net-(C6-Pad2)*
X150702000Y-98298000D03*
G04 #@! TD*
D12*
G04 #@! TO.P,J1,1*
G04 #@! TO.N,+12V*
X118110000Y-68580000D03*
D13*
G04 #@! TO.P,J1,2*
G04 #@! TO.N,Earth*
X118110000Y-73660000D03*
G04 #@! TD*
D14*
G04 #@! TO.P,J2,S*
G04 #@! TO.N,Earth*
X133420000Y-111010000D03*
D15*
X134170000Y-108260000D03*
D14*
G04 #@! TO.P,J2,T*
G04 #@! TO.N,Net-(J2-PadT)*
X125420000Y-111510000D03*
G04 #@! TO.P,J2,R*
G04 #@! TO.N,Net-(J2-PadR)*
X133420000Y-105510000D03*
G04 #@! TO.P,J2,T*
G04 #@! TO.N,Net-(J2-PadT)*
X125420000Y-105010000D03*
G04 #@! TD*
D12*
G04 #@! TO.P,J3,1*
G04 #@! TO.N,Net-(C3-Pad2)*
X166370000Y-104394000D03*
D13*
G04 #@! TO.P,J3,2*
G04 #@! TO.N,Earth*
X166370000Y-99314000D03*
G04 #@! TO.P,J3,3*
G04 #@! TO.N,Net-(C4-Pad2)*
X166370000Y-94234000D03*
G04 #@! TD*
D16*
G04 #@! TO.P,R1,1*
G04 #@! TO.N,IN-L(+)*
X129540000Y-76200000D03*
D17*
G04 #@! TO.P,R1,2*
G04 #@! TO.N,Earth*
X124460000Y-76200000D03*
G04 #@! TD*
D16*
G04 #@! TO.P,R2,1*
G04 #@! TO.N,IN-R(+)*
X149098000Y-91694000D03*
D17*
G04 #@! TO.P,R2,2*
G04 #@! TO.N,Earth*
X149098000Y-86614000D03*
G04 #@! TD*
D11*
G04 #@! TO.P,R3,1*
G04 #@! TO.N,Net-(C5-Pad2)*
X156210000Y-105410000D03*
D18*
G04 #@! TO.P,R3,2*
G04 #@! TO.N,Earth*
X143510000Y-105410000D03*
G04 #@! TD*
D11*
G04 #@! TO.P,R4,1*
G04 #@! TO.N,Net-(C6-Pad2)*
X156210000Y-110490000D03*
D18*
G04 #@! TO.P,R4,2*
G04 #@! TO.N,Earth*
X143510000Y-110490000D03*
G04 #@! TD*
D19*
G04 #@! TO.P,RV1,1*
G04 #@! TO.N,Net-(J2-PadT)*
X126540000Y-95090000D03*
G04 #@! TO.P,RV1,2*
G04 #@! TO.N,IN-L(+)*
X126540000Y-90090000D03*
G04 #@! TO.P,RV1,3*
G04 #@! TO.N,Earth*
X126540000Y-85090000D03*
G04 #@! TO.P,RV1,4*
G04 #@! TO.N,Net-(J2-PadR)*
X136540000Y-95090000D03*
G04 #@! TO.P,RV1,5*
G04 #@! TO.N,IN-R(+)*
X136540000Y-90090000D03*
G04 #@! TO.P,RV1,6*
G04 #@! TO.N,Earth*
X136540000Y-85090000D03*
G04 #@! TD*
D20*
G04 #@! TO.P,U1,1*
G04 #@! TO.N,OUT-L*
X156210000Y-74930000D03*
D21*
G04 #@! TO.P,U1,5*
G04 #@! TO.N,IN-R(-)*
X148590000Y-67310000D03*
G04 #@! TO.P,U1,2*
G04 #@! TO.N,+12V*
X156210000Y-72390000D03*
G04 #@! TO.P,U1,6*
G04 #@! TO.N,IN-R(+)*
X148590000Y-69850000D03*
G04 #@! TO.P,U1,3*
G04 #@! TO.N,OUT-R*
X156210000Y-69850000D03*
G04 #@! TO.P,U1,7*
G04 #@! TO.N,IN-L(+)*
X148590000Y-72390000D03*
G04 #@! TO.P,U1,4*
G04 #@! TO.N,Earth*
X156210000Y-67310000D03*
G04 #@! TO.P,U1,8*
G04 #@! TO.N,IN-L(-)*
X148590000Y-74930000D03*
G04 #@! TD*
M02*
