G04 #@! TF.GenerationSoftware,KiCad,Pcbnew,(5.0.0)*
G04 #@! TF.CreationDate,2018-10-15T10:25:54+02:00*
G04 #@! TF.ProjectId,Amplificador_3W_TDA2822,416D706C6966696361646F725F33575F,rev?*
G04 #@! TF.SameCoordinates,Original*
G04 #@! TF.FileFunction,Legend,Top*
G04 #@! TF.FilePolarity,Positive*
%FSLAX46Y46*%
G04 Gerber Fmt 4.6, Leading zero omitted, Abs format (unit mm)*
G04 Created by KiCad (PCBNEW (5.0.0)) date 10/15/18 10:25:54*
%MOMM*%
%LPD*%
G01*
G04 APERTURE LIST*
%ADD10C,0.254000*%
%ADD11C,0.300000*%
%ADD12C,0.381000*%
%ADD13C,0.508000*%
%ADD14C,0.120000*%
%ADD15C,0.150000*%
G04 APERTURE END LIST*
D10*
X135091714Y-101273428D02*
X135962571Y-101273428D01*
X135527142Y-102797428D02*
X135527142Y-101273428D01*
X136470571Y-102797428D02*
X136470571Y-101273428D01*
X136833428Y-101273428D01*
X137051142Y-101346000D01*
X137196285Y-101491142D01*
X137268857Y-101636285D01*
X137341428Y-101926571D01*
X137341428Y-102144285D01*
X137268857Y-102434571D01*
X137196285Y-102579714D01*
X137051142Y-102724857D01*
X136833428Y-102797428D01*
X136470571Y-102797428D01*
X137922000Y-102362000D02*
X138647714Y-102362000D01*
X137776857Y-102797428D02*
X138284857Y-101273428D01*
X138792857Y-102797428D01*
X139228285Y-101418571D02*
X139300857Y-101346000D01*
X139446000Y-101273428D01*
X139808857Y-101273428D01*
X139954000Y-101346000D01*
X140026571Y-101418571D01*
X140099142Y-101563714D01*
X140099142Y-101708857D01*
X140026571Y-101926571D01*
X139155714Y-102797428D01*
X140099142Y-102797428D01*
X140970000Y-101926571D02*
X140824857Y-101854000D01*
X140752285Y-101781428D01*
X140679714Y-101636285D01*
X140679714Y-101563714D01*
X140752285Y-101418571D01*
X140824857Y-101346000D01*
X140970000Y-101273428D01*
X141260285Y-101273428D01*
X141405428Y-101346000D01*
X141478000Y-101418571D01*
X141550571Y-101563714D01*
X141550571Y-101636285D01*
X141478000Y-101781428D01*
X141405428Y-101854000D01*
X141260285Y-101926571D01*
X140970000Y-101926571D01*
X140824857Y-101999142D01*
X140752285Y-102071714D01*
X140679714Y-102216857D01*
X140679714Y-102507142D01*
X140752285Y-102652285D01*
X140824857Y-102724857D01*
X140970000Y-102797428D01*
X141260285Y-102797428D01*
X141405428Y-102724857D01*
X141478000Y-102652285D01*
X141550571Y-102507142D01*
X141550571Y-102216857D01*
X141478000Y-102071714D01*
X141405428Y-101999142D01*
X141260285Y-101926571D01*
X142131142Y-101418571D02*
X142203714Y-101346000D01*
X142348857Y-101273428D01*
X142711714Y-101273428D01*
X142856857Y-101346000D01*
X142929428Y-101418571D01*
X143002000Y-101563714D01*
X143002000Y-101708857D01*
X142929428Y-101926571D01*
X142058571Y-102797428D01*
X143002000Y-102797428D01*
X143582571Y-101418571D02*
X143655142Y-101346000D01*
X143800285Y-101273428D01*
X144163142Y-101273428D01*
X144308285Y-101346000D01*
X144380857Y-101418571D01*
X144453428Y-101563714D01*
X144453428Y-101708857D01*
X144380857Y-101926571D01*
X143510000Y-102797428D01*
X144453428Y-102797428D01*
X145106571Y-102797428D02*
X145106571Y-101273428D01*
X145614571Y-102362000D01*
X146122571Y-101273428D01*
X146122571Y-102797428D01*
D11*
X157536285Y-59884571D02*
X158036285Y-61384571D01*
X158536285Y-59884571D01*
X159822000Y-61384571D02*
X158964857Y-61384571D01*
X159393428Y-61384571D02*
X159393428Y-59884571D01*
X159250571Y-60098857D01*
X159107714Y-60241714D01*
X158964857Y-60313142D01*
X161250571Y-61527428D02*
X162393428Y-61527428D01*
X163822000Y-60027428D02*
X163893428Y-59956000D01*
X164036285Y-59884571D01*
X164393428Y-59884571D01*
X164536285Y-59956000D01*
X164607714Y-60027428D01*
X164679142Y-60170285D01*
X164679142Y-60313142D01*
X164607714Y-60527428D01*
X163750571Y-61384571D01*
X164679142Y-61384571D01*
X165607714Y-59884571D02*
X165750571Y-59884571D01*
X165893428Y-59956000D01*
X165964857Y-60027428D01*
X166036285Y-60170285D01*
X166107714Y-60456000D01*
X166107714Y-60813142D01*
X166036285Y-61098857D01*
X165964857Y-61241714D01*
X165893428Y-61313142D01*
X165750571Y-61384571D01*
X165607714Y-61384571D01*
X165464857Y-61313142D01*
X165393428Y-61241714D01*
X165322000Y-61098857D01*
X165250571Y-60813142D01*
X165250571Y-60456000D01*
X165322000Y-60170285D01*
X165393428Y-60027428D01*
X165464857Y-59956000D01*
X165607714Y-59884571D01*
X167536285Y-61384571D02*
X166679142Y-61384571D01*
X167107714Y-61384571D02*
X167107714Y-59884571D01*
X166964857Y-60098857D01*
X166822000Y-60241714D01*
X166679142Y-60313142D01*
X168393428Y-60527428D02*
X168250571Y-60456000D01*
X168179142Y-60384571D01*
X168107714Y-60241714D01*
X168107714Y-60170285D01*
X168179142Y-60027428D01*
X168250571Y-59956000D01*
X168393428Y-59884571D01*
X168679142Y-59884571D01*
X168822000Y-59956000D01*
X168893428Y-60027428D01*
X168964857Y-60170285D01*
X168964857Y-60241714D01*
X168893428Y-60384571D01*
X168822000Y-60456000D01*
X168679142Y-60527428D01*
X168393428Y-60527428D01*
X168250571Y-60598857D01*
X168179142Y-60670285D01*
X168107714Y-60813142D01*
X168107714Y-61098857D01*
X168179142Y-61241714D01*
X168250571Y-61313142D01*
X168393428Y-61384571D01*
X168679142Y-61384571D01*
X168822000Y-61313142D01*
X168893428Y-61241714D01*
X168964857Y-61098857D01*
X168964857Y-60813142D01*
X168893428Y-60670285D01*
X168822000Y-60598857D01*
X168679142Y-60527428D01*
D10*
X128282095Y-112903000D02*
X128088571Y-112818333D01*
X127798285Y-112818333D01*
X127508000Y-112903000D01*
X127314476Y-113072333D01*
X127217714Y-113241666D01*
X127120952Y-113580333D01*
X127120952Y-113834333D01*
X127217714Y-114173000D01*
X127314476Y-114342333D01*
X127508000Y-114511666D01*
X127798285Y-114596333D01*
X127991809Y-114596333D01*
X128282095Y-114511666D01*
X128378857Y-114427000D01*
X128378857Y-113834333D01*
X127991809Y-113834333D01*
X129249714Y-114427000D02*
X129346476Y-114511666D01*
X129249714Y-114596333D01*
X129152952Y-114511666D01*
X129249714Y-114427000D01*
X129249714Y-114596333D01*
X131281714Y-112903000D02*
X131088190Y-112818333D01*
X130797904Y-112818333D01*
X130507619Y-112903000D01*
X130314095Y-113072333D01*
X130217333Y-113241666D01*
X130120571Y-113580333D01*
X130120571Y-113834333D01*
X130217333Y-114173000D01*
X130314095Y-114342333D01*
X130507619Y-114511666D01*
X130797904Y-114596333D01*
X130991428Y-114596333D01*
X131281714Y-114511666D01*
X131378476Y-114427000D01*
X131378476Y-113834333D01*
X130991428Y-113834333D01*
X132539619Y-114596333D02*
X132346095Y-114511666D01*
X132249333Y-114427000D01*
X132152571Y-114257666D01*
X132152571Y-113749666D01*
X132249333Y-113580333D01*
X132346095Y-113495666D01*
X132539619Y-113411000D01*
X132829904Y-113411000D01*
X133023428Y-113495666D01*
X133120190Y-113580333D01*
X133216952Y-113749666D01*
X133216952Y-114257666D01*
X133120190Y-114427000D01*
X133023428Y-114511666D01*
X132829904Y-114596333D01*
X132539619Y-114596333D01*
X134087809Y-114596333D02*
X134087809Y-113411000D01*
X134087809Y-113580333D02*
X134184571Y-113495666D01*
X134378095Y-113411000D01*
X134668380Y-113411000D01*
X134861904Y-113495666D01*
X134958666Y-113665000D01*
X134958666Y-114596333D01*
X134958666Y-113665000D02*
X135055428Y-113495666D01*
X135248952Y-113411000D01*
X135539238Y-113411000D01*
X135732761Y-113495666D01*
X135829523Y-113665000D01*
X135829523Y-114596333D01*
X137571238Y-114511666D02*
X137377714Y-114596333D01*
X136990666Y-114596333D01*
X136797142Y-114511666D01*
X136700380Y-114342333D01*
X136700380Y-113665000D01*
X136797142Y-113495666D01*
X136990666Y-113411000D01*
X137377714Y-113411000D01*
X137571238Y-113495666D01*
X137668000Y-113665000D01*
X137668000Y-113834333D01*
X136700380Y-114003666D01*
X138538857Y-113411000D02*
X138538857Y-114596333D01*
X138538857Y-113580333D02*
X138635619Y-113495666D01*
X138829142Y-113411000D01*
X139119428Y-113411000D01*
X139312952Y-113495666D01*
X139409714Y-113665000D01*
X139409714Y-114596333D01*
X141248190Y-114596333D02*
X141248190Y-112818333D01*
X141248190Y-114511666D02*
X141054666Y-114596333D01*
X140667619Y-114596333D01*
X140474095Y-114511666D01*
X140377333Y-114427000D01*
X140280571Y-114257666D01*
X140280571Y-113749666D01*
X140377333Y-113580333D01*
X140474095Y-113495666D01*
X140667619Y-113411000D01*
X141054666Y-113411000D01*
X141248190Y-113495666D01*
X142215809Y-114596333D02*
X142215809Y-113411000D01*
X142215809Y-112818333D02*
X142119047Y-112903000D01*
X142215809Y-112987666D01*
X142312571Y-112903000D01*
X142215809Y-112818333D01*
X142215809Y-112987666D01*
X143473714Y-114596333D02*
X143280190Y-114511666D01*
X143183428Y-114427000D01*
X143086666Y-114257666D01*
X143086666Y-113749666D01*
X143183428Y-113580333D01*
X143280190Y-113495666D01*
X143473714Y-113411000D01*
X143764000Y-113411000D01*
X143957523Y-113495666D01*
X144054285Y-113580333D01*
X144151047Y-113749666D01*
X144151047Y-114257666D01*
X144054285Y-114427000D01*
X143957523Y-114511666D01*
X143764000Y-114596333D01*
X143473714Y-114596333D01*
D12*
X123685904Y-60113333D02*
X124895428Y-60113333D01*
X123444000Y-60839047D02*
X124290666Y-58299047D01*
X125137333Y-60839047D01*
X125984000Y-60839047D02*
X125984000Y-59145714D01*
X125984000Y-59387619D02*
X126104952Y-59266666D01*
X126346857Y-59145714D01*
X126709714Y-59145714D01*
X126951619Y-59266666D01*
X127072571Y-59508571D01*
X127072571Y-60839047D01*
X127072571Y-59508571D02*
X127193523Y-59266666D01*
X127435428Y-59145714D01*
X127798285Y-59145714D01*
X128040190Y-59266666D01*
X128161142Y-59508571D01*
X128161142Y-60839047D01*
X129370666Y-59145714D02*
X129370666Y-61685714D01*
X129370666Y-59266666D02*
X129612571Y-59145714D01*
X130096380Y-59145714D01*
X130338285Y-59266666D01*
X130459238Y-59387619D01*
X130580190Y-59629523D01*
X130580190Y-60355238D01*
X130459238Y-60597142D01*
X130338285Y-60718095D01*
X130096380Y-60839047D01*
X129612571Y-60839047D01*
X129370666Y-60718095D01*
X132031619Y-60839047D02*
X131789714Y-60718095D01*
X131668761Y-60476190D01*
X131668761Y-58299047D01*
X132999238Y-60839047D02*
X132999238Y-59145714D01*
X132999238Y-58299047D02*
X132878285Y-58420000D01*
X132999238Y-58540952D01*
X133120190Y-58420000D01*
X132999238Y-58299047D01*
X132999238Y-58540952D01*
X133845904Y-59145714D02*
X134813523Y-59145714D01*
X134208761Y-60839047D02*
X134208761Y-58661904D01*
X134329714Y-58420000D01*
X134571619Y-58299047D01*
X134813523Y-58299047D01*
X135660190Y-60839047D02*
X135660190Y-59145714D01*
X135660190Y-58299047D02*
X135539238Y-58420000D01*
X135660190Y-58540952D01*
X135781142Y-58420000D01*
X135660190Y-58299047D01*
X135660190Y-58540952D01*
X137958285Y-60718095D02*
X137716380Y-60839047D01*
X137232571Y-60839047D01*
X136990666Y-60718095D01*
X136869714Y-60597142D01*
X136748761Y-60355238D01*
X136748761Y-59629523D01*
X136869714Y-59387619D01*
X136990666Y-59266666D01*
X137232571Y-59145714D01*
X137716380Y-59145714D01*
X137958285Y-59266666D01*
X140135428Y-60839047D02*
X140135428Y-59508571D01*
X140014476Y-59266666D01*
X139772571Y-59145714D01*
X139288761Y-59145714D01*
X139046857Y-59266666D01*
X140135428Y-60718095D02*
X139893523Y-60839047D01*
X139288761Y-60839047D01*
X139046857Y-60718095D01*
X138925904Y-60476190D01*
X138925904Y-60234285D01*
X139046857Y-59992380D01*
X139288761Y-59871428D01*
X139893523Y-59871428D01*
X140135428Y-59750476D01*
X142433523Y-60839047D02*
X142433523Y-58299047D01*
X142433523Y-60718095D02*
X142191619Y-60839047D01*
X141707809Y-60839047D01*
X141465904Y-60718095D01*
X141344952Y-60597142D01*
X141224000Y-60355238D01*
X141224000Y-59629523D01*
X141344952Y-59387619D01*
X141465904Y-59266666D01*
X141707809Y-59145714D01*
X142191619Y-59145714D01*
X142433523Y-59266666D01*
X144005904Y-60839047D02*
X143764000Y-60718095D01*
X143643047Y-60597142D01*
X143522095Y-60355238D01*
X143522095Y-59629523D01*
X143643047Y-59387619D01*
X143764000Y-59266666D01*
X144005904Y-59145714D01*
X144368761Y-59145714D01*
X144610666Y-59266666D01*
X144731619Y-59387619D01*
X144852571Y-59629523D01*
X144852571Y-60355238D01*
X144731619Y-60597142D01*
X144610666Y-60718095D01*
X144368761Y-60839047D01*
X144005904Y-60839047D01*
X145941142Y-60839047D02*
X145941142Y-59145714D01*
X145941142Y-59629523D02*
X146062095Y-59387619D01*
X146183047Y-59266666D01*
X146424952Y-59145714D01*
X146666857Y-59145714D01*
X146908761Y-61080952D02*
X148844000Y-61080952D01*
X149206857Y-58299047D02*
X150779238Y-58299047D01*
X149932571Y-59266666D01*
X150295428Y-59266666D01*
X150537333Y-59387619D01*
X150658285Y-59508571D01*
X150779238Y-59750476D01*
X150779238Y-60355238D01*
X150658285Y-60597142D01*
X150537333Y-60718095D01*
X150295428Y-60839047D01*
X149569714Y-60839047D01*
X149327809Y-60718095D01*
X149206857Y-60597142D01*
X151625904Y-58299047D02*
X152230666Y-60839047D01*
X152714476Y-59024761D01*
X153198285Y-60839047D01*
X153803047Y-58299047D01*
D10*
X158665333Y-98171000D02*
X158496000Y-98062142D01*
X158242000Y-98062142D01*
X157988000Y-98171000D01*
X157818666Y-98388714D01*
X157734000Y-98606428D01*
X157649333Y-99041857D01*
X157649333Y-99368428D01*
X157734000Y-99803857D01*
X157818666Y-100021571D01*
X157988000Y-100239285D01*
X158242000Y-100348142D01*
X158411333Y-100348142D01*
X158665333Y-100239285D01*
X158750000Y-100130428D01*
X158750000Y-99368428D01*
X158411333Y-99368428D01*
X159512000Y-100348142D02*
X159512000Y-98062142D01*
X160528000Y-100348142D01*
X160528000Y-98062142D01*
X161374666Y-100348142D02*
X161374666Y-98062142D01*
X161798000Y-98062142D01*
X162052000Y-98171000D01*
X162221333Y-98388714D01*
X162306000Y-98606428D01*
X162390666Y-99041857D01*
X162390666Y-99368428D01*
X162306000Y-99803857D01*
X162221333Y-100021571D01*
X162052000Y-100239285D01*
X161798000Y-100348142D01*
X161374666Y-100348142D01*
X161997571Y-95268142D02*
X161235571Y-94179571D01*
X160691285Y-95268142D02*
X160691285Y-92982142D01*
X161562142Y-92982142D01*
X161779857Y-93091000D01*
X161888714Y-93199857D01*
X161997571Y-93417571D01*
X161997571Y-93744142D01*
X161888714Y-93961857D01*
X161779857Y-94070714D01*
X161562142Y-94179571D01*
X160691285Y-94179571D01*
D11*
X161997571Y-105428142D02*
X160909000Y-105428142D01*
X160909000Y-103142142D01*
D13*
X112255904Y-73805142D02*
X113804095Y-73805142D01*
X112255904Y-68725142D02*
X113804095Y-68725142D01*
X113030000Y-69499238D02*
X113030000Y-67951047D01*
D14*
G04 #@! TO.C,C1*
X142697820Y-75020864D02*
G75*
G03X136662518Y-75020000I-3017820J-1179136D01*
G01*
X142697820Y-77379136D02*
G75*
G02X136662518Y-77380000I-3017820J1179136D01*
G01*
X142697820Y-77379136D02*
G75*
G03X142697482Y-75020000I-3017820J1179136D01*
G01*
X139680000Y-73000000D02*
X139680000Y-79400000D01*
X139720000Y-73000000D02*
X139720000Y-79400000D01*
X139760000Y-73000000D02*
X139760000Y-79400000D01*
X139800000Y-73002000D02*
X139800000Y-79398000D01*
X139840000Y-73003000D02*
X139840000Y-79397000D01*
X139880000Y-73006000D02*
X139880000Y-79394000D01*
X139920000Y-73008000D02*
X139920000Y-79392000D01*
X139960000Y-73012000D02*
X139960000Y-75220000D01*
X139960000Y-77180000D02*
X139960000Y-79388000D01*
X140000000Y-73015000D02*
X140000000Y-75220000D01*
X140000000Y-77180000D02*
X140000000Y-79385000D01*
X140040000Y-73020000D02*
X140040000Y-75220000D01*
X140040000Y-77180000D02*
X140040000Y-79380000D01*
X140080000Y-73024000D02*
X140080000Y-75220000D01*
X140080000Y-77180000D02*
X140080000Y-79376000D01*
X140120000Y-73030000D02*
X140120000Y-75220000D01*
X140120000Y-77180000D02*
X140120000Y-79370000D01*
X140160000Y-73035000D02*
X140160000Y-75220000D01*
X140160000Y-77180000D02*
X140160000Y-79365000D01*
X140200000Y-73042000D02*
X140200000Y-75220000D01*
X140200000Y-77180000D02*
X140200000Y-79358000D01*
X140240000Y-73048000D02*
X140240000Y-75220000D01*
X140240000Y-77180000D02*
X140240000Y-79352000D01*
X140280000Y-73056000D02*
X140280000Y-75220000D01*
X140280000Y-77180000D02*
X140280000Y-79344000D01*
X140320000Y-73063000D02*
X140320000Y-75220000D01*
X140320000Y-77180000D02*
X140320000Y-79337000D01*
X140360000Y-73072000D02*
X140360000Y-75220000D01*
X140360000Y-77180000D02*
X140360000Y-79328000D01*
X140401000Y-73081000D02*
X140401000Y-75220000D01*
X140401000Y-77180000D02*
X140401000Y-79319000D01*
X140441000Y-73090000D02*
X140441000Y-75220000D01*
X140441000Y-77180000D02*
X140441000Y-79310000D01*
X140481000Y-73100000D02*
X140481000Y-75220000D01*
X140481000Y-77180000D02*
X140481000Y-79300000D01*
X140521000Y-73110000D02*
X140521000Y-75220000D01*
X140521000Y-77180000D02*
X140521000Y-79290000D01*
X140561000Y-73121000D02*
X140561000Y-75220000D01*
X140561000Y-77180000D02*
X140561000Y-79279000D01*
X140601000Y-73133000D02*
X140601000Y-75220000D01*
X140601000Y-77180000D02*
X140601000Y-79267000D01*
X140641000Y-73145000D02*
X140641000Y-75220000D01*
X140641000Y-77180000D02*
X140641000Y-79255000D01*
X140681000Y-73158000D02*
X140681000Y-75220000D01*
X140681000Y-77180000D02*
X140681000Y-79242000D01*
X140721000Y-73171000D02*
X140721000Y-75220000D01*
X140721000Y-77180000D02*
X140721000Y-79229000D01*
X140761000Y-73185000D02*
X140761000Y-75220000D01*
X140761000Y-77180000D02*
X140761000Y-79215000D01*
X140801000Y-73199000D02*
X140801000Y-75220000D01*
X140801000Y-77180000D02*
X140801000Y-79201000D01*
X140841000Y-73214000D02*
X140841000Y-75220000D01*
X140841000Y-77180000D02*
X140841000Y-79186000D01*
X140881000Y-73230000D02*
X140881000Y-75220000D01*
X140881000Y-77180000D02*
X140881000Y-79170000D01*
X140921000Y-73246000D02*
X140921000Y-75220000D01*
X140921000Y-77180000D02*
X140921000Y-79154000D01*
X140961000Y-73263000D02*
X140961000Y-75220000D01*
X140961000Y-77180000D02*
X140961000Y-79137000D01*
X141001000Y-73281000D02*
X141001000Y-75220000D01*
X141001000Y-77180000D02*
X141001000Y-79119000D01*
X141041000Y-73299000D02*
X141041000Y-75220000D01*
X141041000Y-77180000D02*
X141041000Y-79101000D01*
X141081000Y-73318000D02*
X141081000Y-75220000D01*
X141081000Y-77180000D02*
X141081000Y-79082000D01*
X141121000Y-73337000D02*
X141121000Y-75220000D01*
X141121000Y-77180000D02*
X141121000Y-79063000D01*
X141161000Y-73357000D02*
X141161000Y-75220000D01*
X141161000Y-77180000D02*
X141161000Y-79043000D01*
X141201000Y-73378000D02*
X141201000Y-75220000D01*
X141201000Y-77180000D02*
X141201000Y-79022000D01*
X141241000Y-73400000D02*
X141241000Y-75220000D01*
X141241000Y-77180000D02*
X141241000Y-79000000D01*
X141281000Y-73422000D02*
X141281000Y-75220000D01*
X141281000Y-77180000D02*
X141281000Y-78978000D01*
X141321000Y-73445000D02*
X141321000Y-75220000D01*
X141321000Y-77180000D02*
X141321000Y-78955000D01*
X141361000Y-73469000D02*
X141361000Y-75220000D01*
X141361000Y-77180000D02*
X141361000Y-78931000D01*
X141401000Y-73494000D02*
X141401000Y-75220000D01*
X141401000Y-77180000D02*
X141401000Y-78906000D01*
X141441000Y-73519000D02*
X141441000Y-75220000D01*
X141441000Y-77180000D02*
X141441000Y-78881000D01*
X141481000Y-73546000D02*
X141481000Y-75220000D01*
X141481000Y-77180000D02*
X141481000Y-78854000D01*
X141521000Y-73573000D02*
X141521000Y-75220000D01*
X141521000Y-77180000D02*
X141521000Y-78827000D01*
X141561000Y-73601000D02*
X141561000Y-75220000D01*
X141561000Y-77180000D02*
X141561000Y-78799000D01*
X141601000Y-73630000D02*
X141601000Y-75220000D01*
X141601000Y-77180000D02*
X141601000Y-78770000D01*
X141641000Y-73660000D02*
X141641000Y-75220000D01*
X141641000Y-77180000D02*
X141641000Y-78740000D01*
X141681000Y-73690000D02*
X141681000Y-75220000D01*
X141681000Y-77180000D02*
X141681000Y-78710000D01*
X141721000Y-73722000D02*
X141721000Y-75220000D01*
X141721000Y-77180000D02*
X141721000Y-78678000D01*
X141761000Y-73755000D02*
X141761000Y-75220000D01*
X141761000Y-77180000D02*
X141761000Y-78645000D01*
X141801000Y-73789000D02*
X141801000Y-75220000D01*
X141801000Y-77180000D02*
X141801000Y-78611000D01*
X141841000Y-73825000D02*
X141841000Y-75220000D01*
X141841000Y-77180000D02*
X141841000Y-78575000D01*
X141881000Y-73861000D02*
X141881000Y-75220000D01*
X141881000Y-77180000D02*
X141881000Y-78539000D01*
X141921000Y-73899000D02*
X141921000Y-78501000D01*
X141961000Y-73938000D02*
X141961000Y-78462000D01*
X142001000Y-73978000D02*
X142001000Y-78422000D01*
X142041000Y-74020000D02*
X142041000Y-78380000D01*
X142081000Y-74063000D02*
X142081000Y-78337000D01*
X142121000Y-74108000D02*
X142121000Y-78292000D01*
X142161000Y-74155000D02*
X142161000Y-78245000D01*
X142201000Y-74203000D02*
X142201000Y-78197000D01*
X142241000Y-74254000D02*
X142241000Y-78146000D01*
X142281000Y-74306000D02*
X142281000Y-78094000D01*
X142321000Y-74361000D02*
X142321000Y-78039000D01*
X142361000Y-74419000D02*
X142361000Y-77981000D01*
X142401000Y-74479000D02*
X142401000Y-77921000D01*
X142441000Y-74542000D02*
X142441000Y-77858000D01*
X142481000Y-74609000D02*
X142481000Y-77791000D01*
X142521000Y-74680000D02*
X142521000Y-77720000D01*
X142561000Y-74755000D02*
X142561000Y-77645000D01*
X142601000Y-74836000D02*
X142601000Y-77564000D01*
X142641000Y-74922000D02*
X142641000Y-77478000D01*
X142681000Y-75016000D02*
X142681000Y-77384000D01*
X142721000Y-75119000D02*
X142721000Y-77281000D01*
X142761000Y-75234000D02*
X142761000Y-77166000D01*
X142801000Y-75366000D02*
X142801000Y-77034000D01*
X142841000Y-75524000D02*
X142841000Y-76876000D01*
X142881000Y-75732000D02*
X142881000Y-76668000D01*
X136230000Y-76200000D02*
X137430000Y-76200000D01*
X136830000Y-75550000D02*
X136830000Y-76850000D01*
G04 #@! TO.C,C2*
X142697820Y-67400864D02*
G75*
G03X136662518Y-67400000I-3017820J-1179136D01*
G01*
X142697820Y-69759136D02*
G75*
G02X136662518Y-69760000I-3017820J1179136D01*
G01*
X142697820Y-69759136D02*
G75*
G03X142697482Y-67400000I-3017820J1179136D01*
G01*
X139680000Y-65380000D02*
X139680000Y-71780000D01*
X139720000Y-65380000D02*
X139720000Y-71780000D01*
X139760000Y-65380000D02*
X139760000Y-71780000D01*
X139800000Y-65382000D02*
X139800000Y-71778000D01*
X139840000Y-65383000D02*
X139840000Y-71777000D01*
X139880000Y-65386000D02*
X139880000Y-71774000D01*
X139920000Y-65388000D02*
X139920000Y-71772000D01*
X139960000Y-65392000D02*
X139960000Y-67600000D01*
X139960000Y-69560000D02*
X139960000Y-71768000D01*
X140000000Y-65395000D02*
X140000000Y-67600000D01*
X140000000Y-69560000D02*
X140000000Y-71765000D01*
X140040000Y-65400000D02*
X140040000Y-67600000D01*
X140040000Y-69560000D02*
X140040000Y-71760000D01*
X140080000Y-65404000D02*
X140080000Y-67600000D01*
X140080000Y-69560000D02*
X140080000Y-71756000D01*
X140120000Y-65410000D02*
X140120000Y-67600000D01*
X140120000Y-69560000D02*
X140120000Y-71750000D01*
X140160000Y-65415000D02*
X140160000Y-67600000D01*
X140160000Y-69560000D02*
X140160000Y-71745000D01*
X140200000Y-65422000D02*
X140200000Y-67600000D01*
X140200000Y-69560000D02*
X140200000Y-71738000D01*
X140240000Y-65428000D02*
X140240000Y-67600000D01*
X140240000Y-69560000D02*
X140240000Y-71732000D01*
X140280000Y-65436000D02*
X140280000Y-67600000D01*
X140280000Y-69560000D02*
X140280000Y-71724000D01*
X140320000Y-65443000D02*
X140320000Y-67600000D01*
X140320000Y-69560000D02*
X140320000Y-71717000D01*
X140360000Y-65452000D02*
X140360000Y-67600000D01*
X140360000Y-69560000D02*
X140360000Y-71708000D01*
X140401000Y-65461000D02*
X140401000Y-67600000D01*
X140401000Y-69560000D02*
X140401000Y-71699000D01*
X140441000Y-65470000D02*
X140441000Y-67600000D01*
X140441000Y-69560000D02*
X140441000Y-71690000D01*
X140481000Y-65480000D02*
X140481000Y-67600000D01*
X140481000Y-69560000D02*
X140481000Y-71680000D01*
X140521000Y-65490000D02*
X140521000Y-67600000D01*
X140521000Y-69560000D02*
X140521000Y-71670000D01*
X140561000Y-65501000D02*
X140561000Y-67600000D01*
X140561000Y-69560000D02*
X140561000Y-71659000D01*
X140601000Y-65513000D02*
X140601000Y-67600000D01*
X140601000Y-69560000D02*
X140601000Y-71647000D01*
X140641000Y-65525000D02*
X140641000Y-67600000D01*
X140641000Y-69560000D02*
X140641000Y-71635000D01*
X140681000Y-65538000D02*
X140681000Y-67600000D01*
X140681000Y-69560000D02*
X140681000Y-71622000D01*
X140721000Y-65551000D02*
X140721000Y-67600000D01*
X140721000Y-69560000D02*
X140721000Y-71609000D01*
X140761000Y-65565000D02*
X140761000Y-67600000D01*
X140761000Y-69560000D02*
X140761000Y-71595000D01*
X140801000Y-65579000D02*
X140801000Y-67600000D01*
X140801000Y-69560000D02*
X140801000Y-71581000D01*
X140841000Y-65594000D02*
X140841000Y-67600000D01*
X140841000Y-69560000D02*
X140841000Y-71566000D01*
X140881000Y-65610000D02*
X140881000Y-67600000D01*
X140881000Y-69560000D02*
X140881000Y-71550000D01*
X140921000Y-65626000D02*
X140921000Y-67600000D01*
X140921000Y-69560000D02*
X140921000Y-71534000D01*
X140961000Y-65643000D02*
X140961000Y-67600000D01*
X140961000Y-69560000D02*
X140961000Y-71517000D01*
X141001000Y-65661000D02*
X141001000Y-67600000D01*
X141001000Y-69560000D02*
X141001000Y-71499000D01*
X141041000Y-65679000D02*
X141041000Y-67600000D01*
X141041000Y-69560000D02*
X141041000Y-71481000D01*
X141081000Y-65698000D02*
X141081000Y-67600000D01*
X141081000Y-69560000D02*
X141081000Y-71462000D01*
X141121000Y-65717000D02*
X141121000Y-67600000D01*
X141121000Y-69560000D02*
X141121000Y-71443000D01*
X141161000Y-65737000D02*
X141161000Y-67600000D01*
X141161000Y-69560000D02*
X141161000Y-71423000D01*
X141201000Y-65758000D02*
X141201000Y-67600000D01*
X141201000Y-69560000D02*
X141201000Y-71402000D01*
X141241000Y-65780000D02*
X141241000Y-67600000D01*
X141241000Y-69560000D02*
X141241000Y-71380000D01*
X141281000Y-65802000D02*
X141281000Y-67600000D01*
X141281000Y-69560000D02*
X141281000Y-71358000D01*
X141321000Y-65825000D02*
X141321000Y-67600000D01*
X141321000Y-69560000D02*
X141321000Y-71335000D01*
X141361000Y-65849000D02*
X141361000Y-67600000D01*
X141361000Y-69560000D02*
X141361000Y-71311000D01*
X141401000Y-65874000D02*
X141401000Y-67600000D01*
X141401000Y-69560000D02*
X141401000Y-71286000D01*
X141441000Y-65899000D02*
X141441000Y-67600000D01*
X141441000Y-69560000D02*
X141441000Y-71261000D01*
X141481000Y-65926000D02*
X141481000Y-67600000D01*
X141481000Y-69560000D02*
X141481000Y-71234000D01*
X141521000Y-65953000D02*
X141521000Y-67600000D01*
X141521000Y-69560000D02*
X141521000Y-71207000D01*
X141561000Y-65981000D02*
X141561000Y-67600000D01*
X141561000Y-69560000D02*
X141561000Y-71179000D01*
X141601000Y-66010000D02*
X141601000Y-67600000D01*
X141601000Y-69560000D02*
X141601000Y-71150000D01*
X141641000Y-66040000D02*
X141641000Y-67600000D01*
X141641000Y-69560000D02*
X141641000Y-71120000D01*
X141681000Y-66070000D02*
X141681000Y-67600000D01*
X141681000Y-69560000D02*
X141681000Y-71090000D01*
X141721000Y-66102000D02*
X141721000Y-67600000D01*
X141721000Y-69560000D02*
X141721000Y-71058000D01*
X141761000Y-66135000D02*
X141761000Y-67600000D01*
X141761000Y-69560000D02*
X141761000Y-71025000D01*
X141801000Y-66169000D02*
X141801000Y-67600000D01*
X141801000Y-69560000D02*
X141801000Y-70991000D01*
X141841000Y-66205000D02*
X141841000Y-67600000D01*
X141841000Y-69560000D02*
X141841000Y-70955000D01*
X141881000Y-66241000D02*
X141881000Y-67600000D01*
X141881000Y-69560000D02*
X141881000Y-70919000D01*
X141921000Y-66279000D02*
X141921000Y-70881000D01*
X141961000Y-66318000D02*
X141961000Y-70842000D01*
X142001000Y-66358000D02*
X142001000Y-70802000D01*
X142041000Y-66400000D02*
X142041000Y-70760000D01*
X142081000Y-66443000D02*
X142081000Y-70717000D01*
X142121000Y-66488000D02*
X142121000Y-70672000D01*
X142161000Y-66535000D02*
X142161000Y-70625000D01*
X142201000Y-66583000D02*
X142201000Y-70577000D01*
X142241000Y-66634000D02*
X142241000Y-70526000D01*
X142281000Y-66686000D02*
X142281000Y-70474000D01*
X142321000Y-66741000D02*
X142321000Y-70419000D01*
X142361000Y-66799000D02*
X142361000Y-70361000D01*
X142401000Y-66859000D02*
X142401000Y-70301000D01*
X142441000Y-66922000D02*
X142441000Y-70238000D01*
X142481000Y-66989000D02*
X142481000Y-70171000D01*
X142521000Y-67060000D02*
X142521000Y-70100000D01*
X142561000Y-67135000D02*
X142561000Y-70025000D01*
X142601000Y-67216000D02*
X142601000Y-69944000D01*
X142641000Y-67302000D02*
X142641000Y-69858000D01*
X142681000Y-67396000D02*
X142681000Y-69764000D01*
X142721000Y-67499000D02*
X142721000Y-69661000D01*
X142761000Y-67614000D02*
X142761000Y-69546000D01*
X142801000Y-67746000D02*
X142801000Y-69414000D01*
X142841000Y-67904000D02*
X142841000Y-69256000D01*
X142881000Y-68112000D02*
X142881000Y-69048000D01*
X136230000Y-68580000D02*
X137430000Y-68580000D01*
X136830000Y-67930000D02*
X136830000Y-69230000D01*
G04 #@! TO.C,C3*
X168682000Y-81252000D02*
G75*
G03X168682000Y-81252000I-4090000J0D01*
G01*
X168642000Y-81252000D02*
X160542000Y-81252000D01*
X168642000Y-81292000D02*
X160542000Y-81292000D01*
X168642000Y-81332000D02*
X160542000Y-81332000D01*
X168641000Y-81372000D02*
X160543000Y-81372000D01*
X168639000Y-81412000D02*
X160545000Y-81412000D01*
X168638000Y-81452000D02*
X160546000Y-81452000D01*
X168635000Y-81492000D02*
X160549000Y-81492000D01*
X168633000Y-81532000D02*
X160551000Y-81532000D01*
X168630000Y-81572000D02*
X160554000Y-81572000D01*
X168627000Y-81612000D02*
X160557000Y-81612000D01*
X168623000Y-81652000D02*
X160561000Y-81652000D01*
X168619000Y-81692000D02*
X160565000Y-81692000D01*
X168614000Y-81732000D02*
X160570000Y-81732000D01*
X168609000Y-81772000D02*
X160575000Y-81772000D01*
X168604000Y-81812000D02*
X160580000Y-81812000D01*
X168598000Y-81852000D02*
X160586000Y-81852000D01*
X168592000Y-81892000D02*
X160592000Y-81892000D01*
X168586000Y-81932000D02*
X160598000Y-81932000D01*
X168579000Y-81973000D02*
X160605000Y-81973000D01*
X168571000Y-82013000D02*
X160613000Y-82013000D01*
X168563000Y-82053000D02*
X165572000Y-82053000D01*
X163612000Y-82053000D02*
X160621000Y-82053000D01*
X168555000Y-82093000D02*
X165572000Y-82093000D01*
X163612000Y-82093000D02*
X160629000Y-82093000D01*
X168547000Y-82133000D02*
X165572000Y-82133000D01*
X163612000Y-82133000D02*
X160637000Y-82133000D01*
X168538000Y-82173000D02*
X165572000Y-82173000D01*
X163612000Y-82173000D02*
X160646000Y-82173000D01*
X168528000Y-82213000D02*
X165572000Y-82213000D01*
X163612000Y-82213000D02*
X160656000Y-82213000D01*
X168518000Y-82253000D02*
X165572000Y-82253000D01*
X163612000Y-82253000D02*
X160666000Y-82253000D01*
X168508000Y-82293000D02*
X165572000Y-82293000D01*
X163612000Y-82293000D02*
X160676000Y-82293000D01*
X168497000Y-82333000D02*
X165572000Y-82333000D01*
X163612000Y-82333000D02*
X160687000Y-82333000D01*
X168486000Y-82373000D02*
X165572000Y-82373000D01*
X163612000Y-82373000D02*
X160698000Y-82373000D01*
X168475000Y-82413000D02*
X165572000Y-82413000D01*
X163612000Y-82413000D02*
X160709000Y-82413000D01*
X168462000Y-82453000D02*
X165572000Y-82453000D01*
X163612000Y-82453000D02*
X160722000Y-82453000D01*
X168450000Y-82493000D02*
X165572000Y-82493000D01*
X163612000Y-82493000D02*
X160734000Y-82493000D01*
X168437000Y-82533000D02*
X165572000Y-82533000D01*
X163612000Y-82533000D02*
X160747000Y-82533000D01*
X168424000Y-82573000D02*
X165572000Y-82573000D01*
X163612000Y-82573000D02*
X160760000Y-82573000D01*
X168410000Y-82613000D02*
X165572000Y-82613000D01*
X163612000Y-82613000D02*
X160774000Y-82613000D01*
X168395000Y-82653000D02*
X165572000Y-82653000D01*
X163612000Y-82653000D02*
X160789000Y-82653000D01*
X168381000Y-82693000D02*
X165572000Y-82693000D01*
X163612000Y-82693000D02*
X160803000Y-82693000D01*
X168365000Y-82733000D02*
X165572000Y-82733000D01*
X163612000Y-82733000D02*
X160819000Y-82733000D01*
X168350000Y-82773000D02*
X165572000Y-82773000D01*
X163612000Y-82773000D02*
X160834000Y-82773000D01*
X168333000Y-82813000D02*
X165572000Y-82813000D01*
X163612000Y-82813000D02*
X160851000Y-82813000D01*
X168317000Y-82853000D02*
X165572000Y-82853000D01*
X163612000Y-82853000D02*
X160867000Y-82853000D01*
X168299000Y-82893000D02*
X165572000Y-82893000D01*
X163612000Y-82893000D02*
X160885000Y-82893000D01*
X168282000Y-82933000D02*
X165572000Y-82933000D01*
X163612000Y-82933000D02*
X160902000Y-82933000D01*
X168263000Y-82973000D02*
X165572000Y-82973000D01*
X163612000Y-82973000D02*
X160921000Y-82973000D01*
X168244000Y-83013000D02*
X165572000Y-83013000D01*
X163612000Y-83013000D02*
X160940000Y-83013000D01*
X168225000Y-83053000D02*
X165572000Y-83053000D01*
X163612000Y-83053000D02*
X160959000Y-83053000D01*
X168205000Y-83093000D02*
X165572000Y-83093000D01*
X163612000Y-83093000D02*
X160979000Y-83093000D01*
X168185000Y-83133000D02*
X165572000Y-83133000D01*
X163612000Y-83133000D02*
X160999000Y-83133000D01*
X168164000Y-83173000D02*
X165572000Y-83173000D01*
X163612000Y-83173000D02*
X161020000Y-83173000D01*
X168142000Y-83213000D02*
X165572000Y-83213000D01*
X163612000Y-83213000D02*
X161042000Y-83213000D01*
X168120000Y-83253000D02*
X165572000Y-83253000D01*
X163612000Y-83253000D02*
X161064000Y-83253000D01*
X168097000Y-83293000D02*
X165572000Y-83293000D01*
X163612000Y-83293000D02*
X161087000Y-83293000D01*
X168074000Y-83333000D02*
X165572000Y-83333000D01*
X163612000Y-83333000D02*
X161110000Y-83333000D01*
X168050000Y-83373000D02*
X165572000Y-83373000D01*
X163612000Y-83373000D02*
X161134000Y-83373000D01*
X168026000Y-83413000D02*
X165572000Y-83413000D01*
X163612000Y-83413000D02*
X161158000Y-83413000D01*
X168000000Y-83453000D02*
X165572000Y-83453000D01*
X163612000Y-83453000D02*
X161184000Y-83453000D01*
X167975000Y-83493000D02*
X165572000Y-83493000D01*
X163612000Y-83493000D02*
X161209000Y-83493000D01*
X167948000Y-83533000D02*
X165572000Y-83533000D01*
X163612000Y-83533000D02*
X161236000Y-83533000D01*
X167921000Y-83573000D02*
X165572000Y-83573000D01*
X163612000Y-83573000D02*
X161263000Y-83573000D01*
X167893000Y-83613000D02*
X165572000Y-83613000D01*
X163612000Y-83613000D02*
X161291000Y-83613000D01*
X167864000Y-83653000D02*
X165572000Y-83653000D01*
X163612000Y-83653000D02*
X161320000Y-83653000D01*
X167835000Y-83693000D02*
X165572000Y-83693000D01*
X163612000Y-83693000D02*
X161349000Y-83693000D01*
X167805000Y-83733000D02*
X165572000Y-83733000D01*
X163612000Y-83733000D02*
X161379000Y-83733000D01*
X167774000Y-83773000D02*
X165572000Y-83773000D01*
X163612000Y-83773000D02*
X161410000Y-83773000D01*
X167742000Y-83813000D02*
X165572000Y-83813000D01*
X163612000Y-83813000D02*
X161442000Y-83813000D01*
X167710000Y-83853000D02*
X165572000Y-83853000D01*
X163612000Y-83853000D02*
X161474000Y-83853000D01*
X167676000Y-83893000D02*
X165572000Y-83893000D01*
X163612000Y-83893000D02*
X161508000Y-83893000D01*
X167642000Y-83933000D02*
X165572000Y-83933000D01*
X163612000Y-83933000D02*
X161542000Y-83933000D01*
X167607000Y-83973000D02*
X165572000Y-83973000D01*
X163612000Y-83973000D02*
X161577000Y-83973000D01*
X167571000Y-84013000D02*
X161613000Y-84013000D01*
X167534000Y-84053000D02*
X161650000Y-84053000D01*
X167496000Y-84093000D02*
X161688000Y-84093000D01*
X167457000Y-84133000D02*
X161727000Y-84133000D01*
X167416000Y-84173000D02*
X161768000Y-84173000D01*
X167375000Y-84213000D02*
X161809000Y-84213000D01*
X167332000Y-84253000D02*
X161852000Y-84253000D01*
X167289000Y-84293000D02*
X161895000Y-84293000D01*
X167244000Y-84333000D02*
X161940000Y-84333000D01*
X167197000Y-84373000D02*
X161987000Y-84373000D01*
X167149000Y-84413000D02*
X162035000Y-84413000D01*
X167100000Y-84453000D02*
X162084000Y-84453000D01*
X167049000Y-84493000D02*
X162135000Y-84493000D01*
X166996000Y-84533000D02*
X162188000Y-84533000D01*
X166941000Y-84573000D02*
X162243000Y-84573000D01*
X166885000Y-84613000D02*
X162299000Y-84613000D01*
X166826000Y-84653000D02*
X162358000Y-84653000D01*
X166765000Y-84693000D02*
X162419000Y-84693000D01*
X166701000Y-84733000D02*
X162483000Y-84733000D01*
X166635000Y-84773000D02*
X162549000Y-84773000D01*
X166566000Y-84813000D02*
X162618000Y-84813000D01*
X166494000Y-84853000D02*
X162690000Y-84853000D01*
X166418000Y-84893000D02*
X162766000Y-84893000D01*
X166337000Y-84933000D02*
X162847000Y-84933000D01*
X166252000Y-84973000D02*
X162932000Y-84973000D01*
X166162000Y-85013000D02*
X163022000Y-85013000D01*
X166065000Y-85053000D02*
X163119000Y-85053000D01*
X165961000Y-85093000D02*
X163223000Y-85093000D01*
X165846000Y-85133000D02*
X163338000Y-85133000D01*
X165719000Y-85173000D02*
X163465000Y-85173000D01*
X165575000Y-85213000D02*
X163609000Y-85213000D01*
X165406000Y-85253000D02*
X163778000Y-85253000D01*
X165190000Y-85293000D02*
X163994000Y-85293000D01*
X164838000Y-85333000D02*
X164346000Y-85333000D01*
X164592000Y-77302000D02*
X164592000Y-78502000D01*
X165242000Y-77902000D02*
X163942000Y-77902000D01*
G04 #@! TO.C,C4*
X168654000Y-69342000D02*
G75*
G03X168654000Y-69342000I-4090000J0D01*
G01*
X164564000Y-65292000D02*
X164564000Y-73392000D01*
X164604000Y-65292000D02*
X164604000Y-73392000D01*
X164644000Y-65292000D02*
X164644000Y-73392000D01*
X164684000Y-65293000D02*
X164684000Y-73391000D01*
X164724000Y-65295000D02*
X164724000Y-73389000D01*
X164764000Y-65296000D02*
X164764000Y-73388000D01*
X164804000Y-65299000D02*
X164804000Y-73385000D01*
X164844000Y-65301000D02*
X164844000Y-73383000D01*
X164884000Y-65304000D02*
X164884000Y-73380000D01*
X164924000Y-65307000D02*
X164924000Y-73377000D01*
X164964000Y-65311000D02*
X164964000Y-73373000D01*
X165004000Y-65315000D02*
X165004000Y-73369000D01*
X165044000Y-65320000D02*
X165044000Y-73364000D01*
X165084000Y-65325000D02*
X165084000Y-73359000D01*
X165124000Y-65330000D02*
X165124000Y-73354000D01*
X165164000Y-65336000D02*
X165164000Y-73348000D01*
X165204000Y-65342000D02*
X165204000Y-73342000D01*
X165244000Y-65348000D02*
X165244000Y-73336000D01*
X165285000Y-65355000D02*
X165285000Y-73329000D01*
X165325000Y-65363000D02*
X165325000Y-73321000D01*
X165365000Y-65371000D02*
X165365000Y-68362000D01*
X165365000Y-70322000D02*
X165365000Y-73313000D01*
X165405000Y-65379000D02*
X165405000Y-68362000D01*
X165405000Y-70322000D02*
X165405000Y-73305000D01*
X165445000Y-65387000D02*
X165445000Y-68362000D01*
X165445000Y-70322000D02*
X165445000Y-73297000D01*
X165485000Y-65396000D02*
X165485000Y-68362000D01*
X165485000Y-70322000D02*
X165485000Y-73288000D01*
X165525000Y-65406000D02*
X165525000Y-68362000D01*
X165525000Y-70322000D02*
X165525000Y-73278000D01*
X165565000Y-65416000D02*
X165565000Y-68362000D01*
X165565000Y-70322000D02*
X165565000Y-73268000D01*
X165605000Y-65426000D02*
X165605000Y-68362000D01*
X165605000Y-70322000D02*
X165605000Y-73258000D01*
X165645000Y-65437000D02*
X165645000Y-68362000D01*
X165645000Y-70322000D02*
X165645000Y-73247000D01*
X165685000Y-65448000D02*
X165685000Y-68362000D01*
X165685000Y-70322000D02*
X165685000Y-73236000D01*
X165725000Y-65459000D02*
X165725000Y-68362000D01*
X165725000Y-70322000D02*
X165725000Y-73225000D01*
X165765000Y-65472000D02*
X165765000Y-68362000D01*
X165765000Y-70322000D02*
X165765000Y-73212000D01*
X165805000Y-65484000D02*
X165805000Y-68362000D01*
X165805000Y-70322000D02*
X165805000Y-73200000D01*
X165845000Y-65497000D02*
X165845000Y-68362000D01*
X165845000Y-70322000D02*
X165845000Y-73187000D01*
X165885000Y-65510000D02*
X165885000Y-68362000D01*
X165885000Y-70322000D02*
X165885000Y-73174000D01*
X165925000Y-65524000D02*
X165925000Y-68362000D01*
X165925000Y-70322000D02*
X165925000Y-73160000D01*
X165965000Y-65539000D02*
X165965000Y-68362000D01*
X165965000Y-70322000D02*
X165965000Y-73145000D01*
X166005000Y-65553000D02*
X166005000Y-68362000D01*
X166005000Y-70322000D02*
X166005000Y-73131000D01*
X166045000Y-65569000D02*
X166045000Y-68362000D01*
X166045000Y-70322000D02*
X166045000Y-73115000D01*
X166085000Y-65584000D02*
X166085000Y-68362000D01*
X166085000Y-70322000D02*
X166085000Y-73100000D01*
X166125000Y-65601000D02*
X166125000Y-68362000D01*
X166125000Y-70322000D02*
X166125000Y-73083000D01*
X166165000Y-65617000D02*
X166165000Y-68362000D01*
X166165000Y-70322000D02*
X166165000Y-73067000D01*
X166205000Y-65635000D02*
X166205000Y-68362000D01*
X166205000Y-70322000D02*
X166205000Y-73049000D01*
X166245000Y-65652000D02*
X166245000Y-68362000D01*
X166245000Y-70322000D02*
X166245000Y-73032000D01*
X166285000Y-65671000D02*
X166285000Y-68362000D01*
X166285000Y-70322000D02*
X166285000Y-73013000D01*
X166325000Y-65690000D02*
X166325000Y-68362000D01*
X166325000Y-70322000D02*
X166325000Y-72994000D01*
X166365000Y-65709000D02*
X166365000Y-68362000D01*
X166365000Y-70322000D02*
X166365000Y-72975000D01*
X166405000Y-65729000D02*
X166405000Y-68362000D01*
X166405000Y-70322000D02*
X166405000Y-72955000D01*
X166445000Y-65749000D02*
X166445000Y-68362000D01*
X166445000Y-70322000D02*
X166445000Y-72935000D01*
X166485000Y-65770000D02*
X166485000Y-68362000D01*
X166485000Y-70322000D02*
X166485000Y-72914000D01*
X166525000Y-65792000D02*
X166525000Y-68362000D01*
X166525000Y-70322000D02*
X166525000Y-72892000D01*
X166565000Y-65814000D02*
X166565000Y-68362000D01*
X166565000Y-70322000D02*
X166565000Y-72870000D01*
X166605000Y-65837000D02*
X166605000Y-68362000D01*
X166605000Y-70322000D02*
X166605000Y-72847000D01*
X166645000Y-65860000D02*
X166645000Y-68362000D01*
X166645000Y-70322000D02*
X166645000Y-72824000D01*
X166685000Y-65884000D02*
X166685000Y-68362000D01*
X166685000Y-70322000D02*
X166685000Y-72800000D01*
X166725000Y-65908000D02*
X166725000Y-68362000D01*
X166725000Y-70322000D02*
X166725000Y-72776000D01*
X166765000Y-65934000D02*
X166765000Y-68362000D01*
X166765000Y-70322000D02*
X166765000Y-72750000D01*
X166805000Y-65959000D02*
X166805000Y-68362000D01*
X166805000Y-70322000D02*
X166805000Y-72725000D01*
X166845000Y-65986000D02*
X166845000Y-68362000D01*
X166845000Y-70322000D02*
X166845000Y-72698000D01*
X166885000Y-66013000D02*
X166885000Y-68362000D01*
X166885000Y-70322000D02*
X166885000Y-72671000D01*
X166925000Y-66041000D02*
X166925000Y-68362000D01*
X166925000Y-70322000D02*
X166925000Y-72643000D01*
X166965000Y-66070000D02*
X166965000Y-68362000D01*
X166965000Y-70322000D02*
X166965000Y-72614000D01*
X167005000Y-66099000D02*
X167005000Y-68362000D01*
X167005000Y-70322000D02*
X167005000Y-72585000D01*
X167045000Y-66129000D02*
X167045000Y-68362000D01*
X167045000Y-70322000D02*
X167045000Y-72555000D01*
X167085000Y-66160000D02*
X167085000Y-68362000D01*
X167085000Y-70322000D02*
X167085000Y-72524000D01*
X167125000Y-66192000D02*
X167125000Y-68362000D01*
X167125000Y-70322000D02*
X167125000Y-72492000D01*
X167165000Y-66224000D02*
X167165000Y-68362000D01*
X167165000Y-70322000D02*
X167165000Y-72460000D01*
X167205000Y-66258000D02*
X167205000Y-68362000D01*
X167205000Y-70322000D02*
X167205000Y-72426000D01*
X167245000Y-66292000D02*
X167245000Y-68362000D01*
X167245000Y-70322000D02*
X167245000Y-72392000D01*
X167285000Y-66327000D02*
X167285000Y-68362000D01*
X167285000Y-70322000D02*
X167285000Y-72357000D01*
X167325000Y-66363000D02*
X167325000Y-72321000D01*
X167365000Y-66400000D02*
X167365000Y-72284000D01*
X167405000Y-66438000D02*
X167405000Y-72246000D01*
X167445000Y-66477000D02*
X167445000Y-72207000D01*
X167485000Y-66518000D02*
X167485000Y-72166000D01*
X167525000Y-66559000D02*
X167525000Y-72125000D01*
X167565000Y-66602000D02*
X167565000Y-72082000D01*
X167605000Y-66645000D02*
X167605000Y-72039000D01*
X167645000Y-66690000D02*
X167645000Y-71994000D01*
X167685000Y-66737000D02*
X167685000Y-71947000D01*
X167725000Y-66785000D02*
X167725000Y-71899000D01*
X167765000Y-66834000D02*
X167765000Y-71850000D01*
X167805000Y-66885000D02*
X167805000Y-71799000D01*
X167845000Y-66938000D02*
X167845000Y-71746000D01*
X167885000Y-66993000D02*
X167885000Y-71691000D01*
X167925000Y-67049000D02*
X167925000Y-71635000D01*
X167965000Y-67108000D02*
X167965000Y-71576000D01*
X168005000Y-67169000D02*
X168005000Y-71515000D01*
X168045000Y-67233000D02*
X168045000Y-71451000D01*
X168085000Y-67299000D02*
X168085000Y-71385000D01*
X168125000Y-67368000D02*
X168125000Y-71316000D01*
X168165000Y-67440000D02*
X168165000Y-71244000D01*
X168205000Y-67516000D02*
X168205000Y-71168000D01*
X168245000Y-67597000D02*
X168245000Y-71087000D01*
X168285000Y-67682000D02*
X168285000Y-71002000D01*
X168325000Y-67772000D02*
X168325000Y-70912000D01*
X168365000Y-67869000D02*
X168365000Y-70815000D01*
X168405000Y-67973000D02*
X168405000Y-70711000D01*
X168445000Y-68088000D02*
X168445000Y-70596000D01*
X168485000Y-68215000D02*
X168485000Y-70469000D01*
X168525000Y-68359000D02*
X168525000Y-70325000D01*
X168565000Y-68528000D02*
X168565000Y-70156000D01*
X168605000Y-68744000D02*
X168605000Y-69940000D01*
X168645000Y-69096000D02*
X168645000Y-69588000D01*
X160614000Y-69342000D02*
X161814000Y-69342000D01*
X161214000Y-68692000D02*
X161214000Y-69992000D01*
G04 #@! TO.C,C5*
X158236000Y-88174000D02*
X158236000Y-92594000D01*
X156216000Y-88174000D02*
X156216000Y-92594000D01*
X158236000Y-88174000D02*
X158222000Y-88174000D01*
X156230000Y-88174000D02*
X156216000Y-88174000D01*
X158236000Y-92594000D02*
X158222000Y-92594000D01*
X156230000Y-92594000D02*
X156216000Y-92594000D01*
G04 #@! TO.C,C6*
X155412000Y-99308000D02*
X150992000Y-99308000D01*
X155412000Y-97288000D02*
X150992000Y-97288000D01*
X155412000Y-99308000D02*
X155412000Y-99294000D01*
X155412000Y-97302000D02*
X155412000Y-97288000D01*
X150992000Y-99308000D02*
X150992000Y-99294000D01*
X150992000Y-97302000D02*
X150992000Y-97288000D01*
G04 #@! TO.C,J1*
X115570000Y-76200000D02*
X115570000Y-66040000D01*
X114300000Y-76200000D02*
X121920000Y-76200000D01*
X121920000Y-76200000D02*
X121920000Y-66040000D01*
X121920000Y-66040000D02*
X114300000Y-66040000D01*
X114300000Y-66040000D02*
X114300000Y-76200000D01*
D15*
G04 #@! TO.C,J2*
X118920000Y-106260000D02*
X121420000Y-106260000D01*
X118920000Y-110260000D02*
X118920000Y-106260000D01*
X121420000Y-110260000D02*
X118920000Y-110260000D01*
X121920000Y-105760000D02*
G75*
G02X121420000Y-106260000I-500000J0D01*
G01*
X121420000Y-110260000D02*
G75*
G02X121920000Y-110760000I0J-500000D01*
G01*
X134420000Y-111760000D02*
X121920000Y-111760000D01*
X134420000Y-104760000D02*
X134420000Y-111760000D01*
X121920000Y-104760000D02*
X134420000Y-104760000D01*
X121920000Y-111760000D02*
X121920000Y-104760000D01*
D14*
G04 #@! TO.C,J3*
X170180000Y-106934000D02*
X162560000Y-106934000D01*
X170180000Y-91694000D02*
X162560000Y-91694000D01*
X168910000Y-106934000D02*
X168910000Y-91694000D01*
X162560000Y-106934000D02*
X162560000Y-91694000D01*
X170180000Y-106934000D02*
X170180000Y-91694000D01*
G04 #@! TO.C,R1*
X128860000Y-77060000D02*
X125140000Y-77060000D01*
X128860000Y-75340000D02*
X125140000Y-75340000D01*
G04 #@! TO.C,R2*
X148238000Y-91014000D02*
X148238000Y-87294000D01*
X149958000Y-91014000D02*
X149958000Y-87294000D01*
G04 #@! TO.C,R3*
X154420000Y-107070000D02*
X154420000Y-103750000D01*
X154420000Y-103750000D02*
X145300000Y-103750000D01*
X145300000Y-103750000D02*
X145300000Y-107070000D01*
X145300000Y-107070000D02*
X154420000Y-107070000D01*
X155230000Y-105410000D02*
X154420000Y-105410000D01*
X144490000Y-105410000D02*
X145300000Y-105410000D01*
G04 #@! TO.C,R4*
X154420000Y-112150000D02*
X154420000Y-108830000D01*
X154420000Y-108830000D02*
X145300000Y-108830000D01*
X145300000Y-108830000D02*
X145300000Y-112150000D01*
X145300000Y-112150000D02*
X154420000Y-112150000D01*
X155230000Y-110490000D02*
X154420000Y-110490000D01*
X144490000Y-110490000D02*
X145300000Y-110490000D01*
D11*
G04 #@! TO.C,RV1*
X115540000Y-80090000D02*
X145540000Y-80090000D01*
X115540000Y-100090000D02*
X115540000Y-80090000D01*
X145540000Y-100090000D02*
X115540000Y-100090000D01*
X145540000Y-80090000D02*
X145540000Y-100090000D01*
D14*
X139160000Y-98210000D02*
X122920000Y-98210000D01*
X139160000Y-81970000D02*
X122920000Y-81970000D01*
X139160000Y-98210000D02*
X139160000Y-81970000D01*
X122920000Y-98210000D02*
X122920000Y-81970000D01*
X122920000Y-95210000D02*
X113920000Y-95210000D01*
X122920000Y-84970000D02*
X113920000Y-84970000D01*
X122920000Y-95210000D02*
X122920000Y-84970000D01*
X113920000Y-95210000D02*
X113920000Y-84970000D01*
X113920000Y-93210000D02*
X113920000Y-86969000D01*
G04 #@! TO.C,U1*
X151400000Y-76260000D02*
G75*
G02X153400000Y-76260000I1000000J0D01*
G01*
X153400000Y-76260000D02*
X154650000Y-76260000D01*
X154650000Y-76260000D02*
X154650000Y-65980000D01*
X154650000Y-65980000D02*
X150150000Y-65980000D01*
X150150000Y-65980000D02*
X150150000Y-76260000D01*
X150150000Y-76260000D02*
X151400000Y-76260000D01*
X157650000Y-76320000D02*
X157650000Y-65920000D01*
X157650000Y-65920000D02*
X147150000Y-65920000D01*
X147150000Y-65920000D02*
X147150000Y-76320000D01*
X147150000Y-76320000D02*
X157650000Y-76320000D01*
G04 #@! TO.C,C1*
D10*
X134281333Y-76925714D02*
X134184571Y-77022476D01*
X133894285Y-77119238D01*
X133700761Y-77119238D01*
X133410476Y-77022476D01*
X133216952Y-76828952D01*
X133120190Y-76635428D01*
X133023428Y-76248380D01*
X133023428Y-75958095D01*
X133120190Y-75571047D01*
X133216952Y-75377523D01*
X133410476Y-75184000D01*
X133700761Y-75087238D01*
X133894285Y-75087238D01*
X134184571Y-75184000D01*
X134281333Y-75280761D01*
X136216571Y-77119238D02*
X135055428Y-77119238D01*
X135636000Y-77119238D02*
X135636000Y-75087238D01*
X135442476Y-75377523D01*
X135248952Y-75571047D01*
X135055428Y-75667809D01*
G04 #@! TO.C,C2*
X134281333Y-69305714D02*
X134184571Y-69402476D01*
X133894285Y-69499238D01*
X133700761Y-69499238D01*
X133410476Y-69402476D01*
X133216952Y-69208952D01*
X133120190Y-69015428D01*
X133023428Y-68628380D01*
X133023428Y-68338095D01*
X133120190Y-67951047D01*
X133216952Y-67757523D01*
X133410476Y-67564000D01*
X133700761Y-67467238D01*
X133894285Y-67467238D01*
X134184571Y-67564000D01*
X134281333Y-67660761D01*
X135055428Y-67660761D02*
X135152190Y-67564000D01*
X135345714Y-67467238D01*
X135829523Y-67467238D01*
X136023047Y-67564000D01*
X136119809Y-67660761D01*
X136216571Y-67854285D01*
X136216571Y-68047809D01*
X136119809Y-68338095D01*
X134958666Y-69499238D01*
X136216571Y-69499238D01*
G04 #@! TO.C,C3*
X168571333Y-77433714D02*
X168474571Y-77530476D01*
X168184285Y-77627238D01*
X167990761Y-77627238D01*
X167700476Y-77530476D01*
X167506952Y-77336952D01*
X167410190Y-77143428D01*
X167313428Y-76756380D01*
X167313428Y-76466095D01*
X167410190Y-76079047D01*
X167506952Y-75885523D01*
X167700476Y-75692000D01*
X167990761Y-75595238D01*
X168184285Y-75595238D01*
X168474571Y-75692000D01*
X168571333Y-75788761D01*
X169248666Y-75595238D02*
X170506571Y-75595238D01*
X169829238Y-76369333D01*
X170119523Y-76369333D01*
X170313047Y-76466095D01*
X170409809Y-76562857D01*
X170506571Y-76756380D01*
X170506571Y-77240190D01*
X170409809Y-77433714D01*
X170313047Y-77530476D01*
X170119523Y-77627238D01*
X169538952Y-77627238D01*
X169345428Y-77530476D01*
X169248666Y-77433714D01*
G04 #@! TO.C,C4*
X168571333Y-65749714D02*
X168474571Y-65846476D01*
X168184285Y-65943238D01*
X167990761Y-65943238D01*
X167700476Y-65846476D01*
X167506952Y-65652952D01*
X167410190Y-65459428D01*
X167313428Y-65072380D01*
X167313428Y-64782095D01*
X167410190Y-64395047D01*
X167506952Y-64201523D01*
X167700476Y-64008000D01*
X167990761Y-63911238D01*
X168184285Y-63911238D01*
X168474571Y-64008000D01*
X168571333Y-64104761D01*
X170313047Y-64588571D02*
X170313047Y-65943238D01*
X169829238Y-63814476D02*
X169345428Y-65265904D01*
X170603333Y-65265904D01*
G04 #@! TO.C,C5*
X156633333Y-85307714D02*
X156536571Y-85404476D01*
X156246285Y-85501238D01*
X156052761Y-85501238D01*
X155762476Y-85404476D01*
X155568952Y-85210952D01*
X155472190Y-85017428D01*
X155375428Y-84630380D01*
X155375428Y-84340095D01*
X155472190Y-83953047D01*
X155568952Y-83759523D01*
X155762476Y-83566000D01*
X156052761Y-83469238D01*
X156246285Y-83469238D01*
X156536571Y-83566000D01*
X156633333Y-83662761D01*
X158471809Y-83469238D02*
X157504190Y-83469238D01*
X157407428Y-84436857D01*
X157504190Y-84340095D01*
X157697714Y-84243333D01*
X158181523Y-84243333D01*
X158375047Y-84340095D01*
X158471809Y-84436857D01*
X158568571Y-84630380D01*
X158568571Y-85114190D01*
X158471809Y-85307714D01*
X158375047Y-85404476D01*
X158181523Y-85501238D01*
X157697714Y-85501238D01*
X157504190Y-85404476D01*
X157407428Y-85307714D01*
G04 #@! TO.C,C6*
X153077333Y-96229714D02*
X152980571Y-96326476D01*
X152690285Y-96423238D01*
X152496761Y-96423238D01*
X152206476Y-96326476D01*
X152012952Y-96132952D01*
X151916190Y-95939428D01*
X151819428Y-95552380D01*
X151819428Y-95262095D01*
X151916190Y-94875047D01*
X152012952Y-94681523D01*
X152206476Y-94488000D01*
X152496761Y-94391238D01*
X152690285Y-94391238D01*
X152980571Y-94488000D01*
X153077333Y-94584761D01*
X154819047Y-94391238D02*
X154432000Y-94391238D01*
X154238476Y-94488000D01*
X154141714Y-94584761D01*
X153948190Y-94875047D01*
X153851428Y-95262095D01*
X153851428Y-96036190D01*
X153948190Y-96229714D01*
X154044952Y-96326476D01*
X154238476Y-96423238D01*
X154625523Y-96423238D01*
X154819047Y-96326476D01*
X154915809Y-96229714D01*
X155012571Y-96036190D01*
X155012571Y-95552380D01*
X154915809Y-95358857D01*
X154819047Y-95262095D01*
X154625523Y-95165333D01*
X154238476Y-95165333D01*
X154044952Y-95262095D01*
X153948190Y-95358857D01*
X153851428Y-95552380D01*
G04 #@! TO.C,J1*
X112860666Y-62895238D02*
X112860666Y-64346666D01*
X112763904Y-64636952D01*
X112570380Y-64830476D01*
X112280095Y-64927238D01*
X112086571Y-64927238D01*
X114892666Y-64927238D02*
X113731523Y-64927238D01*
X114312095Y-64927238D02*
X114312095Y-62895238D01*
X114118571Y-63185523D01*
X113925047Y-63379047D01*
X113731523Y-63475809D01*
X118122095Y-64927238D02*
X116960952Y-64927238D01*
X117541523Y-64927238D02*
X117541523Y-62895238D01*
X117348000Y-63185523D01*
X117154476Y-63379047D01*
X116960952Y-63475809D01*
X118896190Y-63088761D02*
X118992952Y-62992000D01*
X119186476Y-62895238D01*
X119670285Y-62895238D01*
X119863809Y-62992000D01*
X119960571Y-63088761D01*
X120057333Y-63282285D01*
X120057333Y-63475809D01*
X119960571Y-63766095D01*
X118799428Y-64927238D01*
X120057333Y-64927238D01*
X120637904Y-62895238D02*
X121315238Y-64927238D01*
X121992571Y-62895238D01*
G04 #@! TO.C,J2*
X116173333Y-106854761D02*
X116173333Y-108283333D01*
X116078095Y-108569047D01*
X115887619Y-108759523D01*
X115601904Y-108854761D01*
X115411428Y-108854761D01*
X117030476Y-107045238D02*
X117125714Y-106950000D01*
X117316190Y-106854761D01*
X117792380Y-106854761D01*
X117982857Y-106950000D01*
X118078095Y-107045238D01*
X118173333Y-107235714D01*
X118173333Y-107426190D01*
X118078095Y-107711904D01*
X116935238Y-108854761D01*
X118173333Y-108854761D01*
G04 #@! TO.C,J3*
X165692666Y-88549238D02*
X165692666Y-90000666D01*
X165595904Y-90290952D01*
X165402380Y-90484476D01*
X165112095Y-90581238D01*
X164918571Y-90581238D01*
X166466761Y-88549238D02*
X167724666Y-88549238D01*
X167047333Y-89323333D01*
X167337619Y-89323333D01*
X167531142Y-89420095D01*
X167627904Y-89516857D01*
X167724666Y-89710380D01*
X167724666Y-90194190D01*
X167627904Y-90387714D01*
X167531142Y-90484476D01*
X167337619Y-90581238D01*
X166757047Y-90581238D01*
X166563523Y-90484476D01*
X166466761Y-90387714D01*
G04 #@! TO.C,R1*
X126661333Y-73309238D02*
X125984000Y-72341619D01*
X125500190Y-73309238D02*
X125500190Y-71277238D01*
X126274285Y-71277238D01*
X126467809Y-71374000D01*
X126564571Y-71470761D01*
X126661333Y-71664285D01*
X126661333Y-71954571D01*
X126564571Y-72148095D01*
X126467809Y-72244857D01*
X126274285Y-72341619D01*
X125500190Y-72341619D01*
X128596571Y-73309238D02*
X127435428Y-73309238D01*
X128016000Y-73309238D02*
X128016000Y-71277238D01*
X127822476Y-71567523D01*
X127628952Y-71761047D01*
X127435428Y-71857809D01*
G04 #@! TO.C,R2*
X148759333Y-83723238D02*
X148082000Y-82755619D01*
X147598190Y-83723238D02*
X147598190Y-81691238D01*
X148372285Y-81691238D01*
X148565809Y-81788000D01*
X148662571Y-81884761D01*
X148759333Y-82078285D01*
X148759333Y-82368571D01*
X148662571Y-82562095D01*
X148565809Y-82658857D01*
X148372285Y-82755619D01*
X147598190Y-82755619D01*
X149533428Y-81884761D02*
X149630190Y-81788000D01*
X149823714Y-81691238D01*
X150307523Y-81691238D01*
X150501047Y-81788000D01*
X150597809Y-81884761D01*
X150694571Y-82078285D01*
X150694571Y-82271809D01*
X150597809Y-82562095D01*
X149436666Y-83723238D01*
X150694571Y-83723238D01*
G04 #@! TO.C,R3*
X149521333Y-103027238D02*
X148844000Y-102059619D01*
X148360190Y-103027238D02*
X148360190Y-100995238D01*
X149134285Y-100995238D01*
X149327809Y-101092000D01*
X149424571Y-101188761D01*
X149521333Y-101382285D01*
X149521333Y-101672571D01*
X149424571Y-101866095D01*
X149327809Y-101962857D01*
X149134285Y-102059619D01*
X148360190Y-102059619D01*
X150198666Y-100995238D02*
X151456571Y-100995238D01*
X150779238Y-101769333D01*
X151069523Y-101769333D01*
X151263047Y-101866095D01*
X151359809Y-101962857D01*
X151456571Y-102156380D01*
X151456571Y-102640190D01*
X151359809Y-102833714D01*
X151263047Y-102930476D01*
X151069523Y-103027238D01*
X150488952Y-103027238D01*
X150295428Y-102930476D01*
X150198666Y-102833714D01*
G04 #@! TO.C,R4*
X150029333Y-114711238D02*
X149352000Y-113743619D01*
X148868190Y-114711238D02*
X148868190Y-112679238D01*
X149642285Y-112679238D01*
X149835809Y-112776000D01*
X149932571Y-112872761D01*
X150029333Y-113066285D01*
X150029333Y-113356571D01*
X149932571Y-113550095D01*
X149835809Y-113646857D01*
X149642285Y-113743619D01*
X148868190Y-113743619D01*
X151771047Y-113356571D02*
X151771047Y-114711238D01*
X151287238Y-112582476D02*
X150803428Y-114033904D01*
X152061333Y-114033904D01*
G04 #@! TO.C,RV1*
X118189523Y-102504761D02*
X117522857Y-101552380D01*
X117046666Y-102504761D02*
X117046666Y-100504761D01*
X117808571Y-100504761D01*
X117999047Y-100600000D01*
X118094285Y-100695238D01*
X118189523Y-100885714D01*
X118189523Y-101171428D01*
X118094285Y-101361904D01*
X117999047Y-101457142D01*
X117808571Y-101552380D01*
X117046666Y-101552380D01*
X118760952Y-100504761D02*
X119427619Y-102504761D01*
X120094285Y-100504761D01*
X121808571Y-102504761D02*
X120665714Y-102504761D01*
X121237142Y-102504761D02*
X121237142Y-100504761D01*
X121046666Y-100790476D01*
X120856190Y-100980952D01*
X120665714Y-101076190D01*
G04 #@! TO.C,U1*
X152883809Y-63149238D02*
X152883809Y-64794190D01*
X152980571Y-64987714D01*
X153077333Y-65084476D01*
X153270857Y-65181238D01*
X153657904Y-65181238D01*
X153851428Y-65084476D01*
X153948190Y-64987714D01*
X154044952Y-64794190D01*
X154044952Y-63149238D01*
X156076952Y-65181238D02*
X154915809Y-65181238D01*
X155496380Y-65181238D02*
X155496380Y-63149238D01*
X155302857Y-63439523D01*
X155109333Y-63633047D01*
X154915809Y-63729809D01*
G04 #@! TD*
M02*
