G04 #@! TF.GenerationSoftware,KiCad,Pcbnew,(5.0.0)*
G04 #@! TF.CreationDate,2018-10-15T10:25:54+02:00*
G04 #@! TF.ProjectId,Amplificador_3W_TDA2822,416D706C6966696361646F725F33575F,rev?*
G04 #@! TF.SameCoordinates,Original*
G04 #@! TF.FileFunction,Copper,L2,Bot,Signal*
G04 #@! TF.FilePolarity,Positive*
%FSLAX46Y46*%
G04 Gerber Fmt 4.6, Leading zero omitted, Abs format (unit mm)*
G04 Created by KiCad (PCBNEW (5.0.0)) date 10/15/18 10:25:54*
%MOMM*%
%LPD*%
G01*
G04 APERTURE LIST*
G04 #@! TA.AperFunction,ComponentPad*
%ADD10R,1.600000X1.600000*%
G04 #@! TD*
G04 #@! TA.AperFunction,ComponentPad*
%ADD11C,1.600000*%
G04 #@! TD*
G04 #@! TA.AperFunction,ComponentPad*
%ADD12R,3.000000X3.000000*%
G04 #@! TD*
G04 #@! TA.AperFunction,ComponentPad*
%ADD13C,3.000000*%
G04 #@! TD*
G04 #@! TA.AperFunction,ComponentPad*
%ADD14R,2.000000X2.000000*%
G04 #@! TD*
G04 #@! TA.AperFunction,ComponentPad*
%ADD15O,1.500000X1.500000*%
G04 #@! TD*
G04 #@! TA.AperFunction,ComponentPad*
%ADD16C,1.400000*%
G04 #@! TD*
G04 #@! TA.AperFunction,ComponentPad*
%ADD17O,1.400000X1.400000*%
G04 #@! TD*
G04 #@! TA.AperFunction,ComponentPad*
%ADD18O,1.600000X1.600000*%
G04 #@! TD*
G04 #@! TA.AperFunction,ComponentPad*
%ADD19O,2.000000X3.000000*%
G04 #@! TD*
G04 #@! TA.AperFunction,ComponentPad*
%ADD20R,2.400000X1.600000*%
G04 #@! TD*
G04 #@! TA.AperFunction,ComponentPad*
%ADD21O,2.400000X1.600000*%
G04 #@! TD*
G04 #@! TA.AperFunction,Conductor*
%ADD22C,0.762000*%
G04 #@! TD*
G04 #@! TA.AperFunction,Conductor*
%ADD23C,1.524000*%
G04 #@! TD*
G04 #@! TA.AperFunction,Conductor*
%ADD24C,0.254000*%
G04 #@! TD*
G04 APERTURE END LIST*
D10*
G04 #@! TO.P,C1,1*
G04 #@! TO.N,IN-L(-)*
X138430000Y-76200000D03*
D11*
G04 #@! TO.P,C1,2*
G04 #@! TO.N,Earth*
X140930000Y-76200000D03*
G04 #@! TD*
D10*
G04 #@! TO.P,C2,1*
G04 #@! TO.N,IN-R(-)*
X138430000Y-68580000D03*
D11*
G04 #@! TO.P,C2,2*
G04 #@! TO.N,Earth*
X140930000Y-68580000D03*
G04 #@! TD*
D10*
G04 #@! TO.P,C3,1*
G04 #@! TO.N,OUT-L*
X164592000Y-79502000D03*
D11*
G04 #@! TO.P,C3,2*
G04 #@! TO.N,Net-(C3-Pad2)*
X164592000Y-83002000D03*
G04 #@! TD*
D10*
G04 #@! TO.P,C4,1*
G04 #@! TO.N,OUT-R*
X162814000Y-69342000D03*
D11*
G04 #@! TO.P,C4,2*
G04 #@! TO.N,Net-(C4-Pad2)*
X166314000Y-69342000D03*
G04 #@! TD*
G04 #@! TO.P,C5,1*
G04 #@! TO.N,Net-(C3-Pad2)*
X157226000Y-87884000D03*
G04 #@! TO.P,C5,2*
G04 #@! TO.N,Net-(C5-Pad2)*
X157226000Y-92884000D03*
G04 #@! TD*
G04 #@! TO.P,C6,1*
G04 #@! TO.N,Net-(C4-Pad2)*
X155702000Y-98298000D03*
G04 #@! TO.P,C6,2*
G04 #@! TO.N,Net-(C6-Pad2)*
X150702000Y-98298000D03*
G04 #@! TD*
D12*
G04 #@! TO.P,J1,1*
G04 #@! TO.N,+12V*
X118110000Y-68580000D03*
D13*
G04 #@! TO.P,J1,2*
G04 #@! TO.N,Earth*
X118110000Y-73660000D03*
G04 #@! TD*
D14*
G04 #@! TO.P,J2,S*
G04 #@! TO.N,Earth*
X133420000Y-111010000D03*
D15*
X134170000Y-108260000D03*
D14*
G04 #@! TO.P,J2,T*
G04 #@! TO.N,Net-(J2-PadT)*
X125420000Y-111510000D03*
G04 #@! TO.P,J2,R*
G04 #@! TO.N,Net-(J2-PadR)*
X133420000Y-105510000D03*
G04 #@! TO.P,J2,T*
G04 #@! TO.N,Net-(J2-PadT)*
X125420000Y-105010000D03*
G04 #@! TD*
D12*
G04 #@! TO.P,J3,1*
G04 #@! TO.N,Net-(C3-Pad2)*
X166370000Y-104394000D03*
D13*
G04 #@! TO.P,J3,2*
G04 #@! TO.N,Earth*
X166370000Y-99314000D03*
G04 #@! TO.P,J3,3*
G04 #@! TO.N,Net-(C4-Pad2)*
X166370000Y-94234000D03*
G04 #@! TD*
D16*
G04 #@! TO.P,R1,1*
G04 #@! TO.N,IN-L(+)*
X129540000Y-76200000D03*
D17*
G04 #@! TO.P,R1,2*
G04 #@! TO.N,Earth*
X124460000Y-76200000D03*
G04 #@! TD*
D16*
G04 #@! TO.P,R2,1*
G04 #@! TO.N,IN-R(+)*
X149098000Y-91694000D03*
D17*
G04 #@! TO.P,R2,2*
G04 #@! TO.N,Earth*
X149098000Y-86614000D03*
G04 #@! TD*
D11*
G04 #@! TO.P,R3,1*
G04 #@! TO.N,Net-(C5-Pad2)*
X156210000Y-105410000D03*
D18*
G04 #@! TO.P,R3,2*
G04 #@! TO.N,Earth*
X143510000Y-105410000D03*
G04 #@! TD*
D11*
G04 #@! TO.P,R4,1*
G04 #@! TO.N,Net-(C6-Pad2)*
X156210000Y-110490000D03*
D18*
G04 #@! TO.P,R4,2*
G04 #@! TO.N,Earth*
X143510000Y-110490000D03*
G04 #@! TD*
D19*
G04 #@! TO.P,RV1,1*
G04 #@! TO.N,Net-(J2-PadT)*
X126540000Y-95090000D03*
G04 #@! TO.P,RV1,2*
G04 #@! TO.N,IN-L(+)*
X126540000Y-90090000D03*
G04 #@! TO.P,RV1,3*
G04 #@! TO.N,Earth*
X126540000Y-85090000D03*
G04 #@! TO.P,RV1,4*
G04 #@! TO.N,Net-(J2-PadR)*
X136540000Y-95090000D03*
G04 #@! TO.P,RV1,5*
G04 #@! TO.N,IN-R(+)*
X136540000Y-90090000D03*
G04 #@! TO.P,RV1,6*
G04 #@! TO.N,Earth*
X136540000Y-85090000D03*
G04 #@! TD*
D20*
G04 #@! TO.P,U1,1*
G04 #@! TO.N,OUT-L*
X156210000Y-74930000D03*
D21*
G04 #@! TO.P,U1,5*
G04 #@! TO.N,IN-R(-)*
X148590000Y-67310000D03*
G04 #@! TO.P,U1,2*
G04 #@! TO.N,+12V*
X156210000Y-72390000D03*
G04 #@! TO.P,U1,6*
G04 #@! TO.N,IN-R(+)*
X148590000Y-69850000D03*
G04 #@! TO.P,U1,3*
G04 #@! TO.N,OUT-R*
X156210000Y-69850000D03*
G04 #@! TO.P,U1,7*
G04 #@! TO.N,IN-L(+)*
X148590000Y-72390000D03*
G04 #@! TO.P,U1,4*
G04 #@! TO.N,Earth*
X156210000Y-67310000D03*
G04 #@! TO.P,U1,8*
G04 #@! TO.N,IN-L(-)*
X148590000Y-74930000D03*
G04 #@! TD*
D22*
G04 #@! TO.N,IN-L(-)*
X146628000Y-74930000D02*
X148590000Y-74930000D01*
X145738999Y-74040999D02*
X146628000Y-74930000D01*
X138811001Y-74040999D02*
X145738999Y-74040999D01*
X138430000Y-74422000D02*
X138811001Y-74040999D01*
X138430000Y-76200000D02*
X138430000Y-74422000D01*
G04 #@! TO.N,IN-R(-)*
X148590000Y-66294000D02*
X148590000Y-67310000D01*
X148082000Y-65786000D02*
X148590000Y-66294000D01*
X139446000Y-65786000D02*
X148082000Y-65786000D01*
X138430000Y-68580000D02*
X138430000Y-66802000D01*
X138430000Y-66802000D02*
X139446000Y-65786000D01*
G04 #@! TO.N,Net-(C3-Pad2)*
X162108000Y-83002000D02*
X157226000Y-87884000D01*
X164592000Y-83002000D02*
X162108000Y-83002000D01*
X166370000Y-106656000D02*
X160250000Y-112776000D01*
X166370000Y-104394000D02*
X166370000Y-106656000D01*
X155300678Y-112776000D02*
X147828000Y-105303322D01*
X160250000Y-112776000D02*
X155300678Y-112776000D01*
X147828000Y-97282000D02*
X157226000Y-87884000D01*
X147828000Y-105303322D02*
X147828000Y-97282000D01*
G04 #@! TO.N,OUT-L*
X164592000Y-77724000D02*
X164592000Y-79502000D01*
X161798000Y-74930000D02*
X164592000Y-77724000D01*
X156210000Y-74930000D02*
X161798000Y-74930000D01*
G04 #@! TO.N,OUT-R*
X158172000Y-69850000D02*
X158680000Y-69342000D01*
X156210000Y-69850000D02*
X158172000Y-69850000D01*
X158680000Y-69342000D02*
X162814000Y-69342000D01*
G04 #@! TO.N,Net-(C4-Pad2)*
X167869999Y-92734001D02*
X166370000Y-94234000D01*
X167869999Y-70897999D02*
X167869999Y-92734001D01*
X166314000Y-69342000D02*
X167869999Y-70897999D01*
X159766000Y-94234000D02*
X166370000Y-94234000D01*
X155702000Y-98298000D02*
X159766000Y-94234000D01*
G04 #@! TO.N,Net-(C5-Pad2)*
X156210001Y-93899999D02*
X157226000Y-92884000D01*
X152861001Y-97248999D02*
X156210001Y-93899999D01*
X152861001Y-102061001D02*
X152861001Y-97248999D01*
X156210000Y-105410000D02*
X152861001Y-102061001D01*
G04 #@! TO.N,Net-(C6-Pad2)*
X150702000Y-99734840D02*
X150702000Y-98298000D01*
X150702000Y-103545160D02*
X150702000Y-99734840D01*
X156210000Y-109053160D02*
X150702000Y-103545160D01*
X156210000Y-110490000D02*
X156210000Y-109053160D01*
D23*
G04 #@! TO.N,+12V*
X156171990Y-72428010D02*
X156210000Y-72390000D01*
D22*
X155602169Y-72390000D02*
X152146000Y-68933831D01*
X152146000Y-68933831D02*
X152146000Y-66802000D01*
X152146000Y-66802000D02*
X149352000Y-64008000D01*
X149352000Y-64008000D02*
X125222000Y-64008000D01*
X156210000Y-72390000D02*
X155602169Y-72390000D01*
X125222000Y-64008000D02*
X120650000Y-68580000D01*
X120650000Y-68580000D02*
X118110000Y-68580000D01*
G04 #@! TO.N,Net-(J2-PadT)*
X126540000Y-103890000D02*
X125420000Y-105010000D01*
X126540000Y-95090000D02*
X126540000Y-103890000D01*
X125420000Y-111510000D02*
X125420000Y-105010000D01*
G04 #@! TO.N,Net-(J2-PadR)*
X136540000Y-95590000D02*
X136540000Y-95090000D01*
X133420000Y-98710000D02*
X136540000Y-95590000D01*
X133420000Y-105510000D02*
X133420000Y-98710000D01*
G04 #@! TO.N,IN-L(+)*
X133350000Y-72390000D02*
X148590000Y-72390000D01*
X129540000Y-76200000D02*
X133350000Y-72390000D01*
X129540000Y-76200000D02*
X123952000Y-81788000D01*
X126540000Y-89590000D02*
X126540000Y-90090000D01*
X123952000Y-87002000D02*
X126540000Y-89590000D01*
X123952000Y-81788000D02*
X123952000Y-87002000D01*
G04 #@! TO.N,IN-R(+)*
X150113999Y-90678001D02*
X149098000Y-91694000D01*
X151257001Y-89534999D02*
X150113999Y-90678001D01*
X151257001Y-70993001D02*
X151257001Y-89534999D01*
X150114000Y-69850000D02*
X151257001Y-70993001D01*
X148590000Y-69850000D02*
X150114000Y-69850000D01*
X138144000Y-91694000D02*
X136540000Y-90090000D01*
X149098000Y-91694000D02*
X138144000Y-91694000D01*
G04 #@! TD*
D24*
G04 #@! TO.N,Earth*
G36*
X170765001Y-114885000D02*
X111175000Y-114885000D01*
X111175000Y-104010000D01*
X123781928Y-104010000D01*
X123781928Y-106010000D01*
X123794188Y-106134482D01*
X123830498Y-106254180D01*
X123889463Y-106364494D01*
X123968815Y-106461185D01*
X124065506Y-106540537D01*
X124175820Y-106599502D01*
X124295518Y-106635812D01*
X124404001Y-106646496D01*
X124404000Y-109873504D01*
X124295518Y-109884188D01*
X124175820Y-109920498D01*
X124065506Y-109979463D01*
X123968815Y-110058815D01*
X123889463Y-110155506D01*
X123830498Y-110265820D01*
X123794188Y-110385518D01*
X123781928Y-110510000D01*
X123781928Y-112510000D01*
X123794188Y-112634482D01*
X123830498Y-112754180D01*
X123889463Y-112864494D01*
X123968815Y-112961185D01*
X124065506Y-113040537D01*
X124175820Y-113099502D01*
X124295518Y-113135812D01*
X124420000Y-113148072D01*
X126420000Y-113148072D01*
X126544482Y-113135812D01*
X126664180Y-113099502D01*
X126774494Y-113040537D01*
X126871185Y-112961185D01*
X126950537Y-112864494D01*
X127009502Y-112754180D01*
X127045812Y-112634482D01*
X127058072Y-112510000D01*
X127058072Y-111295750D01*
X131785000Y-111295750D01*
X131785000Y-112072542D01*
X131809403Y-112195223D01*
X131857270Y-112310785D01*
X131926763Y-112414789D01*
X132015211Y-112503237D01*
X132119215Y-112572730D01*
X132234777Y-112620597D01*
X132357458Y-112645000D01*
X133134250Y-112645000D01*
X133293000Y-112486250D01*
X133293000Y-111137000D01*
X133547000Y-111137000D01*
X133547000Y-112486250D01*
X133705750Y-112645000D01*
X134482542Y-112645000D01*
X134605223Y-112620597D01*
X134720785Y-112572730D01*
X134824789Y-112503237D01*
X134913237Y-112414789D01*
X134982730Y-112310785D01*
X135030597Y-112195223D01*
X135055000Y-112072542D01*
X135055000Y-111295750D01*
X134896250Y-111137000D01*
X133547000Y-111137000D01*
X133293000Y-111137000D01*
X131943750Y-111137000D01*
X131785000Y-111295750D01*
X127058072Y-111295750D01*
X127058072Y-110510000D01*
X127045812Y-110385518D01*
X127009502Y-110265820D01*
X126950537Y-110155506D01*
X126871185Y-110058815D01*
X126774494Y-109979463D01*
X126714618Y-109947458D01*
X131785000Y-109947458D01*
X131785000Y-110724250D01*
X131943750Y-110883000D01*
X133293000Y-110883000D01*
X133293000Y-110863000D01*
X133547000Y-110863000D01*
X133547000Y-110883000D01*
X134896250Y-110883000D01*
X134940211Y-110839039D01*
X142118096Y-110839039D01*
X142158754Y-110973087D01*
X142278963Y-111227420D01*
X142446481Y-111453414D01*
X142654869Y-111642385D01*
X142896119Y-111787070D01*
X143160960Y-111881909D01*
X143383000Y-111760624D01*
X143383000Y-110617000D01*
X143637000Y-110617000D01*
X143637000Y-111760624D01*
X143859040Y-111881909D01*
X144123881Y-111787070D01*
X144365131Y-111642385D01*
X144573519Y-111453414D01*
X144741037Y-111227420D01*
X144861246Y-110973087D01*
X144901904Y-110839039D01*
X144779915Y-110617000D01*
X143637000Y-110617000D01*
X143383000Y-110617000D01*
X142240085Y-110617000D01*
X142118096Y-110839039D01*
X134940211Y-110839039D01*
X135055000Y-110724250D01*
X135055000Y-110140961D01*
X142118096Y-110140961D01*
X142240085Y-110363000D01*
X143383000Y-110363000D01*
X143383000Y-109219376D01*
X143637000Y-109219376D01*
X143637000Y-110363000D01*
X144779915Y-110363000D01*
X144901904Y-110140961D01*
X144861246Y-110006913D01*
X144741037Y-109752580D01*
X144573519Y-109526586D01*
X144365131Y-109337615D01*
X144123881Y-109192930D01*
X143859040Y-109098091D01*
X143637000Y-109219376D01*
X143383000Y-109219376D01*
X143160960Y-109098091D01*
X142896119Y-109192930D01*
X142654869Y-109337615D01*
X142446481Y-109526586D01*
X142278963Y-109752580D01*
X142158754Y-110006913D01*
X142118096Y-110140961D01*
X135055000Y-110140961D01*
X135055000Y-109947458D01*
X135030597Y-109824777D01*
X134982730Y-109709215D01*
X134913237Y-109605211D01*
X134824789Y-109516763D01*
X134788337Y-109492406D01*
X134877912Y-109450420D01*
X135096549Y-109289440D01*
X135279579Y-109088899D01*
X135419969Y-108856504D01*
X135512323Y-108601186D01*
X135390420Y-108387000D01*
X134297000Y-108387000D01*
X134297000Y-108407000D01*
X134043000Y-108407000D01*
X134043000Y-108387000D01*
X132949580Y-108387000D01*
X132827677Y-108601186D01*
X132920031Y-108856504D01*
X133060421Y-109088899D01*
X133243451Y-109289440D01*
X133359655Y-109375000D01*
X133292998Y-109375000D01*
X133292998Y-109533748D01*
X133134250Y-109375000D01*
X132357458Y-109375000D01*
X132234777Y-109399403D01*
X132119215Y-109447270D01*
X132015211Y-109516763D01*
X131926763Y-109605211D01*
X131857270Y-109709215D01*
X131809403Y-109824777D01*
X131785000Y-109947458D01*
X126714618Y-109947458D01*
X126664180Y-109920498D01*
X126544482Y-109884188D01*
X126436000Y-109873504D01*
X126436000Y-106646496D01*
X126544482Y-106635812D01*
X126664180Y-106599502D01*
X126774494Y-106540537D01*
X126871185Y-106461185D01*
X126950537Y-106364494D01*
X127009502Y-106254180D01*
X127045812Y-106134482D01*
X127058072Y-106010000D01*
X127058072Y-104808769D01*
X127223133Y-104643708D01*
X127261896Y-104611896D01*
X127345519Y-104510000D01*
X131781928Y-104510000D01*
X131781928Y-106510000D01*
X131794188Y-106634482D01*
X131830498Y-106754180D01*
X131889463Y-106864494D01*
X131968815Y-106961185D01*
X132065506Y-107040537D01*
X132175820Y-107099502D01*
X132295518Y-107135812D01*
X132420000Y-107148072D01*
X133355483Y-107148072D01*
X133243451Y-107230560D01*
X133060421Y-107431101D01*
X132920031Y-107663496D01*
X132827677Y-107918814D01*
X132949580Y-108133000D01*
X134043000Y-108133000D01*
X134043000Y-108113000D01*
X134297000Y-108113000D01*
X134297000Y-108133000D01*
X135390420Y-108133000D01*
X135512323Y-107918814D01*
X135419969Y-107663496D01*
X135279579Y-107431101D01*
X135096549Y-107230560D01*
X134877912Y-107069580D01*
X134789564Y-107028169D01*
X134871185Y-106961185D01*
X134950537Y-106864494D01*
X135009502Y-106754180D01*
X135045812Y-106634482D01*
X135058072Y-106510000D01*
X135058072Y-105759039D01*
X142118096Y-105759039D01*
X142158754Y-105893087D01*
X142278963Y-106147420D01*
X142446481Y-106373414D01*
X142654869Y-106562385D01*
X142896119Y-106707070D01*
X143160960Y-106801909D01*
X143383000Y-106680624D01*
X143383000Y-105537000D01*
X143637000Y-105537000D01*
X143637000Y-106680624D01*
X143859040Y-106801909D01*
X144123881Y-106707070D01*
X144365131Y-106562385D01*
X144573519Y-106373414D01*
X144741037Y-106147420D01*
X144861246Y-105893087D01*
X144901904Y-105759039D01*
X144779915Y-105537000D01*
X143637000Y-105537000D01*
X143383000Y-105537000D01*
X142240085Y-105537000D01*
X142118096Y-105759039D01*
X135058072Y-105759039D01*
X135058072Y-105060961D01*
X142118096Y-105060961D01*
X142240085Y-105283000D01*
X143383000Y-105283000D01*
X143383000Y-104139376D01*
X143637000Y-104139376D01*
X143637000Y-105283000D01*
X144779915Y-105283000D01*
X144901904Y-105060961D01*
X144861246Y-104926913D01*
X144741037Y-104672580D01*
X144573519Y-104446586D01*
X144365131Y-104257615D01*
X144123881Y-104112930D01*
X143859040Y-104018091D01*
X143637000Y-104139376D01*
X143383000Y-104139376D01*
X143160960Y-104018091D01*
X142896119Y-104112930D01*
X142654869Y-104257615D01*
X142446481Y-104446586D01*
X142278963Y-104672580D01*
X142158754Y-104926913D01*
X142118096Y-105060961D01*
X135058072Y-105060961D01*
X135058072Y-104510000D01*
X135045812Y-104385518D01*
X135009502Y-104265820D01*
X134950537Y-104155506D01*
X134871185Y-104058815D01*
X134774494Y-103979463D01*
X134664180Y-103920498D01*
X134544482Y-103884188D01*
X134436000Y-103873504D01*
X134436000Y-99130840D01*
X136284840Y-97282000D01*
X146807085Y-97282000D01*
X146812001Y-97331912D01*
X146812000Y-105253420D01*
X146807085Y-105303322D01*
X146812000Y-105353223D01*
X146826702Y-105502492D01*
X146884798Y-105694008D01*
X146979140Y-105870512D01*
X147106104Y-106025218D01*
X147144872Y-106057034D01*
X154546970Y-113459133D01*
X154578782Y-113497896D01*
X154617543Y-113529706D01*
X154733488Y-113624860D01*
X154909991Y-113719202D01*
X155101507Y-113777298D01*
X155300678Y-113796915D01*
X155350580Y-113792000D01*
X160200098Y-113792000D01*
X160250000Y-113796915D01*
X160299902Y-113792000D01*
X160449171Y-113777298D01*
X160640687Y-113719202D01*
X160817190Y-113624860D01*
X160971896Y-113497896D01*
X161003712Y-113459128D01*
X162111723Y-112351117D01*
X166413000Y-112351117D01*
X166413000Y-112692883D01*
X166479675Y-113028081D01*
X166610463Y-113343831D01*
X166800337Y-113627998D01*
X167042002Y-113869663D01*
X167326169Y-114059537D01*
X167641919Y-114190325D01*
X167977117Y-114257000D01*
X168318883Y-114257000D01*
X168654081Y-114190325D01*
X168969831Y-114059537D01*
X169253998Y-113869663D01*
X169495663Y-113627998D01*
X169685537Y-113343831D01*
X169816325Y-113028081D01*
X169883000Y-112692883D01*
X169883000Y-112351117D01*
X169816325Y-112015919D01*
X169685537Y-111700169D01*
X169495663Y-111416002D01*
X169253998Y-111174337D01*
X168969831Y-110984463D01*
X168654081Y-110853675D01*
X168318883Y-110787000D01*
X167977117Y-110787000D01*
X167641919Y-110853675D01*
X167326169Y-110984463D01*
X167042002Y-111174337D01*
X166800337Y-111416002D01*
X166610463Y-111700169D01*
X166479675Y-112015919D01*
X166413000Y-112351117D01*
X162111723Y-112351117D01*
X167053133Y-107409708D01*
X167091896Y-107377896D01*
X167218860Y-107223190D01*
X167313202Y-107046687D01*
X167371298Y-106855171D01*
X167386000Y-106705902D01*
X167390915Y-106656001D01*
X167386000Y-106606099D01*
X167386000Y-106532072D01*
X167870000Y-106532072D01*
X167994482Y-106519812D01*
X168114180Y-106483502D01*
X168224494Y-106424537D01*
X168321185Y-106345185D01*
X168400537Y-106248494D01*
X168459502Y-106138180D01*
X168495812Y-106018482D01*
X168508072Y-105894000D01*
X168508072Y-102894000D01*
X168495812Y-102769518D01*
X168459502Y-102649820D01*
X168400537Y-102539506D01*
X168321185Y-102442815D01*
X168224494Y-102363463D01*
X168114180Y-102304498D01*
X167994482Y-102268188D01*
X167870000Y-102255928D01*
X164870000Y-102255928D01*
X164745518Y-102268188D01*
X164625820Y-102304498D01*
X164515506Y-102363463D01*
X164418815Y-102442815D01*
X164339463Y-102539506D01*
X164280498Y-102649820D01*
X164244188Y-102769518D01*
X164231928Y-102894000D01*
X164231928Y-105894000D01*
X164244188Y-106018482D01*
X164280498Y-106138180D01*
X164339463Y-106248494D01*
X164418815Y-106345185D01*
X164515506Y-106424537D01*
X164625820Y-106483502D01*
X164745518Y-106519812D01*
X164870000Y-106532072D01*
X165057087Y-106532072D01*
X159829160Y-111760000D01*
X156892241Y-111760000D01*
X157124759Y-111604637D01*
X157324637Y-111404759D01*
X157481680Y-111169727D01*
X157589853Y-110908574D01*
X157645000Y-110631335D01*
X157645000Y-110348665D01*
X157589853Y-110071426D01*
X157481680Y-109810273D01*
X157324637Y-109575241D01*
X157226000Y-109476604D01*
X157226000Y-109103053D01*
X157230914Y-109053159D01*
X157226000Y-109003265D01*
X157226000Y-109003258D01*
X157211298Y-108853989D01*
X157153202Y-108662473D01*
X157058860Y-108485970D01*
X156931896Y-108331264D01*
X156893133Y-108299452D01*
X151718000Y-103124320D01*
X151718000Y-99311396D01*
X151816637Y-99212759D01*
X151845002Y-99170308D01*
X151845001Y-102011099D01*
X151840086Y-102061001D01*
X151845001Y-102110902D01*
X151859703Y-102260171D01*
X151917799Y-102451687D01*
X152012141Y-102628191D01*
X152139105Y-102782897D01*
X152177873Y-102814713D01*
X154775000Y-105411841D01*
X154775000Y-105551335D01*
X154830147Y-105828574D01*
X154938320Y-106089727D01*
X155095363Y-106324759D01*
X155295241Y-106524637D01*
X155530273Y-106681680D01*
X155791426Y-106789853D01*
X156068665Y-106845000D01*
X156351335Y-106845000D01*
X156628574Y-106789853D01*
X156889727Y-106681680D01*
X157124759Y-106524637D01*
X157324637Y-106324759D01*
X157481680Y-106089727D01*
X157589853Y-105828574D01*
X157645000Y-105551335D01*
X157645000Y-105268665D01*
X157589853Y-104991426D01*
X157481680Y-104730273D01*
X157324637Y-104495241D01*
X157124759Y-104295363D01*
X156889727Y-104138320D01*
X156628574Y-104030147D01*
X156351335Y-103975000D01*
X156211841Y-103975000D01*
X153877001Y-101640161D01*
X153877001Y-100805653D01*
X165057952Y-100805653D01*
X165213962Y-101121214D01*
X165588745Y-101312020D01*
X165993551Y-101426044D01*
X166412824Y-101458902D01*
X166830451Y-101409334D01*
X167230383Y-101279243D01*
X167526038Y-101121214D01*
X167682048Y-100805653D01*
X166370000Y-99493605D01*
X165057952Y-100805653D01*
X153877001Y-100805653D01*
X153877001Y-98156665D01*
X154267000Y-98156665D01*
X154267000Y-98439335D01*
X154322147Y-98716574D01*
X154430320Y-98977727D01*
X154587363Y-99212759D01*
X154787241Y-99412637D01*
X155022273Y-99569680D01*
X155283426Y-99677853D01*
X155560665Y-99733000D01*
X155843335Y-99733000D01*
X156120574Y-99677853D01*
X156381727Y-99569680D01*
X156616759Y-99412637D01*
X156672572Y-99356824D01*
X164225098Y-99356824D01*
X164274666Y-99774451D01*
X164404757Y-100174383D01*
X164562786Y-100470038D01*
X164878347Y-100626048D01*
X166190395Y-99314000D01*
X166549605Y-99314000D01*
X167861653Y-100626048D01*
X168177214Y-100470038D01*
X168368020Y-100095255D01*
X168482044Y-99690449D01*
X168514902Y-99271176D01*
X168465334Y-98853549D01*
X168335243Y-98453617D01*
X168177214Y-98157962D01*
X167861653Y-98001952D01*
X166549605Y-99314000D01*
X166190395Y-99314000D01*
X164878347Y-98001952D01*
X164562786Y-98157962D01*
X164371980Y-98532745D01*
X164257956Y-98937551D01*
X164225098Y-99356824D01*
X156672572Y-99356824D01*
X156816637Y-99212759D01*
X156973680Y-98977727D01*
X157081853Y-98716574D01*
X157137000Y-98439335D01*
X157137000Y-98299840D01*
X157614493Y-97822347D01*
X165057952Y-97822347D01*
X166370000Y-99134395D01*
X167682048Y-97822347D01*
X167526038Y-97506786D01*
X167151255Y-97315980D01*
X166746449Y-97201956D01*
X166327176Y-97169098D01*
X165909549Y-97218666D01*
X165509617Y-97348757D01*
X165213962Y-97506786D01*
X165057952Y-97822347D01*
X157614493Y-97822347D01*
X160186841Y-95250000D01*
X164481127Y-95250000D01*
X164711637Y-95594983D01*
X165009017Y-95892363D01*
X165358698Y-96126012D01*
X165747244Y-96286953D01*
X166159721Y-96369000D01*
X166580279Y-96369000D01*
X166992756Y-96286953D01*
X167381302Y-96126012D01*
X167730983Y-95892363D01*
X168028363Y-95594983D01*
X168262012Y-95245302D01*
X168422953Y-94856756D01*
X168505000Y-94444279D01*
X168505000Y-94023721D01*
X168424055Y-93616786D01*
X168553132Y-93487709D01*
X168591895Y-93455897D01*
X168718859Y-93301191D01*
X168801653Y-93146293D01*
X168813201Y-93124689D01*
X168871297Y-92933172D01*
X168890914Y-92734001D01*
X168885999Y-92684099D01*
X168885999Y-70947901D01*
X168890914Y-70897999D01*
X168871297Y-70698828D01*
X168813201Y-70507311D01*
X168765030Y-70417190D01*
X168718859Y-70330809D01*
X168591895Y-70176103D01*
X168553132Y-70144291D01*
X167749000Y-69340160D01*
X167749000Y-69200665D01*
X167693853Y-68923426D01*
X167585680Y-68662273D01*
X167428637Y-68427241D01*
X167228759Y-68227363D01*
X166993727Y-68070320D01*
X166732574Y-67962147D01*
X166455335Y-67907000D01*
X166172665Y-67907000D01*
X165895426Y-67962147D01*
X165634273Y-68070320D01*
X165399241Y-68227363D01*
X165199363Y-68427241D01*
X165042320Y-68662273D01*
X164934147Y-68923426D01*
X164879000Y-69200665D01*
X164879000Y-69483335D01*
X164934147Y-69760574D01*
X165042320Y-70021727D01*
X165199363Y-70256759D01*
X165399241Y-70456637D01*
X165634273Y-70613680D01*
X165895426Y-70721853D01*
X166172665Y-70777000D01*
X166312160Y-70777000D01*
X166853999Y-71318840D01*
X166854000Y-92153447D01*
X166580279Y-92099000D01*
X166159721Y-92099000D01*
X165747244Y-92181047D01*
X165358698Y-92341988D01*
X165009017Y-92575637D01*
X164711637Y-92873017D01*
X164481127Y-93218000D01*
X159815902Y-93218000D01*
X159766000Y-93213085D01*
X159566829Y-93232702D01*
X159375312Y-93290798D01*
X159353281Y-93302574D01*
X159198810Y-93385140D01*
X159044104Y-93512104D01*
X159012293Y-93550866D01*
X155700160Y-96863000D01*
X155560665Y-96863000D01*
X155283426Y-96918147D01*
X155022273Y-97026320D01*
X154787241Y-97183363D01*
X154587363Y-97383241D01*
X154430320Y-97618273D01*
X154322147Y-97879426D01*
X154267000Y-98156665D01*
X153877001Y-98156665D01*
X153877001Y-97669839D01*
X156963707Y-94583134D01*
X156963711Y-94583129D01*
X157227840Y-94319000D01*
X157367335Y-94319000D01*
X157644574Y-94263853D01*
X157905727Y-94155680D01*
X158140759Y-93998637D01*
X158340637Y-93798759D01*
X158497680Y-93563727D01*
X158605853Y-93302574D01*
X158661000Y-93025335D01*
X158661000Y-92742665D01*
X158605853Y-92465426D01*
X158497680Y-92204273D01*
X158340637Y-91969241D01*
X158140759Y-91769363D01*
X157905727Y-91612320D01*
X157644574Y-91504147D01*
X157367335Y-91449000D01*
X157084665Y-91449000D01*
X156807426Y-91504147D01*
X156546273Y-91612320D01*
X156311241Y-91769363D01*
X156111363Y-91969241D01*
X155954320Y-92204273D01*
X155846147Y-92465426D01*
X155791000Y-92742665D01*
X155791000Y-92882160D01*
X155526871Y-93146289D01*
X155526866Y-93146293D01*
X152177869Y-96495291D01*
X152139106Y-96527103D01*
X152012142Y-96681809D01*
X151917800Y-96858312D01*
X151859703Y-97049829D01*
X151840086Y-97248999D01*
X151845002Y-97298911D01*
X151845002Y-97425692D01*
X151816637Y-97383241D01*
X151616759Y-97183363D01*
X151381727Y-97026320D01*
X151120574Y-96918147D01*
X150843335Y-96863000D01*
X150560665Y-96863000D01*
X150283426Y-96918147D01*
X150022273Y-97026320D01*
X149787241Y-97183363D01*
X149587363Y-97383241D01*
X149430320Y-97618273D01*
X149322147Y-97879426D01*
X149267000Y-98156665D01*
X149267000Y-98439335D01*
X149322147Y-98716574D01*
X149430320Y-98977727D01*
X149587363Y-99212759D01*
X149686000Y-99311396D01*
X149686000Y-99784741D01*
X149686001Y-99784751D01*
X149686000Y-103495258D01*
X149681085Y-103545160D01*
X149686000Y-103595061D01*
X149700702Y-103744330D01*
X149758798Y-103935846D01*
X149853140Y-104112350D01*
X149980104Y-104267056D01*
X150018872Y-104298872D01*
X155194001Y-109474002D01*
X155194001Y-109476603D01*
X155095363Y-109575241D01*
X154938320Y-109810273D01*
X154830147Y-110071426D01*
X154775000Y-110348665D01*
X154775000Y-110631335D01*
X154820228Y-110858709D01*
X148844000Y-104882482D01*
X148844000Y-97702840D01*
X157227841Y-89319000D01*
X157367335Y-89319000D01*
X157644574Y-89263853D01*
X157905727Y-89155680D01*
X158140759Y-88998637D01*
X158340637Y-88798759D01*
X158497680Y-88563727D01*
X158605853Y-88302574D01*
X158661000Y-88025335D01*
X158661000Y-87885840D01*
X162528841Y-84018000D01*
X163578604Y-84018000D01*
X163677241Y-84116637D01*
X163912273Y-84273680D01*
X164173426Y-84381853D01*
X164450665Y-84437000D01*
X164733335Y-84437000D01*
X165010574Y-84381853D01*
X165271727Y-84273680D01*
X165506759Y-84116637D01*
X165706637Y-83916759D01*
X165863680Y-83681727D01*
X165971853Y-83420574D01*
X166027000Y-83143335D01*
X166027000Y-82860665D01*
X165971853Y-82583426D01*
X165863680Y-82322273D01*
X165706637Y-82087241D01*
X165506759Y-81887363D01*
X165271727Y-81730320D01*
X165010574Y-81622147D01*
X164733335Y-81567000D01*
X164450665Y-81567000D01*
X164173426Y-81622147D01*
X163912273Y-81730320D01*
X163677241Y-81887363D01*
X163578604Y-81986000D01*
X162157902Y-81986000D01*
X162108000Y-81981085D01*
X162058098Y-81986000D01*
X161908829Y-82000702D01*
X161717313Y-82058798D01*
X161540810Y-82153140D01*
X161386104Y-82280104D01*
X161354292Y-82318867D01*
X157224160Y-86449000D01*
X157084665Y-86449000D01*
X156807426Y-86504147D01*
X156546273Y-86612320D01*
X156311241Y-86769363D01*
X156111363Y-86969241D01*
X155954320Y-87204273D01*
X155846147Y-87465426D01*
X155791000Y-87742665D01*
X155791000Y-87882159D01*
X147144868Y-96528292D01*
X147106105Y-96560104D01*
X146979141Y-96714810D01*
X146884799Y-96891313D01*
X146826702Y-97082830D01*
X146807085Y-97282000D01*
X136284840Y-97282000D01*
X136352406Y-97214435D01*
X136540000Y-97232911D01*
X136860515Y-97201343D01*
X137168714Y-97107852D01*
X137452751Y-96956031D01*
X137701714Y-96751714D01*
X137906031Y-96502752D01*
X138057852Y-96218715D01*
X138151343Y-95910516D01*
X138175000Y-95670322D01*
X138175000Y-94509678D01*
X138151343Y-94269484D01*
X138057852Y-93961285D01*
X137906031Y-93677248D01*
X137701714Y-93428286D01*
X137452752Y-93223969D01*
X137168715Y-93072148D01*
X136860516Y-92978657D01*
X136540000Y-92947089D01*
X136219485Y-92978657D01*
X135911286Y-93072148D01*
X135627249Y-93223969D01*
X135378287Y-93428286D01*
X135173970Y-93677248D01*
X135022148Y-93961285D01*
X134928657Y-94269484D01*
X134905000Y-94509678D01*
X134905000Y-95670321D01*
X134915565Y-95777594D01*
X132736868Y-97956292D01*
X132698105Y-97988104D01*
X132571141Y-98142810D01*
X132514864Y-98248098D01*
X132476799Y-98319313D01*
X132418702Y-98510830D01*
X132399085Y-98710000D01*
X132404001Y-98759912D01*
X132404000Y-103873504D01*
X132295518Y-103884188D01*
X132175820Y-103920498D01*
X132065506Y-103979463D01*
X131968815Y-104058815D01*
X131889463Y-104155506D01*
X131830498Y-104265820D01*
X131794188Y-104385518D01*
X131781928Y-104510000D01*
X127345519Y-104510000D01*
X127388860Y-104457190D01*
X127483202Y-104280687D01*
X127541298Y-104089171D01*
X127556000Y-103939902D01*
X127556000Y-103939895D01*
X127560914Y-103890001D01*
X127556000Y-103840107D01*
X127556000Y-96871297D01*
X127701714Y-96751714D01*
X127906031Y-96502752D01*
X128057852Y-96218715D01*
X128151343Y-95910516D01*
X128175000Y-95670322D01*
X128175000Y-94509678D01*
X128151343Y-94269484D01*
X128057852Y-93961285D01*
X127906031Y-93677248D01*
X127701714Y-93428286D01*
X127452752Y-93223969D01*
X127168715Y-93072148D01*
X126860516Y-92978657D01*
X126540000Y-92947089D01*
X126219485Y-92978657D01*
X125911286Y-93072148D01*
X125627249Y-93223969D01*
X125378287Y-93428286D01*
X125173970Y-93677248D01*
X125022148Y-93961285D01*
X124928657Y-94269484D01*
X124905000Y-94509678D01*
X124905000Y-95670321D01*
X124928657Y-95910515D01*
X125022148Y-96218714D01*
X125173969Y-96502751D01*
X125378286Y-96751714D01*
X125524000Y-96871298D01*
X125524001Y-103371928D01*
X124420000Y-103371928D01*
X124295518Y-103384188D01*
X124175820Y-103420498D01*
X124065506Y-103479463D01*
X123968815Y-103558815D01*
X123889463Y-103655506D01*
X123830498Y-103765820D01*
X123794188Y-103885518D01*
X123781928Y-104010000D01*
X111175000Y-104010000D01*
X111175000Y-76533329D01*
X123167284Y-76533329D01*
X123199953Y-76641044D01*
X123310208Y-76878392D01*
X123464649Y-77089670D01*
X123657340Y-77266759D01*
X123880877Y-77402853D01*
X124126670Y-77492722D01*
X124333000Y-77370201D01*
X124333000Y-76327000D01*
X124587000Y-76327000D01*
X124587000Y-77370201D01*
X124793330Y-77492722D01*
X125039123Y-77402853D01*
X125262660Y-77266759D01*
X125455351Y-77089670D01*
X125609792Y-76878392D01*
X125720047Y-76641044D01*
X125752716Y-76533329D01*
X125629374Y-76327000D01*
X124587000Y-76327000D01*
X124333000Y-76327000D01*
X123290626Y-76327000D01*
X123167284Y-76533329D01*
X111175000Y-76533329D01*
X111175000Y-75866671D01*
X123167284Y-75866671D01*
X123290626Y-76073000D01*
X124333000Y-76073000D01*
X124333000Y-75029799D01*
X124587000Y-75029799D01*
X124587000Y-76073000D01*
X125629374Y-76073000D01*
X125752716Y-75866671D01*
X125720047Y-75758956D01*
X125609792Y-75521608D01*
X125455351Y-75310330D01*
X125262660Y-75133241D01*
X125039123Y-74997147D01*
X124793330Y-74907278D01*
X124587000Y-75029799D01*
X124333000Y-75029799D01*
X124126670Y-74907278D01*
X123880877Y-74997147D01*
X123657340Y-75133241D01*
X123464649Y-75310330D01*
X123310208Y-75521608D01*
X123199953Y-75758956D01*
X123167284Y-75866671D01*
X111175000Y-75866671D01*
X111175000Y-75151653D01*
X116797952Y-75151653D01*
X116953962Y-75467214D01*
X117328745Y-75658020D01*
X117733551Y-75772044D01*
X118152824Y-75804902D01*
X118570451Y-75755334D01*
X118970383Y-75625243D01*
X119266038Y-75467214D01*
X119422048Y-75151653D01*
X118110000Y-73839605D01*
X116797952Y-75151653D01*
X111175000Y-75151653D01*
X111175000Y-73702824D01*
X115965098Y-73702824D01*
X116014666Y-74120451D01*
X116144757Y-74520383D01*
X116302786Y-74816038D01*
X116618347Y-74972048D01*
X117930395Y-73660000D01*
X118289605Y-73660000D01*
X119601653Y-74972048D01*
X119917214Y-74816038D01*
X120108020Y-74441255D01*
X120222044Y-74036449D01*
X120254902Y-73617176D01*
X120205334Y-73199549D01*
X120075243Y-72799617D01*
X119917214Y-72503962D01*
X119601653Y-72347952D01*
X118289605Y-73660000D01*
X117930395Y-73660000D01*
X116618347Y-72347952D01*
X116302786Y-72503962D01*
X116111980Y-72878745D01*
X115997956Y-73283551D01*
X115965098Y-73702824D01*
X111175000Y-73702824D01*
X111175000Y-72168347D01*
X116797952Y-72168347D01*
X118110000Y-73480395D01*
X119422048Y-72168347D01*
X119266038Y-71852786D01*
X118891255Y-71661980D01*
X118486449Y-71547956D01*
X118067176Y-71515098D01*
X117649549Y-71564666D01*
X117249617Y-71694757D01*
X116953962Y-71852786D01*
X116797952Y-72168347D01*
X111175000Y-72168347D01*
X111175000Y-67080000D01*
X115971928Y-67080000D01*
X115971928Y-70080000D01*
X115984188Y-70204482D01*
X116020498Y-70324180D01*
X116079463Y-70434494D01*
X116158815Y-70531185D01*
X116255506Y-70610537D01*
X116365820Y-70669502D01*
X116485518Y-70705812D01*
X116610000Y-70718072D01*
X119610000Y-70718072D01*
X119734482Y-70705812D01*
X119854180Y-70669502D01*
X119964494Y-70610537D01*
X120061185Y-70531185D01*
X120140537Y-70434494D01*
X120199502Y-70324180D01*
X120235812Y-70204482D01*
X120248072Y-70080000D01*
X120248072Y-69596000D01*
X120600098Y-69596000D01*
X120650000Y-69600915D01*
X120699902Y-69596000D01*
X120849171Y-69581298D01*
X121040687Y-69523202D01*
X121217190Y-69428860D01*
X121371896Y-69301896D01*
X121403712Y-69263128D01*
X125642841Y-65024000D01*
X138772971Y-65024000D01*
X138724104Y-65064104D01*
X138692292Y-65102867D01*
X137746868Y-66048292D01*
X137708105Y-66080104D01*
X137581141Y-66234810D01*
X137576177Y-66244098D01*
X137486799Y-66411313D01*
X137428702Y-66602830D01*
X137409085Y-66802000D01*
X137414001Y-66851911D01*
X137414001Y-67181949D01*
X137385820Y-67190498D01*
X137275506Y-67249463D01*
X137178815Y-67328815D01*
X137099463Y-67425506D01*
X137040498Y-67535820D01*
X137004188Y-67655518D01*
X136991928Y-67780000D01*
X136991928Y-69380000D01*
X137004188Y-69504482D01*
X137040498Y-69624180D01*
X137099463Y-69734494D01*
X137178815Y-69831185D01*
X137275506Y-69910537D01*
X137385820Y-69969502D01*
X137505518Y-70005812D01*
X137630000Y-70018072D01*
X139230000Y-70018072D01*
X139354482Y-70005812D01*
X139474180Y-69969502D01*
X139584494Y-69910537D01*
X139681185Y-69831185D01*
X139760537Y-69734494D01*
X139819502Y-69624180D01*
X139835117Y-69572702D01*
X140116903Y-69572702D01*
X140188486Y-69816671D01*
X140443996Y-69937571D01*
X140718184Y-70006300D01*
X141000512Y-70020217D01*
X141280130Y-69978787D01*
X141546292Y-69883603D01*
X141671514Y-69816671D01*
X141743097Y-69572702D01*
X140930000Y-68759605D01*
X140116903Y-69572702D01*
X139835117Y-69572702D01*
X139855812Y-69504482D01*
X139868072Y-69380000D01*
X139868072Y-69372785D01*
X139937298Y-69393097D01*
X140750395Y-68580000D01*
X141109605Y-68580000D01*
X141922702Y-69393097D01*
X142166671Y-69321514D01*
X142287571Y-69066004D01*
X142356300Y-68791816D01*
X142370217Y-68509488D01*
X142328787Y-68229870D01*
X142233603Y-67963708D01*
X142166671Y-67838486D01*
X141922702Y-67766903D01*
X141109605Y-68580000D01*
X140750395Y-68580000D01*
X139937298Y-67766903D01*
X139868072Y-67787215D01*
X139868072Y-67780000D01*
X139855812Y-67655518D01*
X139835118Y-67587298D01*
X140116903Y-67587298D01*
X140930000Y-68400395D01*
X141743097Y-67587298D01*
X141671514Y-67343329D01*
X141416004Y-67222429D01*
X141141816Y-67153700D01*
X140859488Y-67139783D01*
X140579870Y-67181213D01*
X140313708Y-67276397D01*
X140188486Y-67343329D01*
X140116903Y-67587298D01*
X139835118Y-67587298D01*
X139819502Y-67535820D01*
X139760537Y-67425506D01*
X139681185Y-67328815D01*
X139584494Y-67249463D01*
X139476892Y-67191948D01*
X139866841Y-66802000D01*
X146844529Y-66802000D01*
X146775764Y-67028691D01*
X146748057Y-67310000D01*
X146775764Y-67591309D01*
X146857818Y-67861808D01*
X146991068Y-68111101D01*
X147170392Y-68329608D01*
X147388899Y-68508932D01*
X147521858Y-68580000D01*
X147388899Y-68651068D01*
X147170392Y-68830392D01*
X146991068Y-69048899D01*
X146857818Y-69298192D01*
X146775764Y-69568691D01*
X146748057Y-69850000D01*
X146775764Y-70131309D01*
X146857818Y-70401808D01*
X146991068Y-70651101D01*
X147170392Y-70869608D01*
X147388899Y-71048932D01*
X147521858Y-71120000D01*
X147388899Y-71191068D01*
X147170392Y-71370392D01*
X147167431Y-71374000D01*
X133399902Y-71374000D01*
X133350000Y-71369085D01*
X133300098Y-71374000D01*
X133150829Y-71388702D01*
X132959313Y-71446798D01*
X132782810Y-71541140D01*
X132628104Y-71668104D01*
X132596294Y-71706865D01*
X129438160Y-74865000D01*
X129408514Y-74865000D01*
X129150595Y-74916304D01*
X128907641Y-75016939D01*
X128688987Y-75163038D01*
X128503038Y-75348987D01*
X128356939Y-75567641D01*
X128256304Y-75810595D01*
X128205000Y-76068514D01*
X128205000Y-76098159D01*
X123268872Y-81034288D01*
X123230104Y-81066104D01*
X123103140Y-81220810D01*
X123008798Y-81397314D01*
X122957324Y-81567000D01*
X122950702Y-81588830D01*
X122931085Y-81788000D01*
X122936000Y-81837902D01*
X122936001Y-86952088D01*
X122931085Y-87002000D01*
X122950702Y-87201170D01*
X122985782Y-87316811D01*
X123008799Y-87392687D01*
X123103141Y-87569190D01*
X123230105Y-87723896D01*
X123268868Y-87755708D01*
X124915565Y-89402406D01*
X124905000Y-89509678D01*
X124905000Y-90670321D01*
X124928657Y-90910515D01*
X125022148Y-91218714D01*
X125173969Y-91502751D01*
X125378286Y-91751714D01*
X125627248Y-91956031D01*
X125911285Y-92107852D01*
X126219484Y-92201343D01*
X126540000Y-92232911D01*
X126860515Y-92201343D01*
X127168714Y-92107852D01*
X127452751Y-91956031D01*
X127701714Y-91751714D01*
X127906031Y-91502752D01*
X128057852Y-91218715D01*
X128151343Y-90910516D01*
X128175000Y-90670322D01*
X128175000Y-89509678D01*
X128151343Y-89269484D01*
X128057852Y-88961285D01*
X127906031Y-88677248D01*
X127701714Y-88428286D01*
X127452752Y-88223969D01*
X127168715Y-88072148D01*
X126860516Y-87978657D01*
X126540000Y-87947089D01*
X126352406Y-87965565D01*
X124968000Y-86581160D01*
X124968000Y-86050976D01*
X125078058Y-86333020D01*
X125251105Y-86603954D01*
X125473683Y-86835922D01*
X125737239Y-87020010D01*
X126031645Y-87149144D01*
X126159566Y-87180124D01*
X126413000Y-87060777D01*
X126413000Y-85217000D01*
X126667000Y-85217000D01*
X126667000Y-87060777D01*
X126920434Y-87180124D01*
X127048355Y-87149144D01*
X127342761Y-87020010D01*
X127606317Y-86835922D01*
X127828895Y-86603954D01*
X128001942Y-86333020D01*
X128118807Y-86033532D01*
X128175000Y-85717000D01*
X128175000Y-85217000D01*
X134905000Y-85217000D01*
X134905000Y-85717000D01*
X134961193Y-86033532D01*
X135078058Y-86333020D01*
X135251105Y-86603954D01*
X135473683Y-86835922D01*
X135737239Y-87020010D01*
X136031645Y-87149144D01*
X136159566Y-87180124D01*
X136413000Y-87060777D01*
X136413000Y-85217000D01*
X136667000Y-85217000D01*
X136667000Y-87060777D01*
X136920434Y-87180124D01*
X137048355Y-87149144D01*
X137342761Y-87020010D01*
X137446815Y-86947330D01*
X147805278Y-86947330D01*
X147895147Y-87193123D01*
X148031241Y-87416660D01*
X148208330Y-87609351D01*
X148419608Y-87763792D01*
X148656956Y-87874047D01*
X148764671Y-87906716D01*
X148971000Y-87783374D01*
X148971000Y-86741000D01*
X147927799Y-86741000D01*
X147805278Y-86947330D01*
X137446815Y-86947330D01*
X137606317Y-86835922D01*
X137828895Y-86603954D01*
X138001942Y-86333020D01*
X138022369Y-86280670D01*
X147805278Y-86280670D01*
X147927799Y-86487000D01*
X148971000Y-86487000D01*
X148971000Y-85444626D01*
X148764671Y-85321284D01*
X148656956Y-85353953D01*
X148419608Y-85464208D01*
X148208330Y-85618649D01*
X148031241Y-85811340D01*
X147895147Y-86034877D01*
X147805278Y-86280670D01*
X138022369Y-86280670D01*
X138118807Y-86033532D01*
X138175000Y-85717000D01*
X138175000Y-85217000D01*
X136667000Y-85217000D01*
X136413000Y-85217000D01*
X134905000Y-85217000D01*
X128175000Y-85217000D01*
X126667000Y-85217000D01*
X126413000Y-85217000D01*
X126393000Y-85217000D01*
X126393000Y-84963000D01*
X126413000Y-84963000D01*
X126413000Y-83119223D01*
X126667000Y-83119223D01*
X126667000Y-84963000D01*
X128175000Y-84963000D01*
X128175000Y-84463000D01*
X134905000Y-84463000D01*
X134905000Y-84963000D01*
X136413000Y-84963000D01*
X136413000Y-83119223D01*
X136667000Y-83119223D01*
X136667000Y-84963000D01*
X138175000Y-84963000D01*
X138175000Y-84463000D01*
X138118807Y-84146468D01*
X138001942Y-83846980D01*
X137828895Y-83576046D01*
X137606317Y-83344078D01*
X137342761Y-83159990D01*
X137048355Y-83030856D01*
X136920434Y-82999876D01*
X136667000Y-83119223D01*
X136413000Y-83119223D01*
X136159566Y-82999876D01*
X136031645Y-83030856D01*
X135737239Y-83159990D01*
X135473683Y-83344078D01*
X135251105Y-83576046D01*
X135078058Y-83846980D01*
X134961193Y-84146468D01*
X134905000Y-84463000D01*
X128175000Y-84463000D01*
X128118807Y-84146468D01*
X128001942Y-83846980D01*
X127828895Y-83576046D01*
X127606317Y-83344078D01*
X127342761Y-83159990D01*
X127048355Y-83030856D01*
X126920434Y-82999876D01*
X126667000Y-83119223D01*
X126413000Y-83119223D01*
X126159566Y-82999876D01*
X126031645Y-83030856D01*
X125737239Y-83159990D01*
X125473683Y-83344078D01*
X125251105Y-83576046D01*
X125078058Y-83846980D01*
X124968000Y-84129024D01*
X124968000Y-82208840D01*
X129641841Y-77535000D01*
X129671486Y-77535000D01*
X129929405Y-77483696D01*
X130172359Y-77383061D01*
X130391013Y-77236962D01*
X130576962Y-77051013D01*
X130723061Y-76832359D01*
X130823696Y-76589405D01*
X130875000Y-76331486D01*
X130875000Y-76301840D01*
X133770841Y-73406000D01*
X138009160Y-73406000D01*
X137746868Y-73668292D01*
X137708105Y-73700104D01*
X137581141Y-73854810D01*
X137510593Y-73986798D01*
X137486799Y-74031313D01*
X137428702Y-74222830D01*
X137409085Y-74422000D01*
X137414001Y-74471911D01*
X137414001Y-74801949D01*
X137385820Y-74810498D01*
X137275506Y-74869463D01*
X137178815Y-74948815D01*
X137099463Y-75045506D01*
X137040498Y-75155820D01*
X137004188Y-75275518D01*
X136991928Y-75400000D01*
X136991928Y-77000000D01*
X137004188Y-77124482D01*
X137040498Y-77244180D01*
X137099463Y-77354494D01*
X137178815Y-77451185D01*
X137275506Y-77530537D01*
X137385820Y-77589502D01*
X137505518Y-77625812D01*
X137630000Y-77638072D01*
X139230000Y-77638072D01*
X139354482Y-77625812D01*
X139474180Y-77589502D01*
X139584494Y-77530537D01*
X139681185Y-77451185D01*
X139760537Y-77354494D01*
X139819502Y-77244180D01*
X139835117Y-77192702D01*
X140116903Y-77192702D01*
X140188486Y-77436671D01*
X140443996Y-77557571D01*
X140718184Y-77626300D01*
X141000512Y-77640217D01*
X141280130Y-77598787D01*
X141546292Y-77503603D01*
X141671514Y-77436671D01*
X141743097Y-77192702D01*
X140930000Y-76379605D01*
X140116903Y-77192702D01*
X139835117Y-77192702D01*
X139855812Y-77124482D01*
X139868072Y-77000000D01*
X139868072Y-76992785D01*
X139937298Y-77013097D01*
X140750395Y-76200000D01*
X141109605Y-76200000D01*
X141922702Y-77013097D01*
X142166671Y-76941514D01*
X142287571Y-76686004D01*
X142356300Y-76411816D01*
X142370217Y-76129488D01*
X142328787Y-75849870D01*
X142233603Y-75583708D01*
X142166671Y-75458486D01*
X141922702Y-75386903D01*
X141109605Y-76200000D01*
X140750395Y-76200000D01*
X139937298Y-75386903D01*
X139868072Y-75407215D01*
X139868072Y-75400000D01*
X139855812Y-75275518D01*
X139819502Y-75155820D01*
X139766680Y-75056999D01*
X140161002Y-75056999D01*
X140116903Y-75207298D01*
X140930000Y-76020395D01*
X141743097Y-75207298D01*
X141698998Y-75056999D01*
X145318159Y-75056999D01*
X145874292Y-75613133D01*
X145906104Y-75651896D01*
X146060810Y-75778860D01*
X146237313Y-75873202D01*
X146428829Y-75931298D01*
X146578098Y-75946000D01*
X146578105Y-75946000D01*
X146627999Y-75950914D01*
X146677893Y-75946000D01*
X147167431Y-75946000D01*
X147170392Y-75949608D01*
X147388899Y-76128932D01*
X147638192Y-76262182D01*
X147908691Y-76344236D01*
X148119508Y-76365000D01*
X149060492Y-76365000D01*
X149271309Y-76344236D01*
X149541808Y-76262182D01*
X149791101Y-76128932D01*
X150009608Y-75949608D01*
X150188932Y-75731101D01*
X150241001Y-75633686D01*
X150241002Y-85936570D01*
X150164759Y-85811340D01*
X149987670Y-85618649D01*
X149776392Y-85464208D01*
X149539044Y-85353953D01*
X149431329Y-85321284D01*
X149225000Y-85444626D01*
X149225000Y-86487000D01*
X149245000Y-86487000D01*
X149245000Y-86741000D01*
X149225000Y-86741000D01*
X149225000Y-87783374D01*
X149431329Y-87906716D01*
X149539044Y-87874047D01*
X149776392Y-87763792D01*
X149987670Y-87609351D01*
X150164759Y-87416660D01*
X150241002Y-87291430D01*
X150241002Y-89114157D01*
X149430869Y-89924291D01*
X149430864Y-89924295D01*
X148996159Y-90359000D01*
X148966514Y-90359000D01*
X148708595Y-90410304D01*
X148465641Y-90510939D01*
X148246987Y-90657038D01*
X148226025Y-90678000D01*
X138564841Y-90678000D01*
X138175000Y-90288159D01*
X138175000Y-89509678D01*
X138151343Y-89269484D01*
X138057852Y-88961285D01*
X137906031Y-88677248D01*
X137701714Y-88428286D01*
X137452752Y-88223969D01*
X137168715Y-88072148D01*
X136860516Y-87978657D01*
X136540000Y-87947089D01*
X136219485Y-87978657D01*
X135911286Y-88072148D01*
X135627249Y-88223969D01*
X135378287Y-88428286D01*
X135173970Y-88677248D01*
X135022148Y-88961285D01*
X134928657Y-89269484D01*
X134905000Y-89509678D01*
X134905000Y-90670321D01*
X134928657Y-90910515D01*
X135022148Y-91218714D01*
X135173969Y-91502751D01*
X135378286Y-91751714D01*
X135627248Y-91956031D01*
X135911285Y-92107852D01*
X136219484Y-92201343D01*
X136540000Y-92232911D01*
X136860515Y-92201343D01*
X137132114Y-92118955D01*
X137390292Y-92377133D01*
X137422104Y-92415896D01*
X137516437Y-92493313D01*
X137576810Y-92542860D01*
X137753313Y-92637202D01*
X137944829Y-92695298D01*
X138144000Y-92714915D01*
X138193902Y-92710000D01*
X148226025Y-92710000D01*
X148246987Y-92730962D01*
X148465641Y-92877061D01*
X148708595Y-92977696D01*
X148966514Y-93029000D01*
X149229486Y-93029000D01*
X149487405Y-92977696D01*
X149730359Y-92877061D01*
X149949013Y-92730962D01*
X150134962Y-92545013D01*
X150281061Y-92326359D01*
X150381696Y-92083405D01*
X150433000Y-91825486D01*
X150433000Y-91795841D01*
X150867705Y-91361136D01*
X150867709Y-91361131D01*
X151940134Y-90288707D01*
X151978897Y-90256895D01*
X152105861Y-90102189D01*
X152183944Y-89956105D01*
X152200203Y-89925687D01*
X152258299Y-89734170D01*
X152277916Y-89534999D01*
X152273001Y-89485097D01*
X152273001Y-71042903D01*
X152277916Y-70993001D01*
X152258299Y-70793830D01*
X152200203Y-70602314D01*
X152105861Y-70425811D01*
X152027895Y-70330809D01*
X151978897Y-70271105D01*
X151940134Y-70239293D01*
X150867712Y-69166872D01*
X150835896Y-69128104D01*
X150681190Y-69001140D01*
X150504687Y-68906798D01*
X150313171Y-68848702D01*
X150163902Y-68834000D01*
X150114000Y-68829085D01*
X150064098Y-68834000D01*
X150012569Y-68834000D01*
X150009608Y-68830392D01*
X149791101Y-68651068D01*
X149658142Y-68580000D01*
X149791101Y-68508932D01*
X150009608Y-68329608D01*
X150188932Y-68111101D01*
X150322182Y-67861808D01*
X150404236Y-67591309D01*
X150431943Y-67310000D01*
X150404236Y-67028691D01*
X150322182Y-66758192D01*
X150188932Y-66508899D01*
X150009608Y-66290392D01*
X149791101Y-66111068D01*
X149558511Y-65986746D01*
X149533202Y-65903313D01*
X149438860Y-65726810D01*
X149311896Y-65572104D01*
X149273127Y-65540287D01*
X148835713Y-65102873D01*
X148803896Y-65064104D01*
X148755029Y-65024000D01*
X148931160Y-65024000D01*
X151130001Y-67222842D01*
X151130000Y-68883929D01*
X151125085Y-68933831D01*
X151138103Y-69066004D01*
X151144702Y-69133001D01*
X151202798Y-69324517D01*
X151297140Y-69501021D01*
X151424104Y-69655727D01*
X151462872Y-69687543D01*
X154390206Y-72614878D01*
X154395764Y-72671309D01*
X154477818Y-72941808D01*
X154611068Y-73191101D01*
X154790392Y-73409608D01*
X154903482Y-73502419D01*
X154885518Y-73504188D01*
X154765820Y-73540498D01*
X154655506Y-73599463D01*
X154558815Y-73678815D01*
X154479463Y-73775506D01*
X154420498Y-73885820D01*
X154384188Y-74005518D01*
X154371928Y-74130000D01*
X154371928Y-75730000D01*
X154384188Y-75854482D01*
X154420498Y-75974180D01*
X154479463Y-76084494D01*
X154558815Y-76181185D01*
X154655506Y-76260537D01*
X154765820Y-76319502D01*
X154885518Y-76355812D01*
X155010000Y-76368072D01*
X157410000Y-76368072D01*
X157534482Y-76355812D01*
X157654180Y-76319502D01*
X157764494Y-76260537D01*
X157861185Y-76181185D01*
X157940537Y-76084494D01*
X157999502Y-75974180D01*
X158008050Y-75946000D01*
X161377160Y-75946000D01*
X163545107Y-78113948D01*
X163437506Y-78171463D01*
X163340815Y-78250815D01*
X163261463Y-78347506D01*
X163202498Y-78457820D01*
X163166188Y-78577518D01*
X163153928Y-78702000D01*
X163153928Y-80302000D01*
X163166188Y-80426482D01*
X163202498Y-80546180D01*
X163261463Y-80656494D01*
X163340815Y-80753185D01*
X163437506Y-80832537D01*
X163547820Y-80891502D01*
X163667518Y-80927812D01*
X163792000Y-80940072D01*
X165392000Y-80940072D01*
X165516482Y-80927812D01*
X165636180Y-80891502D01*
X165746494Y-80832537D01*
X165843185Y-80753185D01*
X165922537Y-80656494D01*
X165981502Y-80546180D01*
X166017812Y-80426482D01*
X166030072Y-80302000D01*
X166030072Y-78702000D01*
X166017812Y-78577518D01*
X165981502Y-78457820D01*
X165922537Y-78347506D01*
X165843185Y-78250815D01*
X165746494Y-78171463D01*
X165636180Y-78112498D01*
X165608000Y-78103950D01*
X165608000Y-77773902D01*
X165612915Y-77724000D01*
X165593298Y-77524829D01*
X165535202Y-77333313D01*
X165499628Y-77266759D01*
X165440860Y-77156810D01*
X165313896Y-77002104D01*
X165275133Y-76970292D01*
X162551712Y-74246872D01*
X162519896Y-74208104D01*
X162365190Y-74081140D01*
X162188687Y-73986798D01*
X161997171Y-73928702D01*
X161847902Y-73914000D01*
X161798000Y-73909085D01*
X161748098Y-73914000D01*
X158008050Y-73914000D01*
X157999502Y-73885820D01*
X157940537Y-73775506D01*
X157861185Y-73678815D01*
X157764494Y-73599463D01*
X157654180Y-73540498D01*
X157534482Y-73504188D01*
X157516518Y-73502419D01*
X157629608Y-73409608D01*
X157808932Y-73191101D01*
X157942182Y-72941808D01*
X158024236Y-72671309D01*
X158051943Y-72390000D01*
X158024236Y-72108691D01*
X157942182Y-71838192D01*
X157808932Y-71588899D01*
X157629608Y-71370392D01*
X157411101Y-71191068D01*
X157278142Y-71120000D01*
X157411101Y-71048932D01*
X157629608Y-70869608D01*
X157632569Y-70866000D01*
X158122098Y-70866000D01*
X158172000Y-70870915D01*
X158221902Y-70866000D01*
X158371171Y-70851298D01*
X158562687Y-70793202D01*
X158739190Y-70698860D01*
X158893896Y-70571896D01*
X158925713Y-70533127D01*
X159100840Y-70358000D01*
X161415950Y-70358000D01*
X161424498Y-70386180D01*
X161483463Y-70496494D01*
X161562815Y-70593185D01*
X161659506Y-70672537D01*
X161769820Y-70731502D01*
X161889518Y-70767812D01*
X162014000Y-70780072D01*
X163614000Y-70780072D01*
X163738482Y-70767812D01*
X163858180Y-70731502D01*
X163968494Y-70672537D01*
X164065185Y-70593185D01*
X164144537Y-70496494D01*
X164203502Y-70386180D01*
X164239812Y-70266482D01*
X164252072Y-70142000D01*
X164252072Y-68542000D01*
X164239812Y-68417518D01*
X164203502Y-68297820D01*
X164144537Y-68187506D01*
X164065185Y-68090815D01*
X163968494Y-68011463D01*
X163858180Y-67952498D01*
X163738482Y-67916188D01*
X163614000Y-67903928D01*
X162014000Y-67903928D01*
X161889518Y-67916188D01*
X161769820Y-67952498D01*
X161659506Y-68011463D01*
X161562815Y-68090815D01*
X161483463Y-68187506D01*
X161424498Y-68297820D01*
X161415950Y-68326000D01*
X158729893Y-68326000D01*
X158679999Y-68321086D01*
X158630105Y-68326000D01*
X158630098Y-68326000D01*
X158500177Y-68338796D01*
X158480828Y-68340702D01*
X158422732Y-68358326D01*
X158289313Y-68398798D01*
X158112810Y-68493140D01*
X157958104Y-68620104D01*
X157926287Y-68658873D01*
X157751160Y-68834000D01*
X157632569Y-68834000D01*
X157629608Y-68830392D01*
X157411101Y-68651068D01*
X157283259Y-68582735D01*
X157512839Y-68432601D01*
X157714500Y-68234895D01*
X157873715Y-68001646D01*
X157984367Y-67741818D01*
X158001904Y-67659039D01*
X157879915Y-67437000D01*
X156337000Y-67437000D01*
X156337000Y-67457000D01*
X156083000Y-67457000D01*
X156083000Y-67437000D01*
X154540085Y-67437000D01*
X154418096Y-67659039D01*
X154435633Y-67741818D01*
X154546285Y-68001646D01*
X154705500Y-68234895D01*
X154907161Y-68432601D01*
X155136741Y-68582735D01*
X155008899Y-68651068D01*
X154790392Y-68830392D01*
X154611068Y-69048899D01*
X154477818Y-69298192D01*
X154395764Y-69568691D01*
X154379798Y-69730789D01*
X153162000Y-68512991D01*
X153162000Y-66960961D01*
X154418096Y-66960961D01*
X154540085Y-67183000D01*
X156083000Y-67183000D01*
X156083000Y-65875000D01*
X156337000Y-65875000D01*
X156337000Y-67183000D01*
X157879915Y-67183000D01*
X158001904Y-66960961D01*
X157984367Y-66878182D01*
X157873715Y-66618354D01*
X157714500Y-66385105D01*
X157512839Y-66187399D01*
X157276483Y-66032834D01*
X157014514Y-65927350D01*
X156737000Y-65875000D01*
X156337000Y-65875000D01*
X156083000Y-65875000D01*
X155683000Y-65875000D01*
X155405486Y-65927350D01*
X155143517Y-66032834D01*
X154907161Y-66187399D01*
X154705500Y-66385105D01*
X154546285Y-66618354D01*
X154435633Y-66878182D01*
X154418096Y-66960961D01*
X153162000Y-66960961D01*
X153162000Y-66851902D01*
X153166915Y-66802000D01*
X153147298Y-66602829D01*
X153089202Y-66411313D01*
X153058134Y-66353189D01*
X152994860Y-66234810D01*
X152867896Y-66080104D01*
X152829133Y-66048292D01*
X150105712Y-63324872D01*
X150073896Y-63286104D01*
X149919190Y-63159140D01*
X149742687Y-63064798D01*
X149551171Y-63006702D01*
X149401902Y-62992000D01*
X149352000Y-62987085D01*
X149302098Y-62992000D01*
X125271893Y-62992000D01*
X125221999Y-62987086D01*
X125172105Y-62992000D01*
X125172098Y-62992000D01*
X125042177Y-63004796D01*
X125022828Y-63006702D01*
X124964732Y-63024326D01*
X124831313Y-63064798D01*
X124654810Y-63159140D01*
X124500104Y-63286104D01*
X124468292Y-63324867D01*
X120248072Y-67545088D01*
X120248072Y-67080000D01*
X120235812Y-66955518D01*
X120199502Y-66835820D01*
X120140537Y-66725506D01*
X120061185Y-66628815D01*
X119964494Y-66549463D01*
X119854180Y-66490498D01*
X119734482Y-66454188D01*
X119610000Y-66441928D01*
X116610000Y-66441928D01*
X116485518Y-66454188D01*
X116365820Y-66490498D01*
X116255506Y-66549463D01*
X116158815Y-66628815D01*
X116079463Y-66725506D01*
X116020498Y-66835820D01*
X115984188Y-66955518D01*
X115971928Y-67080000D01*
X111175000Y-67080000D01*
X111175000Y-62103000D01*
X170765000Y-62103000D01*
X170765001Y-114885000D01*
X170765001Y-114885000D01*
G37*
X170765001Y-114885000D02*
X111175000Y-114885000D01*
X111175000Y-104010000D01*
X123781928Y-104010000D01*
X123781928Y-106010000D01*
X123794188Y-106134482D01*
X123830498Y-106254180D01*
X123889463Y-106364494D01*
X123968815Y-106461185D01*
X124065506Y-106540537D01*
X124175820Y-106599502D01*
X124295518Y-106635812D01*
X124404001Y-106646496D01*
X124404000Y-109873504D01*
X124295518Y-109884188D01*
X124175820Y-109920498D01*
X124065506Y-109979463D01*
X123968815Y-110058815D01*
X123889463Y-110155506D01*
X123830498Y-110265820D01*
X123794188Y-110385518D01*
X123781928Y-110510000D01*
X123781928Y-112510000D01*
X123794188Y-112634482D01*
X123830498Y-112754180D01*
X123889463Y-112864494D01*
X123968815Y-112961185D01*
X124065506Y-113040537D01*
X124175820Y-113099502D01*
X124295518Y-113135812D01*
X124420000Y-113148072D01*
X126420000Y-113148072D01*
X126544482Y-113135812D01*
X126664180Y-113099502D01*
X126774494Y-113040537D01*
X126871185Y-112961185D01*
X126950537Y-112864494D01*
X127009502Y-112754180D01*
X127045812Y-112634482D01*
X127058072Y-112510000D01*
X127058072Y-111295750D01*
X131785000Y-111295750D01*
X131785000Y-112072542D01*
X131809403Y-112195223D01*
X131857270Y-112310785D01*
X131926763Y-112414789D01*
X132015211Y-112503237D01*
X132119215Y-112572730D01*
X132234777Y-112620597D01*
X132357458Y-112645000D01*
X133134250Y-112645000D01*
X133293000Y-112486250D01*
X133293000Y-111137000D01*
X133547000Y-111137000D01*
X133547000Y-112486250D01*
X133705750Y-112645000D01*
X134482542Y-112645000D01*
X134605223Y-112620597D01*
X134720785Y-112572730D01*
X134824789Y-112503237D01*
X134913237Y-112414789D01*
X134982730Y-112310785D01*
X135030597Y-112195223D01*
X135055000Y-112072542D01*
X135055000Y-111295750D01*
X134896250Y-111137000D01*
X133547000Y-111137000D01*
X133293000Y-111137000D01*
X131943750Y-111137000D01*
X131785000Y-111295750D01*
X127058072Y-111295750D01*
X127058072Y-110510000D01*
X127045812Y-110385518D01*
X127009502Y-110265820D01*
X126950537Y-110155506D01*
X126871185Y-110058815D01*
X126774494Y-109979463D01*
X126714618Y-109947458D01*
X131785000Y-109947458D01*
X131785000Y-110724250D01*
X131943750Y-110883000D01*
X133293000Y-110883000D01*
X133293000Y-110863000D01*
X133547000Y-110863000D01*
X133547000Y-110883000D01*
X134896250Y-110883000D01*
X134940211Y-110839039D01*
X142118096Y-110839039D01*
X142158754Y-110973087D01*
X142278963Y-111227420D01*
X142446481Y-111453414D01*
X142654869Y-111642385D01*
X142896119Y-111787070D01*
X143160960Y-111881909D01*
X143383000Y-111760624D01*
X143383000Y-110617000D01*
X143637000Y-110617000D01*
X143637000Y-111760624D01*
X143859040Y-111881909D01*
X144123881Y-111787070D01*
X144365131Y-111642385D01*
X144573519Y-111453414D01*
X144741037Y-111227420D01*
X144861246Y-110973087D01*
X144901904Y-110839039D01*
X144779915Y-110617000D01*
X143637000Y-110617000D01*
X143383000Y-110617000D01*
X142240085Y-110617000D01*
X142118096Y-110839039D01*
X134940211Y-110839039D01*
X135055000Y-110724250D01*
X135055000Y-110140961D01*
X142118096Y-110140961D01*
X142240085Y-110363000D01*
X143383000Y-110363000D01*
X143383000Y-109219376D01*
X143637000Y-109219376D01*
X143637000Y-110363000D01*
X144779915Y-110363000D01*
X144901904Y-110140961D01*
X144861246Y-110006913D01*
X144741037Y-109752580D01*
X144573519Y-109526586D01*
X144365131Y-109337615D01*
X144123881Y-109192930D01*
X143859040Y-109098091D01*
X143637000Y-109219376D01*
X143383000Y-109219376D01*
X143160960Y-109098091D01*
X142896119Y-109192930D01*
X142654869Y-109337615D01*
X142446481Y-109526586D01*
X142278963Y-109752580D01*
X142158754Y-110006913D01*
X142118096Y-110140961D01*
X135055000Y-110140961D01*
X135055000Y-109947458D01*
X135030597Y-109824777D01*
X134982730Y-109709215D01*
X134913237Y-109605211D01*
X134824789Y-109516763D01*
X134788337Y-109492406D01*
X134877912Y-109450420D01*
X135096549Y-109289440D01*
X135279579Y-109088899D01*
X135419969Y-108856504D01*
X135512323Y-108601186D01*
X135390420Y-108387000D01*
X134297000Y-108387000D01*
X134297000Y-108407000D01*
X134043000Y-108407000D01*
X134043000Y-108387000D01*
X132949580Y-108387000D01*
X132827677Y-108601186D01*
X132920031Y-108856504D01*
X133060421Y-109088899D01*
X133243451Y-109289440D01*
X133359655Y-109375000D01*
X133292998Y-109375000D01*
X133292998Y-109533748D01*
X133134250Y-109375000D01*
X132357458Y-109375000D01*
X132234777Y-109399403D01*
X132119215Y-109447270D01*
X132015211Y-109516763D01*
X131926763Y-109605211D01*
X131857270Y-109709215D01*
X131809403Y-109824777D01*
X131785000Y-109947458D01*
X126714618Y-109947458D01*
X126664180Y-109920498D01*
X126544482Y-109884188D01*
X126436000Y-109873504D01*
X126436000Y-106646496D01*
X126544482Y-106635812D01*
X126664180Y-106599502D01*
X126774494Y-106540537D01*
X126871185Y-106461185D01*
X126950537Y-106364494D01*
X127009502Y-106254180D01*
X127045812Y-106134482D01*
X127058072Y-106010000D01*
X127058072Y-104808769D01*
X127223133Y-104643708D01*
X127261896Y-104611896D01*
X127345519Y-104510000D01*
X131781928Y-104510000D01*
X131781928Y-106510000D01*
X131794188Y-106634482D01*
X131830498Y-106754180D01*
X131889463Y-106864494D01*
X131968815Y-106961185D01*
X132065506Y-107040537D01*
X132175820Y-107099502D01*
X132295518Y-107135812D01*
X132420000Y-107148072D01*
X133355483Y-107148072D01*
X133243451Y-107230560D01*
X133060421Y-107431101D01*
X132920031Y-107663496D01*
X132827677Y-107918814D01*
X132949580Y-108133000D01*
X134043000Y-108133000D01*
X134043000Y-108113000D01*
X134297000Y-108113000D01*
X134297000Y-108133000D01*
X135390420Y-108133000D01*
X135512323Y-107918814D01*
X135419969Y-107663496D01*
X135279579Y-107431101D01*
X135096549Y-107230560D01*
X134877912Y-107069580D01*
X134789564Y-107028169D01*
X134871185Y-106961185D01*
X134950537Y-106864494D01*
X135009502Y-106754180D01*
X135045812Y-106634482D01*
X135058072Y-106510000D01*
X135058072Y-105759039D01*
X142118096Y-105759039D01*
X142158754Y-105893087D01*
X142278963Y-106147420D01*
X142446481Y-106373414D01*
X142654869Y-106562385D01*
X142896119Y-106707070D01*
X143160960Y-106801909D01*
X143383000Y-106680624D01*
X143383000Y-105537000D01*
X143637000Y-105537000D01*
X143637000Y-106680624D01*
X143859040Y-106801909D01*
X144123881Y-106707070D01*
X144365131Y-106562385D01*
X144573519Y-106373414D01*
X144741037Y-106147420D01*
X144861246Y-105893087D01*
X144901904Y-105759039D01*
X144779915Y-105537000D01*
X143637000Y-105537000D01*
X143383000Y-105537000D01*
X142240085Y-105537000D01*
X142118096Y-105759039D01*
X135058072Y-105759039D01*
X135058072Y-105060961D01*
X142118096Y-105060961D01*
X142240085Y-105283000D01*
X143383000Y-105283000D01*
X143383000Y-104139376D01*
X143637000Y-104139376D01*
X143637000Y-105283000D01*
X144779915Y-105283000D01*
X144901904Y-105060961D01*
X144861246Y-104926913D01*
X144741037Y-104672580D01*
X144573519Y-104446586D01*
X144365131Y-104257615D01*
X144123881Y-104112930D01*
X143859040Y-104018091D01*
X143637000Y-104139376D01*
X143383000Y-104139376D01*
X143160960Y-104018091D01*
X142896119Y-104112930D01*
X142654869Y-104257615D01*
X142446481Y-104446586D01*
X142278963Y-104672580D01*
X142158754Y-104926913D01*
X142118096Y-105060961D01*
X135058072Y-105060961D01*
X135058072Y-104510000D01*
X135045812Y-104385518D01*
X135009502Y-104265820D01*
X134950537Y-104155506D01*
X134871185Y-104058815D01*
X134774494Y-103979463D01*
X134664180Y-103920498D01*
X134544482Y-103884188D01*
X134436000Y-103873504D01*
X134436000Y-99130840D01*
X136284840Y-97282000D01*
X146807085Y-97282000D01*
X146812001Y-97331912D01*
X146812000Y-105253420D01*
X146807085Y-105303322D01*
X146812000Y-105353223D01*
X146826702Y-105502492D01*
X146884798Y-105694008D01*
X146979140Y-105870512D01*
X147106104Y-106025218D01*
X147144872Y-106057034D01*
X154546970Y-113459133D01*
X154578782Y-113497896D01*
X154617543Y-113529706D01*
X154733488Y-113624860D01*
X154909991Y-113719202D01*
X155101507Y-113777298D01*
X155300678Y-113796915D01*
X155350580Y-113792000D01*
X160200098Y-113792000D01*
X160250000Y-113796915D01*
X160299902Y-113792000D01*
X160449171Y-113777298D01*
X160640687Y-113719202D01*
X160817190Y-113624860D01*
X160971896Y-113497896D01*
X161003712Y-113459128D01*
X162111723Y-112351117D01*
X166413000Y-112351117D01*
X166413000Y-112692883D01*
X166479675Y-113028081D01*
X166610463Y-113343831D01*
X166800337Y-113627998D01*
X167042002Y-113869663D01*
X167326169Y-114059537D01*
X167641919Y-114190325D01*
X167977117Y-114257000D01*
X168318883Y-114257000D01*
X168654081Y-114190325D01*
X168969831Y-114059537D01*
X169253998Y-113869663D01*
X169495663Y-113627998D01*
X169685537Y-113343831D01*
X169816325Y-113028081D01*
X169883000Y-112692883D01*
X169883000Y-112351117D01*
X169816325Y-112015919D01*
X169685537Y-111700169D01*
X169495663Y-111416002D01*
X169253998Y-111174337D01*
X168969831Y-110984463D01*
X168654081Y-110853675D01*
X168318883Y-110787000D01*
X167977117Y-110787000D01*
X167641919Y-110853675D01*
X167326169Y-110984463D01*
X167042002Y-111174337D01*
X166800337Y-111416002D01*
X166610463Y-111700169D01*
X166479675Y-112015919D01*
X166413000Y-112351117D01*
X162111723Y-112351117D01*
X167053133Y-107409708D01*
X167091896Y-107377896D01*
X167218860Y-107223190D01*
X167313202Y-107046687D01*
X167371298Y-106855171D01*
X167386000Y-106705902D01*
X167390915Y-106656001D01*
X167386000Y-106606099D01*
X167386000Y-106532072D01*
X167870000Y-106532072D01*
X167994482Y-106519812D01*
X168114180Y-106483502D01*
X168224494Y-106424537D01*
X168321185Y-106345185D01*
X168400537Y-106248494D01*
X168459502Y-106138180D01*
X168495812Y-106018482D01*
X168508072Y-105894000D01*
X168508072Y-102894000D01*
X168495812Y-102769518D01*
X168459502Y-102649820D01*
X168400537Y-102539506D01*
X168321185Y-102442815D01*
X168224494Y-102363463D01*
X168114180Y-102304498D01*
X167994482Y-102268188D01*
X167870000Y-102255928D01*
X164870000Y-102255928D01*
X164745518Y-102268188D01*
X164625820Y-102304498D01*
X164515506Y-102363463D01*
X164418815Y-102442815D01*
X164339463Y-102539506D01*
X164280498Y-102649820D01*
X164244188Y-102769518D01*
X164231928Y-102894000D01*
X164231928Y-105894000D01*
X164244188Y-106018482D01*
X164280498Y-106138180D01*
X164339463Y-106248494D01*
X164418815Y-106345185D01*
X164515506Y-106424537D01*
X164625820Y-106483502D01*
X164745518Y-106519812D01*
X164870000Y-106532072D01*
X165057087Y-106532072D01*
X159829160Y-111760000D01*
X156892241Y-111760000D01*
X157124759Y-111604637D01*
X157324637Y-111404759D01*
X157481680Y-111169727D01*
X157589853Y-110908574D01*
X157645000Y-110631335D01*
X157645000Y-110348665D01*
X157589853Y-110071426D01*
X157481680Y-109810273D01*
X157324637Y-109575241D01*
X157226000Y-109476604D01*
X157226000Y-109103053D01*
X157230914Y-109053159D01*
X157226000Y-109003265D01*
X157226000Y-109003258D01*
X157211298Y-108853989D01*
X157153202Y-108662473D01*
X157058860Y-108485970D01*
X156931896Y-108331264D01*
X156893133Y-108299452D01*
X151718000Y-103124320D01*
X151718000Y-99311396D01*
X151816637Y-99212759D01*
X151845002Y-99170308D01*
X151845001Y-102011099D01*
X151840086Y-102061001D01*
X151845001Y-102110902D01*
X151859703Y-102260171D01*
X151917799Y-102451687D01*
X152012141Y-102628191D01*
X152139105Y-102782897D01*
X152177873Y-102814713D01*
X154775000Y-105411841D01*
X154775000Y-105551335D01*
X154830147Y-105828574D01*
X154938320Y-106089727D01*
X155095363Y-106324759D01*
X155295241Y-106524637D01*
X155530273Y-106681680D01*
X155791426Y-106789853D01*
X156068665Y-106845000D01*
X156351335Y-106845000D01*
X156628574Y-106789853D01*
X156889727Y-106681680D01*
X157124759Y-106524637D01*
X157324637Y-106324759D01*
X157481680Y-106089727D01*
X157589853Y-105828574D01*
X157645000Y-105551335D01*
X157645000Y-105268665D01*
X157589853Y-104991426D01*
X157481680Y-104730273D01*
X157324637Y-104495241D01*
X157124759Y-104295363D01*
X156889727Y-104138320D01*
X156628574Y-104030147D01*
X156351335Y-103975000D01*
X156211841Y-103975000D01*
X153877001Y-101640161D01*
X153877001Y-100805653D01*
X165057952Y-100805653D01*
X165213962Y-101121214D01*
X165588745Y-101312020D01*
X165993551Y-101426044D01*
X166412824Y-101458902D01*
X166830451Y-101409334D01*
X167230383Y-101279243D01*
X167526038Y-101121214D01*
X167682048Y-100805653D01*
X166370000Y-99493605D01*
X165057952Y-100805653D01*
X153877001Y-100805653D01*
X153877001Y-98156665D01*
X154267000Y-98156665D01*
X154267000Y-98439335D01*
X154322147Y-98716574D01*
X154430320Y-98977727D01*
X154587363Y-99212759D01*
X154787241Y-99412637D01*
X155022273Y-99569680D01*
X155283426Y-99677853D01*
X155560665Y-99733000D01*
X155843335Y-99733000D01*
X156120574Y-99677853D01*
X156381727Y-99569680D01*
X156616759Y-99412637D01*
X156672572Y-99356824D01*
X164225098Y-99356824D01*
X164274666Y-99774451D01*
X164404757Y-100174383D01*
X164562786Y-100470038D01*
X164878347Y-100626048D01*
X166190395Y-99314000D01*
X166549605Y-99314000D01*
X167861653Y-100626048D01*
X168177214Y-100470038D01*
X168368020Y-100095255D01*
X168482044Y-99690449D01*
X168514902Y-99271176D01*
X168465334Y-98853549D01*
X168335243Y-98453617D01*
X168177214Y-98157962D01*
X167861653Y-98001952D01*
X166549605Y-99314000D01*
X166190395Y-99314000D01*
X164878347Y-98001952D01*
X164562786Y-98157962D01*
X164371980Y-98532745D01*
X164257956Y-98937551D01*
X164225098Y-99356824D01*
X156672572Y-99356824D01*
X156816637Y-99212759D01*
X156973680Y-98977727D01*
X157081853Y-98716574D01*
X157137000Y-98439335D01*
X157137000Y-98299840D01*
X157614493Y-97822347D01*
X165057952Y-97822347D01*
X166370000Y-99134395D01*
X167682048Y-97822347D01*
X167526038Y-97506786D01*
X167151255Y-97315980D01*
X166746449Y-97201956D01*
X166327176Y-97169098D01*
X165909549Y-97218666D01*
X165509617Y-97348757D01*
X165213962Y-97506786D01*
X165057952Y-97822347D01*
X157614493Y-97822347D01*
X160186841Y-95250000D01*
X164481127Y-95250000D01*
X164711637Y-95594983D01*
X165009017Y-95892363D01*
X165358698Y-96126012D01*
X165747244Y-96286953D01*
X166159721Y-96369000D01*
X166580279Y-96369000D01*
X166992756Y-96286953D01*
X167381302Y-96126012D01*
X167730983Y-95892363D01*
X168028363Y-95594983D01*
X168262012Y-95245302D01*
X168422953Y-94856756D01*
X168505000Y-94444279D01*
X168505000Y-94023721D01*
X168424055Y-93616786D01*
X168553132Y-93487709D01*
X168591895Y-93455897D01*
X168718859Y-93301191D01*
X168801653Y-93146293D01*
X168813201Y-93124689D01*
X168871297Y-92933172D01*
X168890914Y-92734001D01*
X168885999Y-92684099D01*
X168885999Y-70947901D01*
X168890914Y-70897999D01*
X168871297Y-70698828D01*
X168813201Y-70507311D01*
X168765030Y-70417190D01*
X168718859Y-70330809D01*
X168591895Y-70176103D01*
X168553132Y-70144291D01*
X167749000Y-69340160D01*
X167749000Y-69200665D01*
X167693853Y-68923426D01*
X167585680Y-68662273D01*
X167428637Y-68427241D01*
X167228759Y-68227363D01*
X166993727Y-68070320D01*
X166732574Y-67962147D01*
X166455335Y-67907000D01*
X166172665Y-67907000D01*
X165895426Y-67962147D01*
X165634273Y-68070320D01*
X165399241Y-68227363D01*
X165199363Y-68427241D01*
X165042320Y-68662273D01*
X164934147Y-68923426D01*
X164879000Y-69200665D01*
X164879000Y-69483335D01*
X164934147Y-69760574D01*
X165042320Y-70021727D01*
X165199363Y-70256759D01*
X165399241Y-70456637D01*
X165634273Y-70613680D01*
X165895426Y-70721853D01*
X166172665Y-70777000D01*
X166312160Y-70777000D01*
X166853999Y-71318840D01*
X166854000Y-92153447D01*
X166580279Y-92099000D01*
X166159721Y-92099000D01*
X165747244Y-92181047D01*
X165358698Y-92341988D01*
X165009017Y-92575637D01*
X164711637Y-92873017D01*
X164481127Y-93218000D01*
X159815902Y-93218000D01*
X159766000Y-93213085D01*
X159566829Y-93232702D01*
X159375312Y-93290798D01*
X159353281Y-93302574D01*
X159198810Y-93385140D01*
X159044104Y-93512104D01*
X159012293Y-93550866D01*
X155700160Y-96863000D01*
X155560665Y-96863000D01*
X155283426Y-96918147D01*
X155022273Y-97026320D01*
X154787241Y-97183363D01*
X154587363Y-97383241D01*
X154430320Y-97618273D01*
X154322147Y-97879426D01*
X154267000Y-98156665D01*
X153877001Y-98156665D01*
X153877001Y-97669839D01*
X156963707Y-94583134D01*
X156963711Y-94583129D01*
X157227840Y-94319000D01*
X157367335Y-94319000D01*
X157644574Y-94263853D01*
X157905727Y-94155680D01*
X158140759Y-93998637D01*
X158340637Y-93798759D01*
X158497680Y-93563727D01*
X158605853Y-93302574D01*
X158661000Y-93025335D01*
X158661000Y-92742665D01*
X158605853Y-92465426D01*
X158497680Y-92204273D01*
X158340637Y-91969241D01*
X158140759Y-91769363D01*
X157905727Y-91612320D01*
X157644574Y-91504147D01*
X157367335Y-91449000D01*
X157084665Y-91449000D01*
X156807426Y-91504147D01*
X156546273Y-91612320D01*
X156311241Y-91769363D01*
X156111363Y-91969241D01*
X155954320Y-92204273D01*
X155846147Y-92465426D01*
X155791000Y-92742665D01*
X155791000Y-92882160D01*
X155526871Y-93146289D01*
X155526866Y-93146293D01*
X152177869Y-96495291D01*
X152139106Y-96527103D01*
X152012142Y-96681809D01*
X151917800Y-96858312D01*
X151859703Y-97049829D01*
X151840086Y-97248999D01*
X151845002Y-97298911D01*
X151845002Y-97425692D01*
X151816637Y-97383241D01*
X151616759Y-97183363D01*
X151381727Y-97026320D01*
X151120574Y-96918147D01*
X150843335Y-96863000D01*
X150560665Y-96863000D01*
X150283426Y-96918147D01*
X150022273Y-97026320D01*
X149787241Y-97183363D01*
X149587363Y-97383241D01*
X149430320Y-97618273D01*
X149322147Y-97879426D01*
X149267000Y-98156665D01*
X149267000Y-98439335D01*
X149322147Y-98716574D01*
X149430320Y-98977727D01*
X149587363Y-99212759D01*
X149686000Y-99311396D01*
X149686000Y-99784741D01*
X149686001Y-99784751D01*
X149686000Y-103495258D01*
X149681085Y-103545160D01*
X149686000Y-103595061D01*
X149700702Y-103744330D01*
X149758798Y-103935846D01*
X149853140Y-104112350D01*
X149980104Y-104267056D01*
X150018872Y-104298872D01*
X155194001Y-109474002D01*
X155194001Y-109476603D01*
X155095363Y-109575241D01*
X154938320Y-109810273D01*
X154830147Y-110071426D01*
X154775000Y-110348665D01*
X154775000Y-110631335D01*
X154820228Y-110858709D01*
X148844000Y-104882482D01*
X148844000Y-97702840D01*
X157227841Y-89319000D01*
X157367335Y-89319000D01*
X157644574Y-89263853D01*
X157905727Y-89155680D01*
X158140759Y-88998637D01*
X158340637Y-88798759D01*
X158497680Y-88563727D01*
X158605853Y-88302574D01*
X158661000Y-88025335D01*
X158661000Y-87885840D01*
X162528841Y-84018000D01*
X163578604Y-84018000D01*
X163677241Y-84116637D01*
X163912273Y-84273680D01*
X164173426Y-84381853D01*
X164450665Y-84437000D01*
X164733335Y-84437000D01*
X165010574Y-84381853D01*
X165271727Y-84273680D01*
X165506759Y-84116637D01*
X165706637Y-83916759D01*
X165863680Y-83681727D01*
X165971853Y-83420574D01*
X166027000Y-83143335D01*
X166027000Y-82860665D01*
X165971853Y-82583426D01*
X165863680Y-82322273D01*
X165706637Y-82087241D01*
X165506759Y-81887363D01*
X165271727Y-81730320D01*
X165010574Y-81622147D01*
X164733335Y-81567000D01*
X164450665Y-81567000D01*
X164173426Y-81622147D01*
X163912273Y-81730320D01*
X163677241Y-81887363D01*
X163578604Y-81986000D01*
X162157902Y-81986000D01*
X162108000Y-81981085D01*
X162058098Y-81986000D01*
X161908829Y-82000702D01*
X161717313Y-82058798D01*
X161540810Y-82153140D01*
X161386104Y-82280104D01*
X161354292Y-82318867D01*
X157224160Y-86449000D01*
X157084665Y-86449000D01*
X156807426Y-86504147D01*
X156546273Y-86612320D01*
X156311241Y-86769363D01*
X156111363Y-86969241D01*
X155954320Y-87204273D01*
X155846147Y-87465426D01*
X155791000Y-87742665D01*
X155791000Y-87882159D01*
X147144868Y-96528292D01*
X147106105Y-96560104D01*
X146979141Y-96714810D01*
X146884799Y-96891313D01*
X146826702Y-97082830D01*
X146807085Y-97282000D01*
X136284840Y-97282000D01*
X136352406Y-97214435D01*
X136540000Y-97232911D01*
X136860515Y-97201343D01*
X137168714Y-97107852D01*
X137452751Y-96956031D01*
X137701714Y-96751714D01*
X137906031Y-96502752D01*
X138057852Y-96218715D01*
X138151343Y-95910516D01*
X138175000Y-95670322D01*
X138175000Y-94509678D01*
X138151343Y-94269484D01*
X138057852Y-93961285D01*
X137906031Y-93677248D01*
X137701714Y-93428286D01*
X137452752Y-93223969D01*
X137168715Y-93072148D01*
X136860516Y-92978657D01*
X136540000Y-92947089D01*
X136219485Y-92978657D01*
X135911286Y-93072148D01*
X135627249Y-93223969D01*
X135378287Y-93428286D01*
X135173970Y-93677248D01*
X135022148Y-93961285D01*
X134928657Y-94269484D01*
X134905000Y-94509678D01*
X134905000Y-95670321D01*
X134915565Y-95777594D01*
X132736868Y-97956292D01*
X132698105Y-97988104D01*
X132571141Y-98142810D01*
X132514864Y-98248098D01*
X132476799Y-98319313D01*
X132418702Y-98510830D01*
X132399085Y-98710000D01*
X132404001Y-98759912D01*
X132404000Y-103873504D01*
X132295518Y-103884188D01*
X132175820Y-103920498D01*
X132065506Y-103979463D01*
X131968815Y-104058815D01*
X131889463Y-104155506D01*
X131830498Y-104265820D01*
X131794188Y-104385518D01*
X131781928Y-104510000D01*
X127345519Y-104510000D01*
X127388860Y-104457190D01*
X127483202Y-104280687D01*
X127541298Y-104089171D01*
X127556000Y-103939902D01*
X127556000Y-103939895D01*
X127560914Y-103890001D01*
X127556000Y-103840107D01*
X127556000Y-96871297D01*
X127701714Y-96751714D01*
X127906031Y-96502752D01*
X128057852Y-96218715D01*
X128151343Y-95910516D01*
X128175000Y-95670322D01*
X128175000Y-94509678D01*
X128151343Y-94269484D01*
X128057852Y-93961285D01*
X127906031Y-93677248D01*
X127701714Y-93428286D01*
X127452752Y-93223969D01*
X127168715Y-93072148D01*
X126860516Y-92978657D01*
X126540000Y-92947089D01*
X126219485Y-92978657D01*
X125911286Y-93072148D01*
X125627249Y-93223969D01*
X125378287Y-93428286D01*
X125173970Y-93677248D01*
X125022148Y-93961285D01*
X124928657Y-94269484D01*
X124905000Y-94509678D01*
X124905000Y-95670321D01*
X124928657Y-95910515D01*
X125022148Y-96218714D01*
X125173969Y-96502751D01*
X125378286Y-96751714D01*
X125524000Y-96871298D01*
X125524001Y-103371928D01*
X124420000Y-103371928D01*
X124295518Y-103384188D01*
X124175820Y-103420498D01*
X124065506Y-103479463D01*
X123968815Y-103558815D01*
X123889463Y-103655506D01*
X123830498Y-103765820D01*
X123794188Y-103885518D01*
X123781928Y-104010000D01*
X111175000Y-104010000D01*
X111175000Y-76533329D01*
X123167284Y-76533329D01*
X123199953Y-76641044D01*
X123310208Y-76878392D01*
X123464649Y-77089670D01*
X123657340Y-77266759D01*
X123880877Y-77402853D01*
X124126670Y-77492722D01*
X124333000Y-77370201D01*
X124333000Y-76327000D01*
X124587000Y-76327000D01*
X124587000Y-77370201D01*
X124793330Y-77492722D01*
X125039123Y-77402853D01*
X125262660Y-77266759D01*
X125455351Y-77089670D01*
X125609792Y-76878392D01*
X125720047Y-76641044D01*
X125752716Y-76533329D01*
X125629374Y-76327000D01*
X124587000Y-76327000D01*
X124333000Y-76327000D01*
X123290626Y-76327000D01*
X123167284Y-76533329D01*
X111175000Y-76533329D01*
X111175000Y-75866671D01*
X123167284Y-75866671D01*
X123290626Y-76073000D01*
X124333000Y-76073000D01*
X124333000Y-75029799D01*
X124587000Y-75029799D01*
X124587000Y-76073000D01*
X125629374Y-76073000D01*
X125752716Y-75866671D01*
X125720047Y-75758956D01*
X125609792Y-75521608D01*
X125455351Y-75310330D01*
X125262660Y-75133241D01*
X125039123Y-74997147D01*
X124793330Y-74907278D01*
X124587000Y-75029799D01*
X124333000Y-75029799D01*
X124126670Y-74907278D01*
X123880877Y-74997147D01*
X123657340Y-75133241D01*
X123464649Y-75310330D01*
X123310208Y-75521608D01*
X123199953Y-75758956D01*
X123167284Y-75866671D01*
X111175000Y-75866671D01*
X111175000Y-75151653D01*
X116797952Y-75151653D01*
X116953962Y-75467214D01*
X117328745Y-75658020D01*
X117733551Y-75772044D01*
X118152824Y-75804902D01*
X118570451Y-75755334D01*
X118970383Y-75625243D01*
X119266038Y-75467214D01*
X119422048Y-75151653D01*
X118110000Y-73839605D01*
X116797952Y-75151653D01*
X111175000Y-75151653D01*
X111175000Y-73702824D01*
X115965098Y-73702824D01*
X116014666Y-74120451D01*
X116144757Y-74520383D01*
X116302786Y-74816038D01*
X116618347Y-74972048D01*
X117930395Y-73660000D01*
X118289605Y-73660000D01*
X119601653Y-74972048D01*
X119917214Y-74816038D01*
X120108020Y-74441255D01*
X120222044Y-74036449D01*
X120254902Y-73617176D01*
X120205334Y-73199549D01*
X120075243Y-72799617D01*
X119917214Y-72503962D01*
X119601653Y-72347952D01*
X118289605Y-73660000D01*
X117930395Y-73660000D01*
X116618347Y-72347952D01*
X116302786Y-72503962D01*
X116111980Y-72878745D01*
X115997956Y-73283551D01*
X115965098Y-73702824D01*
X111175000Y-73702824D01*
X111175000Y-72168347D01*
X116797952Y-72168347D01*
X118110000Y-73480395D01*
X119422048Y-72168347D01*
X119266038Y-71852786D01*
X118891255Y-71661980D01*
X118486449Y-71547956D01*
X118067176Y-71515098D01*
X117649549Y-71564666D01*
X117249617Y-71694757D01*
X116953962Y-71852786D01*
X116797952Y-72168347D01*
X111175000Y-72168347D01*
X111175000Y-67080000D01*
X115971928Y-67080000D01*
X115971928Y-70080000D01*
X115984188Y-70204482D01*
X116020498Y-70324180D01*
X116079463Y-70434494D01*
X116158815Y-70531185D01*
X116255506Y-70610537D01*
X116365820Y-70669502D01*
X116485518Y-70705812D01*
X116610000Y-70718072D01*
X119610000Y-70718072D01*
X119734482Y-70705812D01*
X119854180Y-70669502D01*
X119964494Y-70610537D01*
X120061185Y-70531185D01*
X120140537Y-70434494D01*
X120199502Y-70324180D01*
X120235812Y-70204482D01*
X120248072Y-70080000D01*
X120248072Y-69596000D01*
X120600098Y-69596000D01*
X120650000Y-69600915D01*
X120699902Y-69596000D01*
X120849171Y-69581298D01*
X121040687Y-69523202D01*
X121217190Y-69428860D01*
X121371896Y-69301896D01*
X121403712Y-69263128D01*
X125642841Y-65024000D01*
X138772971Y-65024000D01*
X138724104Y-65064104D01*
X138692292Y-65102867D01*
X137746868Y-66048292D01*
X137708105Y-66080104D01*
X137581141Y-66234810D01*
X137576177Y-66244098D01*
X137486799Y-66411313D01*
X137428702Y-66602830D01*
X137409085Y-66802000D01*
X137414001Y-66851911D01*
X137414001Y-67181949D01*
X137385820Y-67190498D01*
X137275506Y-67249463D01*
X137178815Y-67328815D01*
X137099463Y-67425506D01*
X137040498Y-67535820D01*
X137004188Y-67655518D01*
X136991928Y-67780000D01*
X136991928Y-69380000D01*
X137004188Y-69504482D01*
X137040498Y-69624180D01*
X137099463Y-69734494D01*
X137178815Y-69831185D01*
X137275506Y-69910537D01*
X137385820Y-69969502D01*
X137505518Y-70005812D01*
X137630000Y-70018072D01*
X139230000Y-70018072D01*
X139354482Y-70005812D01*
X139474180Y-69969502D01*
X139584494Y-69910537D01*
X139681185Y-69831185D01*
X139760537Y-69734494D01*
X139819502Y-69624180D01*
X139835117Y-69572702D01*
X140116903Y-69572702D01*
X140188486Y-69816671D01*
X140443996Y-69937571D01*
X140718184Y-70006300D01*
X141000512Y-70020217D01*
X141280130Y-69978787D01*
X141546292Y-69883603D01*
X141671514Y-69816671D01*
X141743097Y-69572702D01*
X140930000Y-68759605D01*
X140116903Y-69572702D01*
X139835117Y-69572702D01*
X139855812Y-69504482D01*
X139868072Y-69380000D01*
X139868072Y-69372785D01*
X139937298Y-69393097D01*
X140750395Y-68580000D01*
X141109605Y-68580000D01*
X141922702Y-69393097D01*
X142166671Y-69321514D01*
X142287571Y-69066004D01*
X142356300Y-68791816D01*
X142370217Y-68509488D01*
X142328787Y-68229870D01*
X142233603Y-67963708D01*
X142166671Y-67838486D01*
X141922702Y-67766903D01*
X141109605Y-68580000D01*
X140750395Y-68580000D01*
X139937298Y-67766903D01*
X139868072Y-67787215D01*
X139868072Y-67780000D01*
X139855812Y-67655518D01*
X139835118Y-67587298D01*
X140116903Y-67587298D01*
X140930000Y-68400395D01*
X141743097Y-67587298D01*
X141671514Y-67343329D01*
X141416004Y-67222429D01*
X141141816Y-67153700D01*
X140859488Y-67139783D01*
X140579870Y-67181213D01*
X140313708Y-67276397D01*
X140188486Y-67343329D01*
X140116903Y-67587298D01*
X139835118Y-67587298D01*
X139819502Y-67535820D01*
X139760537Y-67425506D01*
X139681185Y-67328815D01*
X139584494Y-67249463D01*
X139476892Y-67191948D01*
X139866841Y-66802000D01*
X146844529Y-66802000D01*
X146775764Y-67028691D01*
X146748057Y-67310000D01*
X146775764Y-67591309D01*
X146857818Y-67861808D01*
X146991068Y-68111101D01*
X147170392Y-68329608D01*
X147388899Y-68508932D01*
X147521858Y-68580000D01*
X147388899Y-68651068D01*
X147170392Y-68830392D01*
X146991068Y-69048899D01*
X146857818Y-69298192D01*
X146775764Y-69568691D01*
X146748057Y-69850000D01*
X146775764Y-70131309D01*
X146857818Y-70401808D01*
X146991068Y-70651101D01*
X147170392Y-70869608D01*
X147388899Y-71048932D01*
X147521858Y-71120000D01*
X147388899Y-71191068D01*
X147170392Y-71370392D01*
X147167431Y-71374000D01*
X133399902Y-71374000D01*
X133350000Y-71369085D01*
X133300098Y-71374000D01*
X133150829Y-71388702D01*
X132959313Y-71446798D01*
X132782810Y-71541140D01*
X132628104Y-71668104D01*
X132596294Y-71706865D01*
X129438160Y-74865000D01*
X129408514Y-74865000D01*
X129150595Y-74916304D01*
X128907641Y-75016939D01*
X128688987Y-75163038D01*
X128503038Y-75348987D01*
X128356939Y-75567641D01*
X128256304Y-75810595D01*
X128205000Y-76068514D01*
X128205000Y-76098159D01*
X123268872Y-81034288D01*
X123230104Y-81066104D01*
X123103140Y-81220810D01*
X123008798Y-81397314D01*
X122957324Y-81567000D01*
X122950702Y-81588830D01*
X122931085Y-81788000D01*
X122936000Y-81837902D01*
X122936001Y-86952088D01*
X122931085Y-87002000D01*
X122950702Y-87201170D01*
X122985782Y-87316811D01*
X123008799Y-87392687D01*
X123103141Y-87569190D01*
X123230105Y-87723896D01*
X123268868Y-87755708D01*
X124915565Y-89402406D01*
X124905000Y-89509678D01*
X124905000Y-90670321D01*
X124928657Y-90910515D01*
X125022148Y-91218714D01*
X125173969Y-91502751D01*
X125378286Y-91751714D01*
X125627248Y-91956031D01*
X125911285Y-92107852D01*
X126219484Y-92201343D01*
X126540000Y-92232911D01*
X126860515Y-92201343D01*
X127168714Y-92107852D01*
X127452751Y-91956031D01*
X127701714Y-91751714D01*
X127906031Y-91502752D01*
X128057852Y-91218715D01*
X128151343Y-90910516D01*
X128175000Y-90670322D01*
X128175000Y-89509678D01*
X128151343Y-89269484D01*
X128057852Y-88961285D01*
X127906031Y-88677248D01*
X127701714Y-88428286D01*
X127452752Y-88223969D01*
X127168715Y-88072148D01*
X126860516Y-87978657D01*
X126540000Y-87947089D01*
X126352406Y-87965565D01*
X124968000Y-86581160D01*
X124968000Y-86050976D01*
X125078058Y-86333020D01*
X125251105Y-86603954D01*
X125473683Y-86835922D01*
X125737239Y-87020010D01*
X126031645Y-87149144D01*
X126159566Y-87180124D01*
X126413000Y-87060777D01*
X126413000Y-85217000D01*
X126667000Y-85217000D01*
X126667000Y-87060777D01*
X126920434Y-87180124D01*
X127048355Y-87149144D01*
X127342761Y-87020010D01*
X127606317Y-86835922D01*
X127828895Y-86603954D01*
X128001942Y-86333020D01*
X128118807Y-86033532D01*
X128175000Y-85717000D01*
X128175000Y-85217000D01*
X134905000Y-85217000D01*
X134905000Y-85717000D01*
X134961193Y-86033532D01*
X135078058Y-86333020D01*
X135251105Y-86603954D01*
X135473683Y-86835922D01*
X135737239Y-87020010D01*
X136031645Y-87149144D01*
X136159566Y-87180124D01*
X136413000Y-87060777D01*
X136413000Y-85217000D01*
X136667000Y-85217000D01*
X136667000Y-87060777D01*
X136920434Y-87180124D01*
X137048355Y-87149144D01*
X137342761Y-87020010D01*
X137446815Y-86947330D01*
X147805278Y-86947330D01*
X147895147Y-87193123D01*
X148031241Y-87416660D01*
X148208330Y-87609351D01*
X148419608Y-87763792D01*
X148656956Y-87874047D01*
X148764671Y-87906716D01*
X148971000Y-87783374D01*
X148971000Y-86741000D01*
X147927799Y-86741000D01*
X147805278Y-86947330D01*
X137446815Y-86947330D01*
X137606317Y-86835922D01*
X137828895Y-86603954D01*
X138001942Y-86333020D01*
X138022369Y-86280670D01*
X147805278Y-86280670D01*
X147927799Y-86487000D01*
X148971000Y-86487000D01*
X148971000Y-85444626D01*
X148764671Y-85321284D01*
X148656956Y-85353953D01*
X148419608Y-85464208D01*
X148208330Y-85618649D01*
X148031241Y-85811340D01*
X147895147Y-86034877D01*
X147805278Y-86280670D01*
X138022369Y-86280670D01*
X138118807Y-86033532D01*
X138175000Y-85717000D01*
X138175000Y-85217000D01*
X136667000Y-85217000D01*
X136413000Y-85217000D01*
X134905000Y-85217000D01*
X128175000Y-85217000D01*
X126667000Y-85217000D01*
X126413000Y-85217000D01*
X126393000Y-85217000D01*
X126393000Y-84963000D01*
X126413000Y-84963000D01*
X126413000Y-83119223D01*
X126667000Y-83119223D01*
X126667000Y-84963000D01*
X128175000Y-84963000D01*
X128175000Y-84463000D01*
X134905000Y-84463000D01*
X134905000Y-84963000D01*
X136413000Y-84963000D01*
X136413000Y-83119223D01*
X136667000Y-83119223D01*
X136667000Y-84963000D01*
X138175000Y-84963000D01*
X138175000Y-84463000D01*
X138118807Y-84146468D01*
X138001942Y-83846980D01*
X137828895Y-83576046D01*
X137606317Y-83344078D01*
X137342761Y-83159990D01*
X137048355Y-83030856D01*
X136920434Y-82999876D01*
X136667000Y-83119223D01*
X136413000Y-83119223D01*
X136159566Y-82999876D01*
X136031645Y-83030856D01*
X135737239Y-83159990D01*
X135473683Y-83344078D01*
X135251105Y-83576046D01*
X135078058Y-83846980D01*
X134961193Y-84146468D01*
X134905000Y-84463000D01*
X128175000Y-84463000D01*
X128118807Y-84146468D01*
X128001942Y-83846980D01*
X127828895Y-83576046D01*
X127606317Y-83344078D01*
X127342761Y-83159990D01*
X127048355Y-83030856D01*
X126920434Y-82999876D01*
X126667000Y-83119223D01*
X126413000Y-83119223D01*
X126159566Y-82999876D01*
X126031645Y-83030856D01*
X125737239Y-83159990D01*
X125473683Y-83344078D01*
X125251105Y-83576046D01*
X125078058Y-83846980D01*
X124968000Y-84129024D01*
X124968000Y-82208840D01*
X129641841Y-77535000D01*
X129671486Y-77535000D01*
X129929405Y-77483696D01*
X130172359Y-77383061D01*
X130391013Y-77236962D01*
X130576962Y-77051013D01*
X130723061Y-76832359D01*
X130823696Y-76589405D01*
X130875000Y-76331486D01*
X130875000Y-76301840D01*
X133770841Y-73406000D01*
X138009160Y-73406000D01*
X137746868Y-73668292D01*
X137708105Y-73700104D01*
X137581141Y-73854810D01*
X137510593Y-73986798D01*
X137486799Y-74031313D01*
X137428702Y-74222830D01*
X137409085Y-74422000D01*
X137414001Y-74471911D01*
X137414001Y-74801949D01*
X137385820Y-74810498D01*
X137275506Y-74869463D01*
X137178815Y-74948815D01*
X137099463Y-75045506D01*
X137040498Y-75155820D01*
X137004188Y-75275518D01*
X136991928Y-75400000D01*
X136991928Y-77000000D01*
X137004188Y-77124482D01*
X137040498Y-77244180D01*
X137099463Y-77354494D01*
X137178815Y-77451185D01*
X137275506Y-77530537D01*
X137385820Y-77589502D01*
X137505518Y-77625812D01*
X137630000Y-77638072D01*
X139230000Y-77638072D01*
X139354482Y-77625812D01*
X139474180Y-77589502D01*
X139584494Y-77530537D01*
X139681185Y-77451185D01*
X139760537Y-77354494D01*
X139819502Y-77244180D01*
X139835117Y-77192702D01*
X140116903Y-77192702D01*
X140188486Y-77436671D01*
X140443996Y-77557571D01*
X140718184Y-77626300D01*
X141000512Y-77640217D01*
X141280130Y-77598787D01*
X141546292Y-77503603D01*
X141671514Y-77436671D01*
X141743097Y-77192702D01*
X140930000Y-76379605D01*
X140116903Y-77192702D01*
X139835117Y-77192702D01*
X139855812Y-77124482D01*
X139868072Y-77000000D01*
X139868072Y-76992785D01*
X139937298Y-77013097D01*
X140750395Y-76200000D01*
X141109605Y-76200000D01*
X141922702Y-77013097D01*
X142166671Y-76941514D01*
X142287571Y-76686004D01*
X142356300Y-76411816D01*
X142370217Y-76129488D01*
X142328787Y-75849870D01*
X142233603Y-75583708D01*
X142166671Y-75458486D01*
X141922702Y-75386903D01*
X141109605Y-76200000D01*
X140750395Y-76200000D01*
X139937298Y-75386903D01*
X139868072Y-75407215D01*
X139868072Y-75400000D01*
X139855812Y-75275518D01*
X139819502Y-75155820D01*
X139766680Y-75056999D01*
X140161002Y-75056999D01*
X140116903Y-75207298D01*
X140930000Y-76020395D01*
X141743097Y-75207298D01*
X141698998Y-75056999D01*
X145318159Y-75056999D01*
X145874292Y-75613133D01*
X145906104Y-75651896D01*
X146060810Y-75778860D01*
X146237313Y-75873202D01*
X146428829Y-75931298D01*
X146578098Y-75946000D01*
X146578105Y-75946000D01*
X146627999Y-75950914D01*
X146677893Y-75946000D01*
X147167431Y-75946000D01*
X147170392Y-75949608D01*
X147388899Y-76128932D01*
X147638192Y-76262182D01*
X147908691Y-76344236D01*
X148119508Y-76365000D01*
X149060492Y-76365000D01*
X149271309Y-76344236D01*
X149541808Y-76262182D01*
X149791101Y-76128932D01*
X150009608Y-75949608D01*
X150188932Y-75731101D01*
X150241001Y-75633686D01*
X150241002Y-85936570D01*
X150164759Y-85811340D01*
X149987670Y-85618649D01*
X149776392Y-85464208D01*
X149539044Y-85353953D01*
X149431329Y-85321284D01*
X149225000Y-85444626D01*
X149225000Y-86487000D01*
X149245000Y-86487000D01*
X149245000Y-86741000D01*
X149225000Y-86741000D01*
X149225000Y-87783374D01*
X149431329Y-87906716D01*
X149539044Y-87874047D01*
X149776392Y-87763792D01*
X149987670Y-87609351D01*
X150164759Y-87416660D01*
X150241002Y-87291430D01*
X150241002Y-89114157D01*
X149430869Y-89924291D01*
X149430864Y-89924295D01*
X148996159Y-90359000D01*
X148966514Y-90359000D01*
X148708595Y-90410304D01*
X148465641Y-90510939D01*
X148246987Y-90657038D01*
X148226025Y-90678000D01*
X138564841Y-90678000D01*
X138175000Y-90288159D01*
X138175000Y-89509678D01*
X138151343Y-89269484D01*
X138057852Y-88961285D01*
X137906031Y-88677248D01*
X137701714Y-88428286D01*
X137452752Y-88223969D01*
X137168715Y-88072148D01*
X136860516Y-87978657D01*
X136540000Y-87947089D01*
X136219485Y-87978657D01*
X135911286Y-88072148D01*
X135627249Y-88223969D01*
X135378287Y-88428286D01*
X135173970Y-88677248D01*
X135022148Y-88961285D01*
X134928657Y-89269484D01*
X134905000Y-89509678D01*
X134905000Y-90670321D01*
X134928657Y-90910515D01*
X135022148Y-91218714D01*
X135173969Y-91502751D01*
X135378286Y-91751714D01*
X135627248Y-91956031D01*
X135911285Y-92107852D01*
X136219484Y-92201343D01*
X136540000Y-92232911D01*
X136860515Y-92201343D01*
X137132114Y-92118955D01*
X137390292Y-92377133D01*
X137422104Y-92415896D01*
X137516437Y-92493313D01*
X137576810Y-92542860D01*
X137753313Y-92637202D01*
X137944829Y-92695298D01*
X138144000Y-92714915D01*
X138193902Y-92710000D01*
X148226025Y-92710000D01*
X148246987Y-92730962D01*
X148465641Y-92877061D01*
X148708595Y-92977696D01*
X148966514Y-93029000D01*
X149229486Y-93029000D01*
X149487405Y-92977696D01*
X149730359Y-92877061D01*
X149949013Y-92730962D01*
X150134962Y-92545013D01*
X150281061Y-92326359D01*
X150381696Y-92083405D01*
X150433000Y-91825486D01*
X150433000Y-91795841D01*
X150867705Y-91361136D01*
X150867709Y-91361131D01*
X151940134Y-90288707D01*
X151978897Y-90256895D01*
X152105861Y-90102189D01*
X152183944Y-89956105D01*
X152200203Y-89925687D01*
X152258299Y-89734170D01*
X152277916Y-89534999D01*
X152273001Y-89485097D01*
X152273001Y-71042903D01*
X152277916Y-70993001D01*
X152258299Y-70793830D01*
X152200203Y-70602314D01*
X152105861Y-70425811D01*
X152027895Y-70330809D01*
X151978897Y-70271105D01*
X151940134Y-70239293D01*
X150867712Y-69166872D01*
X150835896Y-69128104D01*
X150681190Y-69001140D01*
X150504687Y-68906798D01*
X150313171Y-68848702D01*
X150163902Y-68834000D01*
X150114000Y-68829085D01*
X150064098Y-68834000D01*
X150012569Y-68834000D01*
X150009608Y-68830392D01*
X149791101Y-68651068D01*
X149658142Y-68580000D01*
X149791101Y-68508932D01*
X150009608Y-68329608D01*
X150188932Y-68111101D01*
X150322182Y-67861808D01*
X150404236Y-67591309D01*
X150431943Y-67310000D01*
X150404236Y-67028691D01*
X150322182Y-66758192D01*
X150188932Y-66508899D01*
X150009608Y-66290392D01*
X149791101Y-66111068D01*
X149558511Y-65986746D01*
X149533202Y-65903313D01*
X149438860Y-65726810D01*
X149311896Y-65572104D01*
X149273127Y-65540287D01*
X148835713Y-65102873D01*
X148803896Y-65064104D01*
X148755029Y-65024000D01*
X148931160Y-65024000D01*
X151130001Y-67222842D01*
X151130000Y-68883929D01*
X151125085Y-68933831D01*
X151138103Y-69066004D01*
X151144702Y-69133001D01*
X151202798Y-69324517D01*
X151297140Y-69501021D01*
X151424104Y-69655727D01*
X151462872Y-69687543D01*
X154390206Y-72614878D01*
X154395764Y-72671309D01*
X154477818Y-72941808D01*
X154611068Y-73191101D01*
X154790392Y-73409608D01*
X154903482Y-73502419D01*
X154885518Y-73504188D01*
X154765820Y-73540498D01*
X154655506Y-73599463D01*
X154558815Y-73678815D01*
X154479463Y-73775506D01*
X154420498Y-73885820D01*
X154384188Y-74005518D01*
X154371928Y-74130000D01*
X154371928Y-75730000D01*
X154384188Y-75854482D01*
X154420498Y-75974180D01*
X154479463Y-76084494D01*
X154558815Y-76181185D01*
X154655506Y-76260537D01*
X154765820Y-76319502D01*
X154885518Y-76355812D01*
X155010000Y-76368072D01*
X157410000Y-76368072D01*
X157534482Y-76355812D01*
X157654180Y-76319502D01*
X157764494Y-76260537D01*
X157861185Y-76181185D01*
X157940537Y-76084494D01*
X157999502Y-75974180D01*
X158008050Y-75946000D01*
X161377160Y-75946000D01*
X163545107Y-78113948D01*
X163437506Y-78171463D01*
X163340815Y-78250815D01*
X163261463Y-78347506D01*
X163202498Y-78457820D01*
X163166188Y-78577518D01*
X163153928Y-78702000D01*
X163153928Y-80302000D01*
X163166188Y-80426482D01*
X163202498Y-80546180D01*
X163261463Y-80656494D01*
X163340815Y-80753185D01*
X163437506Y-80832537D01*
X163547820Y-80891502D01*
X163667518Y-80927812D01*
X163792000Y-80940072D01*
X165392000Y-80940072D01*
X165516482Y-80927812D01*
X165636180Y-80891502D01*
X165746494Y-80832537D01*
X165843185Y-80753185D01*
X165922537Y-80656494D01*
X165981502Y-80546180D01*
X166017812Y-80426482D01*
X166030072Y-80302000D01*
X166030072Y-78702000D01*
X166017812Y-78577518D01*
X165981502Y-78457820D01*
X165922537Y-78347506D01*
X165843185Y-78250815D01*
X165746494Y-78171463D01*
X165636180Y-78112498D01*
X165608000Y-78103950D01*
X165608000Y-77773902D01*
X165612915Y-77724000D01*
X165593298Y-77524829D01*
X165535202Y-77333313D01*
X165499628Y-77266759D01*
X165440860Y-77156810D01*
X165313896Y-77002104D01*
X165275133Y-76970292D01*
X162551712Y-74246872D01*
X162519896Y-74208104D01*
X162365190Y-74081140D01*
X162188687Y-73986798D01*
X161997171Y-73928702D01*
X161847902Y-73914000D01*
X161798000Y-73909085D01*
X161748098Y-73914000D01*
X158008050Y-73914000D01*
X157999502Y-73885820D01*
X157940537Y-73775506D01*
X157861185Y-73678815D01*
X157764494Y-73599463D01*
X157654180Y-73540498D01*
X157534482Y-73504188D01*
X157516518Y-73502419D01*
X157629608Y-73409608D01*
X157808932Y-73191101D01*
X157942182Y-72941808D01*
X158024236Y-72671309D01*
X158051943Y-72390000D01*
X158024236Y-72108691D01*
X157942182Y-71838192D01*
X157808932Y-71588899D01*
X157629608Y-71370392D01*
X157411101Y-71191068D01*
X157278142Y-71120000D01*
X157411101Y-71048932D01*
X157629608Y-70869608D01*
X157632569Y-70866000D01*
X158122098Y-70866000D01*
X158172000Y-70870915D01*
X158221902Y-70866000D01*
X158371171Y-70851298D01*
X158562687Y-70793202D01*
X158739190Y-70698860D01*
X158893896Y-70571896D01*
X158925713Y-70533127D01*
X159100840Y-70358000D01*
X161415950Y-70358000D01*
X161424498Y-70386180D01*
X161483463Y-70496494D01*
X161562815Y-70593185D01*
X161659506Y-70672537D01*
X161769820Y-70731502D01*
X161889518Y-70767812D01*
X162014000Y-70780072D01*
X163614000Y-70780072D01*
X163738482Y-70767812D01*
X163858180Y-70731502D01*
X163968494Y-70672537D01*
X164065185Y-70593185D01*
X164144537Y-70496494D01*
X164203502Y-70386180D01*
X164239812Y-70266482D01*
X164252072Y-70142000D01*
X164252072Y-68542000D01*
X164239812Y-68417518D01*
X164203502Y-68297820D01*
X164144537Y-68187506D01*
X164065185Y-68090815D01*
X163968494Y-68011463D01*
X163858180Y-67952498D01*
X163738482Y-67916188D01*
X163614000Y-67903928D01*
X162014000Y-67903928D01*
X161889518Y-67916188D01*
X161769820Y-67952498D01*
X161659506Y-68011463D01*
X161562815Y-68090815D01*
X161483463Y-68187506D01*
X161424498Y-68297820D01*
X161415950Y-68326000D01*
X158729893Y-68326000D01*
X158679999Y-68321086D01*
X158630105Y-68326000D01*
X158630098Y-68326000D01*
X158500177Y-68338796D01*
X158480828Y-68340702D01*
X158422732Y-68358326D01*
X158289313Y-68398798D01*
X158112810Y-68493140D01*
X157958104Y-68620104D01*
X157926287Y-68658873D01*
X157751160Y-68834000D01*
X157632569Y-68834000D01*
X157629608Y-68830392D01*
X157411101Y-68651068D01*
X157283259Y-68582735D01*
X157512839Y-68432601D01*
X157714500Y-68234895D01*
X157873715Y-68001646D01*
X157984367Y-67741818D01*
X158001904Y-67659039D01*
X157879915Y-67437000D01*
X156337000Y-67437000D01*
X156337000Y-67457000D01*
X156083000Y-67457000D01*
X156083000Y-67437000D01*
X154540085Y-67437000D01*
X154418096Y-67659039D01*
X154435633Y-67741818D01*
X154546285Y-68001646D01*
X154705500Y-68234895D01*
X154907161Y-68432601D01*
X155136741Y-68582735D01*
X155008899Y-68651068D01*
X154790392Y-68830392D01*
X154611068Y-69048899D01*
X154477818Y-69298192D01*
X154395764Y-69568691D01*
X154379798Y-69730789D01*
X153162000Y-68512991D01*
X153162000Y-66960961D01*
X154418096Y-66960961D01*
X154540085Y-67183000D01*
X156083000Y-67183000D01*
X156083000Y-65875000D01*
X156337000Y-65875000D01*
X156337000Y-67183000D01*
X157879915Y-67183000D01*
X158001904Y-66960961D01*
X157984367Y-66878182D01*
X157873715Y-66618354D01*
X157714500Y-66385105D01*
X157512839Y-66187399D01*
X157276483Y-66032834D01*
X157014514Y-65927350D01*
X156737000Y-65875000D01*
X156337000Y-65875000D01*
X156083000Y-65875000D01*
X155683000Y-65875000D01*
X155405486Y-65927350D01*
X155143517Y-66032834D01*
X154907161Y-66187399D01*
X154705500Y-66385105D01*
X154546285Y-66618354D01*
X154435633Y-66878182D01*
X154418096Y-66960961D01*
X153162000Y-66960961D01*
X153162000Y-66851902D01*
X153166915Y-66802000D01*
X153147298Y-66602829D01*
X153089202Y-66411313D01*
X153058134Y-66353189D01*
X152994860Y-66234810D01*
X152867896Y-66080104D01*
X152829133Y-66048292D01*
X150105712Y-63324872D01*
X150073896Y-63286104D01*
X149919190Y-63159140D01*
X149742687Y-63064798D01*
X149551171Y-63006702D01*
X149401902Y-62992000D01*
X149352000Y-62987085D01*
X149302098Y-62992000D01*
X125271893Y-62992000D01*
X125221999Y-62987086D01*
X125172105Y-62992000D01*
X125172098Y-62992000D01*
X125042177Y-63004796D01*
X125022828Y-63006702D01*
X124964732Y-63024326D01*
X124831313Y-63064798D01*
X124654810Y-63159140D01*
X124500104Y-63286104D01*
X124468292Y-63324867D01*
X120248072Y-67545088D01*
X120248072Y-67080000D01*
X120235812Y-66955518D01*
X120199502Y-66835820D01*
X120140537Y-66725506D01*
X120061185Y-66628815D01*
X119964494Y-66549463D01*
X119854180Y-66490498D01*
X119734482Y-66454188D01*
X119610000Y-66441928D01*
X116610000Y-66441928D01*
X116485518Y-66454188D01*
X116365820Y-66490498D01*
X116255506Y-66549463D01*
X116158815Y-66628815D01*
X116079463Y-66725506D01*
X116020498Y-66835820D01*
X115984188Y-66955518D01*
X115971928Y-67080000D01*
X111175000Y-67080000D01*
X111175000Y-62103000D01*
X170765000Y-62103000D01*
X170765001Y-114885000D01*
G04 #@! TD*
M02*
