M48
;DRILL file {KiCad (5.0.0)} date 10/15/18 10:26:45
;FORMAT={-:-/ absolute / inch / decimal}
FMAT,2
INCH,TZ
T1C0.0157
T2C0.0236
T3C0.0276
T4C0.0315
T5C0.0598
%
G90
G05
M72
T3
X5.87Y-3.41
X5.87Y-3.61
X4.9Y-3.
X5.1Y-3.
T4
X5.45Y-2.7
X5.5484Y-2.7
X6.41Y-2.73
X6.5478Y-2.73
X5.65Y-4.15
X6.15Y-4.15
X5.9331Y-3.87
X6.13Y-3.87
X5.45Y-3.
X5.5484Y-3.
X6.48Y-3.13
X6.48Y-3.2678
X6.19Y-3.46
X6.19Y-3.6569
X5.65Y-4.35
X6.15Y-4.35
X5.85Y-2.65
X5.85Y-2.75
X5.85Y-2.85
X5.85Y-2.95
X6.15Y-2.65
X6.15Y-2.75
X6.15Y-2.85
X6.15Y-2.95
T5
X6.55Y-3.71
X6.55Y-3.91
X6.55Y-4.11
X4.65Y-2.7
X4.65Y-2.9
T1
X5.2409Y-4.1539G85X5.2646Y-4.1539
G05
X5.2409Y-4.3705G85X5.2646Y-4.3705
G05
X5.2823Y-4.274G85X5.2823Y-4.2504
G05
T2
X4.9819Y-3.3618G85X4.9819Y-3.3382
G05
X4.9819Y-3.5587G85X4.9819Y-3.535
G05
X4.9819Y-3.7555G85X4.9819Y-3.7319
G05
X5.3756Y-3.3618G85X5.3756Y-3.3382
G05
X5.3756Y-3.5587G85X5.3756Y-3.535
G05
X5.3756Y-3.7555G85X5.3756Y-3.7319
G05
X4.9299Y-4.1343G85X4.9457Y-4.1343
G05
X4.9457Y-4.3902G85X4.9299Y-4.3902
G05
T0
M30
